G04 #@! TF.GenerationSoftware,KiCad,Pcbnew,(5.0.0-3-g5ebb6b6)*
G04 #@! TF.CreationDate,2021-01-21T07:34:20+01:00*
G04 #@! TF.ProjectId,HB-RC-4-TOUCH,48422D52432D342D544F5543482E6B69,rev?*
G04 #@! TF.SameCoordinates,Original*
G04 #@! TF.FileFunction,Copper,L1,Top,Signal*
G04 #@! TF.FilePolarity,Positive*
%FSLAX46Y46*%
G04 Gerber Fmt 4.6, Leading zero omitted, Abs format (unit mm)*
G04 Created by KiCad (PCBNEW (5.0.0-3-g5ebb6b6)) date Thursday, 21. January 2021 um 07:34:20*
%MOMM*%
%LPD*%
G01*
G04 APERTURE LIST*
G04 #@! TA.AperFunction,Conductor*
%ADD10C,0.100000*%
G04 #@! TD*
G04 #@! TA.AperFunction,SMDPad,CuDef*
%ADD11C,1.905000*%
G04 #@! TD*
G04 #@! TA.AperFunction,ComponentPad*
%ADD12C,1.727200*%
G04 #@! TD*
G04 #@! TA.AperFunction,ComponentPad*
%ADD13R,1.727200X1.727200*%
G04 #@! TD*
G04 #@! TA.AperFunction,ConnectorPad*
%ADD14R,1.800000X1.350000*%
G04 #@! TD*
G04 #@! TA.AperFunction,BGAPad,CuDef*
%ADD15C,1.350000*%
G04 #@! TD*
G04 #@! TA.AperFunction,SMDPad,CuDef*
%ADD16R,1.550000X1.300000*%
G04 #@! TD*
G04 #@! TA.AperFunction,ComponentPad*
%ADD17C,1.600000*%
G04 #@! TD*
G04 #@! TA.AperFunction,ComponentPad*
%ADD18O,1.600000X1.600000*%
G04 #@! TD*
G04 #@! TA.AperFunction,SMDPad,CuDef*
%ADD19R,1.500000X1.500000*%
G04 #@! TD*
G04 #@! TA.AperFunction,Conductor*
%ADD20C,46.000000*%
G04 #@! TD*
G04 #@! TA.AperFunction,ComponentPad*
%ADD21R,1.800000X1.800000*%
G04 #@! TD*
G04 #@! TA.AperFunction,ComponentPad*
%ADD22C,1.800000*%
G04 #@! TD*
G04 #@! TA.AperFunction,Conductor*
%ADD23C,0.500000*%
G04 #@! TD*
G04 #@! TA.AperFunction,Conductor*
%ADD24C,0.400000*%
G04 #@! TD*
G04 #@! TA.AperFunction,Conductor*
%ADD25C,0.600000*%
G04 #@! TD*
G04 APERTURE END LIST*
D10*
G04 #@! TO.N,Net-(J4-Pad1)*
G04 #@! TO.C,U2*
G36*
X213552931Y-60439793D02*
X213599162Y-60446651D01*
X213644498Y-60458007D01*
X213688503Y-60473752D01*
X213730753Y-60493735D01*
X213770840Y-60517763D01*
X213808380Y-60545604D01*
X213843010Y-60576990D01*
X213874396Y-60611620D01*
X213902237Y-60649160D01*
X213926265Y-60689247D01*
X213946248Y-60731497D01*
X213961993Y-60775502D01*
X213973349Y-60820838D01*
X213980207Y-60867069D01*
X213982500Y-60913750D01*
X213982500Y-62501250D01*
X213980207Y-62547931D01*
X213973349Y-62594162D01*
X213961993Y-62639498D01*
X213946248Y-62683503D01*
X213926265Y-62725753D01*
X213902237Y-62765840D01*
X213874396Y-62803380D01*
X213843010Y-62838010D01*
X213808380Y-62869396D01*
X213770840Y-62897237D01*
X213730753Y-62921265D01*
X213688503Y-62941248D01*
X213644498Y-62956993D01*
X213599162Y-62968349D01*
X213552931Y-62975207D01*
X213506250Y-62977500D01*
X212553750Y-62977500D01*
X212507069Y-62975207D01*
X212460838Y-62968349D01*
X212415502Y-62956993D01*
X212371497Y-62941248D01*
X212329247Y-62921265D01*
X212289160Y-62897237D01*
X212251620Y-62869396D01*
X212216990Y-62838010D01*
X212185604Y-62803380D01*
X212157763Y-62765840D01*
X212133735Y-62725753D01*
X212113752Y-62683503D01*
X212098007Y-62639498D01*
X212086651Y-62594162D01*
X212079793Y-62547931D01*
X212077500Y-62501250D01*
X212077500Y-60913750D01*
X212079793Y-60867069D01*
X212086651Y-60820838D01*
X212098007Y-60775502D01*
X212113752Y-60731497D01*
X212133735Y-60689247D01*
X212157763Y-60649160D01*
X212185604Y-60611620D01*
X212216990Y-60576990D01*
X212251620Y-60545604D01*
X212289160Y-60517763D01*
X212329247Y-60493735D01*
X212371497Y-60473752D01*
X212415502Y-60458007D01*
X212460838Y-60446651D01*
X212507069Y-60439793D01*
X212553750Y-60437500D01*
X213506250Y-60437500D01*
X213552931Y-60439793D01*
X213552931Y-60439793D01*
G37*
D11*
G04 #@! TD*
G04 #@! TO.P,U2,7*
G04 #@! TO.N,Net-(J4-Pad1)*
X213030000Y-61707500D03*
D10*
G04 #@! TO.N,Net-(J3-Pad1)*
G04 #@! TO.C,U2*
G36*
X216092931Y-60439793D02*
X216139162Y-60446651D01*
X216184498Y-60458007D01*
X216228503Y-60473752D01*
X216270753Y-60493735D01*
X216310840Y-60517763D01*
X216348380Y-60545604D01*
X216383010Y-60576990D01*
X216414396Y-60611620D01*
X216442237Y-60649160D01*
X216466265Y-60689247D01*
X216486248Y-60731497D01*
X216501993Y-60775502D01*
X216513349Y-60820838D01*
X216520207Y-60867069D01*
X216522500Y-60913750D01*
X216522500Y-62501250D01*
X216520207Y-62547931D01*
X216513349Y-62594162D01*
X216501993Y-62639498D01*
X216486248Y-62683503D01*
X216466265Y-62725753D01*
X216442237Y-62765840D01*
X216414396Y-62803380D01*
X216383010Y-62838010D01*
X216348380Y-62869396D01*
X216310840Y-62897237D01*
X216270753Y-62921265D01*
X216228503Y-62941248D01*
X216184498Y-62956993D01*
X216139162Y-62968349D01*
X216092931Y-62975207D01*
X216046250Y-62977500D01*
X215093750Y-62977500D01*
X215047069Y-62975207D01*
X215000838Y-62968349D01*
X214955502Y-62956993D01*
X214911497Y-62941248D01*
X214869247Y-62921265D01*
X214829160Y-62897237D01*
X214791620Y-62869396D01*
X214756990Y-62838010D01*
X214725604Y-62803380D01*
X214697763Y-62765840D01*
X214673735Y-62725753D01*
X214653752Y-62683503D01*
X214638007Y-62639498D01*
X214626651Y-62594162D01*
X214619793Y-62547931D01*
X214617500Y-62501250D01*
X214617500Y-60913750D01*
X214619793Y-60867069D01*
X214626651Y-60820838D01*
X214638007Y-60775502D01*
X214653752Y-60731497D01*
X214673735Y-60689247D01*
X214697763Y-60649160D01*
X214725604Y-60611620D01*
X214756990Y-60576990D01*
X214791620Y-60545604D01*
X214829160Y-60517763D01*
X214869247Y-60493735D01*
X214911497Y-60473752D01*
X214955502Y-60458007D01*
X215000838Y-60446651D01*
X215047069Y-60439793D01*
X215093750Y-60437500D01*
X216046250Y-60437500D01*
X216092931Y-60439793D01*
X216092931Y-60439793D01*
G37*
D11*
G04 #@! TD*
G04 #@! TO.P,U2,8*
G04 #@! TO.N,Net-(J3-Pad1)*
X215570000Y-61707500D03*
D10*
G04 #@! TO.N,Net-(J2-Pad1)*
G04 #@! TO.C,U2*
G36*
X218632931Y-60439793D02*
X218679162Y-60446651D01*
X218724498Y-60458007D01*
X218768503Y-60473752D01*
X218810753Y-60493735D01*
X218850840Y-60517763D01*
X218888380Y-60545604D01*
X218923010Y-60576990D01*
X218954396Y-60611620D01*
X218982237Y-60649160D01*
X219006265Y-60689247D01*
X219026248Y-60731497D01*
X219041993Y-60775502D01*
X219053349Y-60820838D01*
X219060207Y-60867069D01*
X219062500Y-60913750D01*
X219062500Y-62501250D01*
X219060207Y-62547931D01*
X219053349Y-62594162D01*
X219041993Y-62639498D01*
X219026248Y-62683503D01*
X219006265Y-62725753D01*
X218982237Y-62765840D01*
X218954396Y-62803380D01*
X218923010Y-62838010D01*
X218888380Y-62869396D01*
X218850840Y-62897237D01*
X218810753Y-62921265D01*
X218768503Y-62941248D01*
X218724498Y-62956993D01*
X218679162Y-62968349D01*
X218632931Y-62975207D01*
X218586250Y-62977500D01*
X217633750Y-62977500D01*
X217587069Y-62975207D01*
X217540838Y-62968349D01*
X217495502Y-62956993D01*
X217451497Y-62941248D01*
X217409247Y-62921265D01*
X217369160Y-62897237D01*
X217331620Y-62869396D01*
X217296990Y-62838010D01*
X217265604Y-62803380D01*
X217237763Y-62765840D01*
X217213735Y-62725753D01*
X217193752Y-62683503D01*
X217178007Y-62639498D01*
X217166651Y-62594162D01*
X217159793Y-62547931D01*
X217157500Y-62501250D01*
X217157500Y-60913750D01*
X217159793Y-60867069D01*
X217166651Y-60820838D01*
X217178007Y-60775502D01*
X217193752Y-60731497D01*
X217213735Y-60689247D01*
X217237763Y-60649160D01*
X217265604Y-60611620D01*
X217296990Y-60576990D01*
X217331620Y-60545604D01*
X217369160Y-60517763D01*
X217409247Y-60493735D01*
X217451497Y-60473752D01*
X217495502Y-60458007D01*
X217540838Y-60446651D01*
X217587069Y-60439793D01*
X217633750Y-60437500D01*
X218586250Y-60437500D01*
X218632931Y-60439793D01*
X218632931Y-60439793D01*
G37*
D11*
G04 #@! TD*
G04 #@! TO.P,U2,9*
G04 #@! TO.N,Net-(J2-Pad1)*
X218110000Y-61707500D03*
D10*
G04 #@! TO.N,Net-(J1-Pad1)*
G04 #@! TO.C,U2*
G36*
X221172931Y-60439793D02*
X221219162Y-60446651D01*
X221264498Y-60458007D01*
X221308503Y-60473752D01*
X221350753Y-60493735D01*
X221390840Y-60517763D01*
X221428380Y-60545604D01*
X221463010Y-60576990D01*
X221494396Y-60611620D01*
X221522237Y-60649160D01*
X221546265Y-60689247D01*
X221566248Y-60731497D01*
X221581993Y-60775502D01*
X221593349Y-60820838D01*
X221600207Y-60867069D01*
X221602500Y-60913750D01*
X221602500Y-62501250D01*
X221600207Y-62547931D01*
X221593349Y-62594162D01*
X221581993Y-62639498D01*
X221566248Y-62683503D01*
X221546265Y-62725753D01*
X221522237Y-62765840D01*
X221494396Y-62803380D01*
X221463010Y-62838010D01*
X221428380Y-62869396D01*
X221390840Y-62897237D01*
X221350753Y-62921265D01*
X221308503Y-62941248D01*
X221264498Y-62956993D01*
X221219162Y-62968349D01*
X221172931Y-62975207D01*
X221126250Y-62977500D01*
X220173750Y-62977500D01*
X220127069Y-62975207D01*
X220080838Y-62968349D01*
X220035502Y-62956993D01*
X219991497Y-62941248D01*
X219949247Y-62921265D01*
X219909160Y-62897237D01*
X219871620Y-62869396D01*
X219836990Y-62838010D01*
X219805604Y-62803380D01*
X219777763Y-62765840D01*
X219753735Y-62725753D01*
X219733752Y-62683503D01*
X219718007Y-62639498D01*
X219706651Y-62594162D01*
X219699793Y-62547931D01*
X219697500Y-62501250D01*
X219697500Y-60913750D01*
X219699793Y-60867069D01*
X219706651Y-60820838D01*
X219718007Y-60775502D01*
X219733752Y-60731497D01*
X219753735Y-60689247D01*
X219777763Y-60649160D01*
X219805604Y-60611620D01*
X219836990Y-60576990D01*
X219871620Y-60545604D01*
X219909160Y-60517763D01*
X219949247Y-60493735D01*
X219991497Y-60473752D01*
X220035502Y-60458007D01*
X220080838Y-60446651D01*
X220127069Y-60439793D01*
X220173750Y-60437500D01*
X221126250Y-60437500D01*
X221172931Y-60439793D01*
X221172931Y-60439793D01*
G37*
D11*
G04 #@! TD*
G04 #@! TO.P,U2,10*
G04 #@! TO.N,Net-(J1-Pad1)*
X220650000Y-61707500D03*
D10*
G04 #@! TO.N,GND*
G04 #@! TO.C,U2*
G36*
X221172931Y-42024793D02*
X221219162Y-42031651D01*
X221264498Y-42043007D01*
X221308503Y-42058752D01*
X221350753Y-42078735D01*
X221390840Y-42102763D01*
X221428380Y-42130604D01*
X221463010Y-42161990D01*
X221494396Y-42196620D01*
X221522237Y-42234160D01*
X221546265Y-42274247D01*
X221566248Y-42316497D01*
X221581993Y-42360502D01*
X221593349Y-42405838D01*
X221600207Y-42452069D01*
X221602500Y-42498750D01*
X221602500Y-44086250D01*
X221600207Y-44132931D01*
X221593349Y-44179162D01*
X221581993Y-44224498D01*
X221566248Y-44268503D01*
X221546265Y-44310753D01*
X221522237Y-44350840D01*
X221494396Y-44388380D01*
X221463010Y-44423010D01*
X221428380Y-44454396D01*
X221390840Y-44482237D01*
X221350753Y-44506265D01*
X221308503Y-44526248D01*
X221264498Y-44541993D01*
X221219162Y-44553349D01*
X221172931Y-44560207D01*
X221126250Y-44562500D01*
X220173750Y-44562500D01*
X220127069Y-44560207D01*
X220080838Y-44553349D01*
X220035502Y-44541993D01*
X219991497Y-44526248D01*
X219949247Y-44506265D01*
X219909160Y-44482237D01*
X219871620Y-44454396D01*
X219836990Y-44423010D01*
X219805604Y-44388380D01*
X219777763Y-44350840D01*
X219753735Y-44310753D01*
X219733752Y-44268503D01*
X219718007Y-44224498D01*
X219706651Y-44179162D01*
X219699793Y-44132931D01*
X219697500Y-44086250D01*
X219697500Y-42498750D01*
X219699793Y-42452069D01*
X219706651Y-42405838D01*
X219718007Y-42360502D01*
X219733752Y-42316497D01*
X219753735Y-42274247D01*
X219777763Y-42234160D01*
X219805604Y-42196620D01*
X219836990Y-42161990D01*
X219871620Y-42130604D01*
X219909160Y-42102763D01*
X219949247Y-42078735D01*
X219991497Y-42058752D01*
X220035502Y-42043007D01*
X220080838Y-42031651D01*
X220127069Y-42024793D01*
X220173750Y-42022500D01*
X221126250Y-42022500D01*
X221172931Y-42024793D01*
X221172931Y-42024793D01*
G37*
D11*
G04 #@! TD*
G04 #@! TO.P,U2,6*
G04 #@! TO.N,GND*
X220650000Y-43292500D03*
D10*
G04 #@! TO.N,Net-(J6-Pad1)*
G04 #@! TO.C,U2*
G36*
X226252931Y-42024793D02*
X226299162Y-42031651D01*
X226344498Y-42043007D01*
X226388503Y-42058752D01*
X226430753Y-42078735D01*
X226470840Y-42102763D01*
X226508380Y-42130604D01*
X226543010Y-42161990D01*
X226574396Y-42196620D01*
X226602237Y-42234160D01*
X226626265Y-42274247D01*
X226646248Y-42316497D01*
X226661993Y-42360502D01*
X226673349Y-42405838D01*
X226680207Y-42452069D01*
X226682500Y-42498750D01*
X226682500Y-44086250D01*
X226680207Y-44132931D01*
X226673349Y-44179162D01*
X226661993Y-44224498D01*
X226646248Y-44268503D01*
X226626265Y-44310753D01*
X226602237Y-44350840D01*
X226574396Y-44388380D01*
X226543010Y-44423010D01*
X226508380Y-44454396D01*
X226470840Y-44482237D01*
X226430753Y-44506265D01*
X226388503Y-44526248D01*
X226344498Y-44541993D01*
X226299162Y-44553349D01*
X226252931Y-44560207D01*
X226206250Y-44562500D01*
X225253750Y-44562500D01*
X225207069Y-44560207D01*
X225160838Y-44553349D01*
X225115502Y-44541993D01*
X225071497Y-44526248D01*
X225029247Y-44506265D01*
X224989160Y-44482237D01*
X224951620Y-44454396D01*
X224916990Y-44423010D01*
X224885604Y-44388380D01*
X224857763Y-44350840D01*
X224833735Y-44310753D01*
X224813752Y-44268503D01*
X224798007Y-44224498D01*
X224786651Y-44179162D01*
X224779793Y-44132931D01*
X224777500Y-44086250D01*
X224777500Y-42498750D01*
X224779793Y-42452069D01*
X224786651Y-42405838D01*
X224798007Y-42360502D01*
X224813752Y-42316497D01*
X224833735Y-42274247D01*
X224857763Y-42234160D01*
X224885604Y-42196620D01*
X224916990Y-42161990D01*
X224951620Y-42130604D01*
X224989160Y-42102763D01*
X225029247Y-42078735D01*
X225071497Y-42058752D01*
X225115502Y-42043007D01*
X225160838Y-42031651D01*
X225207069Y-42024793D01*
X225253750Y-42022500D01*
X226206250Y-42022500D01*
X226252931Y-42024793D01*
X226252931Y-42024793D01*
G37*
D11*
G04 #@! TD*
G04 #@! TO.P,U2,4*
G04 #@! TO.N,Net-(J6-Pad1)*
X225730000Y-43292500D03*
D10*
G04 #@! TO.N,Net-(J5-Pad1)*
G04 #@! TO.C,U2*
G36*
X228792931Y-42024793D02*
X228839162Y-42031651D01*
X228884498Y-42043007D01*
X228928503Y-42058752D01*
X228970753Y-42078735D01*
X229010840Y-42102763D01*
X229048380Y-42130604D01*
X229083010Y-42161990D01*
X229114396Y-42196620D01*
X229142237Y-42234160D01*
X229166265Y-42274247D01*
X229186248Y-42316497D01*
X229201993Y-42360502D01*
X229213349Y-42405838D01*
X229220207Y-42452069D01*
X229222500Y-42498750D01*
X229222500Y-44086250D01*
X229220207Y-44132931D01*
X229213349Y-44179162D01*
X229201993Y-44224498D01*
X229186248Y-44268503D01*
X229166265Y-44310753D01*
X229142237Y-44350840D01*
X229114396Y-44388380D01*
X229083010Y-44423010D01*
X229048380Y-44454396D01*
X229010840Y-44482237D01*
X228970753Y-44506265D01*
X228928503Y-44526248D01*
X228884498Y-44541993D01*
X228839162Y-44553349D01*
X228792931Y-44560207D01*
X228746250Y-44562500D01*
X227793750Y-44562500D01*
X227747069Y-44560207D01*
X227700838Y-44553349D01*
X227655502Y-44541993D01*
X227611497Y-44526248D01*
X227569247Y-44506265D01*
X227529160Y-44482237D01*
X227491620Y-44454396D01*
X227456990Y-44423010D01*
X227425604Y-44388380D01*
X227397763Y-44350840D01*
X227373735Y-44310753D01*
X227353752Y-44268503D01*
X227338007Y-44224498D01*
X227326651Y-44179162D01*
X227319793Y-44132931D01*
X227317500Y-44086250D01*
X227317500Y-42498750D01*
X227319793Y-42452069D01*
X227326651Y-42405838D01*
X227338007Y-42360502D01*
X227353752Y-42316497D01*
X227373735Y-42274247D01*
X227397763Y-42234160D01*
X227425604Y-42196620D01*
X227456990Y-42161990D01*
X227491620Y-42130604D01*
X227529160Y-42102763D01*
X227569247Y-42078735D01*
X227611497Y-42058752D01*
X227655502Y-42043007D01*
X227700838Y-42031651D01*
X227747069Y-42024793D01*
X227793750Y-42022500D01*
X228746250Y-42022500D01*
X228792931Y-42024793D01*
X228792931Y-42024793D01*
G37*
D11*
G04 #@! TD*
G04 #@! TO.P,U2,3*
G04 #@! TO.N,Net-(J5-Pad1)*
X228270000Y-43292500D03*
D10*
G04 #@! TO.N,MPR121_IRQ*
G04 #@! TO.C,U2*
G36*
X231332931Y-42024793D02*
X231379162Y-42031651D01*
X231424498Y-42043007D01*
X231468503Y-42058752D01*
X231510753Y-42078735D01*
X231550840Y-42102763D01*
X231588380Y-42130604D01*
X231623010Y-42161990D01*
X231654396Y-42196620D01*
X231682237Y-42234160D01*
X231706265Y-42274247D01*
X231726248Y-42316497D01*
X231741993Y-42360502D01*
X231753349Y-42405838D01*
X231760207Y-42452069D01*
X231762500Y-42498750D01*
X231762500Y-44086250D01*
X231760207Y-44132931D01*
X231753349Y-44179162D01*
X231741993Y-44224498D01*
X231726248Y-44268503D01*
X231706265Y-44310753D01*
X231682237Y-44350840D01*
X231654396Y-44388380D01*
X231623010Y-44423010D01*
X231588380Y-44454396D01*
X231550840Y-44482237D01*
X231510753Y-44506265D01*
X231468503Y-44526248D01*
X231424498Y-44541993D01*
X231379162Y-44553349D01*
X231332931Y-44560207D01*
X231286250Y-44562500D01*
X230333750Y-44562500D01*
X230287069Y-44560207D01*
X230240838Y-44553349D01*
X230195502Y-44541993D01*
X230151497Y-44526248D01*
X230109247Y-44506265D01*
X230069160Y-44482237D01*
X230031620Y-44454396D01*
X229996990Y-44423010D01*
X229965604Y-44388380D01*
X229937763Y-44350840D01*
X229913735Y-44310753D01*
X229893752Y-44268503D01*
X229878007Y-44224498D01*
X229866651Y-44179162D01*
X229859793Y-44132931D01*
X229857500Y-44086250D01*
X229857500Y-42498750D01*
X229859793Y-42452069D01*
X229866651Y-42405838D01*
X229878007Y-42360502D01*
X229893752Y-42316497D01*
X229913735Y-42274247D01*
X229937763Y-42234160D01*
X229965604Y-42196620D01*
X229996990Y-42161990D01*
X230031620Y-42130604D01*
X230069160Y-42102763D01*
X230109247Y-42078735D01*
X230151497Y-42058752D01*
X230195502Y-42043007D01*
X230240838Y-42031651D01*
X230287069Y-42024793D01*
X230333750Y-42022500D01*
X231286250Y-42022500D01*
X231332931Y-42024793D01*
X231332931Y-42024793D01*
G37*
D11*
G04 #@! TD*
G04 #@! TO.P,U2,2*
G04 #@! TO.N,MPR121_IRQ*
X230810000Y-43292500D03*
D10*
G04 #@! TO.N,+3V3*
G04 #@! TO.C,U2*
G36*
X233872931Y-42024793D02*
X233919162Y-42031651D01*
X233964498Y-42043007D01*
X234008503Y-42058752D01*
X234050753Y-42078735D01*
X234090840Y-42102763D01*
X234128380Y-42130604D01*
X234163010Y-42161990D01*
X234194396Y-42196620D01*
X234222237Y-42234160D01*
X234246265Y-42274247D01*
X234266248Y-42316497D01*
X234281993Y-42360502D01*
X234293349Y-42405838D01*
X234300207Y-42452069D01*
X234302500Y-42498750D01*
X234302500Y-44086250D01*
X234300207Y-44132931D01*
X234293349Y-44179162D01*
X234281993Y-44224498D01*
X234266248Y-44268503D01*
X234246265Y-44310753D01*
X234222237Y-44350840D01*
X234194396Y-44388380D01*
X234163010Y-44423010D01*
X234128380Y-44454396D01*
X234090840Y-44482237D01*
X234050753Y-44506265D01*
X234008503Y-44526248D01*
X233964498Y-44541993D01*
X233919162Y-44553349D01*
X233872931Y-44560207D01*
X233826250Y-44562500D01*
X232873750Y-44562500D01*
X232827069Y-44560207D01*
X232780838Y-44553349D01*
X232735502Y-44541993D01*
X232691497Y-44526248D01*
X232649247Y-44506265D01*
X232609160Y-44482237D01*
X232571620Y-44454396D01*
X232536990Y-44423010D01*
X232505604Y-44388380D01*
X232477763Y-44350840D01*
X232453735Y-44310753D01*
X232433752Y-44268503D01*
X232418007Y-44224498D01*
X232406651Y-44179162D01*
X232399793Y-44132931D01*
X232397500Y-44086250D01*
X232397500Y-42498750D01*
X232399793Y-42452069D01*
X232406651Y-42405838D01*
X232418007Y-42360502D01*
X232433752Y-42316497D01*
X232453735Y-42274247D01*
X232477763Y-42234160D01*
X232505604Y-42196620D01*
X232536990Y-42161990D01*
X232571620Y-42130604D01*
X232609160Y-42102763D01*
X232649247Y-42078735D01*
X232691497Y-42058752D01*
X232735502Y-42043007D01*
X232780838Y-42031651D01*
X232827069Y-42024793D01*
X232873750Y-42022500D01*
X233826250Y-42022500D01*
X233872931Y-42024793D01*
X233872931Y-42024793D01*
G37*
D11*
G04 #@! TD*
G04 #@! TO.P,U2,1*
G04 #@! TO.N,+3V3*
X233350000Y-43292500D03*
D12*
G04 #@! TO.P,X1,11D*
G04 #@! TO.N,Net-(SW1-Pad1)*
X250550000Y-28880000D03*
G04 #@! TO.P,X1,6D*
G04 #@! TO.N,MPR121_IRQ*
X263250000Y-28880000D03*
G04 #@! TO.P,X1,5D*
G04 #@! TO.N,CC1101_GDO0*
X265790000Y-28880000D03*
G04 #@! TO.P,X1,7D*
G04 #@! TO.N,Net-(R1-Pad1)*
X260710000Y-28880000D03*
G04 #@! TO.P,X1,8D*
G04 #@! TO.N,Net-(R2-Pad1)*
X258170000Y-28880000D03*
G04 #@! TO.P,X1,4D*
G04 #@! TO.N,GND*
X268330000Y-28880000D03*
G04 #@! TO.P,X1,2A*
X273410000Y-44120000D03*
G04 #@! TO.P,X1,4A*
G04 #@! TO.N,+3V3*
X268330000Y-44120000D03*
G04 #@! TO.P,X1,10A*
G04 #@! TO.N,MISO*
X253090000Y-44120000D03*
G04 #@! TO.P,X1,9A*
G04 #@! TO.N,SCK*
X255630000Y-44120000D03*
G04 #@! TO.P,X1,11A*
G04 #@! TO.N,MOSI*
X250550000Y-44120000D03*
D13*
G04 #@! TO.P,X1,1B*
G04 #@! TO.N,GND*
X248010000Y-36500000D03*
D12*
G04 #@! TO.P,X1,12A*
G04 #@! TO.N,CC1101_CS*
X248010000Y-44120000D03*
G04 #@! TD*
D14*
G04 #@! TO.P,U1,7*
G04 #@! TO.N,CC1101_GDO0*
X260400000Y-62500000D03*
G04 #@! TO.P,U1,6*
G04 #@! TO.N,Net-(U1-Pad6)*
X260400000Y-60500000D03*
G04 #@! TO.P,U1,5*
G04 #@! TO.N,MISO*
X260400000Y-58500000D03*
G04 #@! TO.P,U1,4*
G04 #@! TO.N,SCK*
X260400000Y-56500000D03*
G04 #@! TO.P,U1,3*
G04 #@! TO.N,MOSI*
X260400000Y-54500000D03*
G04 #@! TO.P,U1,2*
G04 #@! TO.N,GND*
X260400000Y-52500000D03*
G04 #@! TO.P,U1,1*
G04 #@! TO.N,+3V3*
X260400000Y-50500000D03*
D15*
G04 #@! TO.P,U1,7*
G04 #@! TO.N,CC1101_GDO0*
X261400000Y-62500000D03*
G04 #@! TO.P,U1,6*
G04 #@! TO.N,Net-(U1-Pad6)*
X261400000Y-60500000D03*
G04 #@! TO.P,U1,5*
G04 #@! TO.N,MISO*
X261400000Y-58500000D03*
G04 #@! TO.P,U1,4*
G04 #@! TO.N,SCK*
X261400000Y-56500000D03*
G04 #@! TO.P,U1,3*
G04 #@! TO.N,MOSI*
X261400000Y-54500000D03*
G04 #@! TO.P,U1,2*
G04 #@! TO.N,GND*
X261400000Y-52500000D03*
G04 #@! TO.P,U1,1*
G04 #@! TO.N,+3V3*
X261400000Y-50500000D03*
D14*
G04 #@! TO.P,U1,8*
G04 #@! TO.N,CC1101_CS*
X260400000Y-64500000D03*
D15*
X261400000Y-64500000D03*
G04 #@! TD*
D16*
G04 #@! TO.P,SW1,2*
G04 #@! TO.N,GND*
X253980000Y-20250000D03*
G04 #@! TO.P,SW1,1*
G04 #@! TO.N,Net-(SW1-Pad1)*
X253980000Y-24750000D03*
X246020000Y-24750000D03*
G04 #@! TO.P,SW1,2*
G04 #@! TO.N,GND*
X246020000Y-20250000D03*
G04 #@! TD*
D17*
G04 #@! TO.P,R2,1*
G04 #@! TO.N,Net-(R2-Pad1)*
X258000000Y-21750000D03*
D18*
G04 #@! TO.P,R2,2*
G04 #@! TO.N,Net-(D1-Pad3)*
X268160000Y-21750000D03*
G04 #@! TD*
D17*
G04 #@! TO.P,R1,1*
G04 #@! TO.N,Net-(R1-Pad1)*
X260750000Y-25250000D03*
D18*
G04 #@! TO.P,R1,2*
G04 #@! TO.N,Net-(D1-Pad1)*
X270910000Y-25250000D03*
G04 #@! TD*
D19*
G04 #@! TO.P,J6,1*
G04 #@! TO.N,Net-(J6-Pad1)*
X225750000Y-38900000D03*
G04 #@! TD*
G04 #@! TO.P,J5,1*
G04 #@! TO.N,Net-(J5-Pad1)*
X228250000Y-38900000D03*
G04 #@! TD*
D10*
G04 #@! TO.N,Net-(J4-Pad1)*
G04 #@! TO.C,J4*
G36*
X207610527Y-18113290D02*
X207878449Y-18153033D01*
X208141186Y-18218845D01*
X208396206Y-18310092D01*
X208641055Y-18425897D01*
X208873374Y-18565144D01*
X209090925Y-18726491D01*
X209291615Y-18908385D01*
X209473509Y-19109075D01*
X209634856Y-19326626D01*
X209774103Y-19558945D01*
X209889908Y-19803794D01*
X209981155Y-20058814D01*
X210046967Y-20321551D01*
X210086710Y-20589473D01*
X210100000Y-20860000D01*
X210100000Y-61340000D01*
X210086710Y-61610527D01*
X210046967Y-61878449D01*
X209981155Y-62141186D01*
X209889908Y-62396206D01*
X209774103Y-62641055D01*
X209634856Y-62873374D01*
X209473509Y-63090925D01*
X209291615Y-63291615D01*
X209090925Y-63473509D01*
X208873374Y-63634856D01*
X208641055Y-63774103D01*
X208396206Y-63889908D01*
X208141186Y-63981155D01*
X207878449Y-64046967D01*
X207610527Y-64086710D01*
X207340000Y-64100000D01*
X166860000Y-64100000D01*
X166589473Y-64086710D01*
X166321551Y-64046967D01*
X166058814Y-63981155D01*
X165803794Y-63889908D01*
X165558945Y-63774103D01*
X165326626Y-63634856D01*
X165109075Y-63473509D01*
X164908385Y-63291615D01*
X164726491Y-63090925D01*
X164565144Y-62873374D01*
X164425897Y-62641055D01*
X164310092Y-62396206D01*
X164218845Y-62141186D01*
X164153033Y-61878449D01*
X164113290Y-61610527D01*
X164100000Y-61340000D01*
X164100000Y-20860000D01*
X164113290Y-20589473D01*
X164153033Y-20321551D01*
X164218845Y-20058814D01*
X164310092Y-19803794D01*
X164425897Y-19558945D01*
X164565144Y-19326626D01*
X164726491Y-19109075D01*
X164908385Y-18908385D01*
X165109075Y-18726491D01*
X165326626Y-18565144D01*
X165558945Y-18425897D01*
X165803794Y-18310092D01*
X166058814Y-18218845D01*
X166321551Y-18153033D01*
X166589473Y-18113290D01*
X166860000Y-18100000D01*
X207340000Y-18100000D01*
X207610527Y-18113290D01*
X207610527Y-18113290D01*
G37*
D20*
X187100000Y-41100000D03*
G04 #@! TD*
D10*
G04 #@! TO.N,Net-(J3-Pad1)*
G04 #@! TO.C,J3*
G36*
X160610527Y-18113290D02*
X160878449Y-18153033D01*
X161141186Y-18218845D01*
X161396206Y-18310092D01*
X161641055Y-18425897D01*
X161873374Y-18565144D01*
X162090925Y-18726491D01*
X162291615Y-18908385D01*
X162473509Y-19109075D01*
X162634856Y-19326626D01*
X162774103Y-19558945D01*
X162889908Y-19803794D01*
X162981155Y-20058814D01*
X163046967Y-20321551D01*
X163086710Y-20589473D01*
X163100000Y-20860000D01*
X163100000Y-61340000D01*
X163086710Y-61610527D01*
X163046967Y-61878449D01*
X162981155Y-62141186D01*
X162889908Y-62396206D01*
X162774103Y-62641055D01*
X162634856Y-62873374D01*
X162473509Y-63090925D01*
X162291615Y-63291615D01*
X162090925Y-63473509D01*
X161873374Y-63634856D01*
X161641055Y-63774103D01*
X161396206Y-63889908D01*
X161141186Y-63981155D01*
X160878449Y-64046967D01*
X160610527Y-64086710D01*
X160340000Y-64100000D01*
X119860000Y-64100000D01*
X119589473Y-64086710D01*
X119321551Y-64046967D01*
X119058814Y-63981155D01*
X118803794Y-63889908D01*
X118558945Y-63774103D01*
X118326626Y-63634856D01*
X118109075Y-63473509D01*
X117908385Y-63291615D01*
X117726491Y-63090925D01*
X117565144Y-62873374D01*
X117425897Y-62641055D01*
X117310092Y-62396206D01*
X117218845Y-62141186D01*
X117153033Y-61878449D01*
X117113290Y-61610527D01*
X117100000Y-61340000D01*
X117100000Y-20860000D01*
X117113290Y-20589473D01*
X117153033Y-20321551D01*
X117218845Y-20058814D01*
X117310092Y-19803794D01*
X117425897Y-19558945D01*
X117565144Y-19326626D01*
X117726491Y-19109075D01*
X117908385Y-18908385D01*
X118109075Y-18726491D01*
X118326626Y-18565144D01*
X118558945Y-18425897D01*
X118803794Y-18310092D01*
X119058814Y-18218845D01*
X119321551Y-18153033D01*
X119589473Y-18113290D01*
X119860000Y-18100000D01*
X160340000Y-18100000D01*
X160610527Y-18113290D01*
X160610527Y-18113290D01*
G37*
D20*
X140100000Y-41100000D03*
G04 #@! TD*
D10*
G04 #@! TO.N,Net-(J2-Pad1)*
G04 #@! TO.C,J2*
G36*
X113610527Y-18113290D02*
X113878449Y-18153033D01*
X114141186Y-18218845D01*
X114396206Y-18310092D01*
X114641055Y-18425897D01*
X114873374Y-18565144D01*
X115090925Y-18726491D01*
X115291615Y-18908385D01*
X115473509Y-19109075D01*
X115634856Y-19326626D01*
X115774103Y-19558945D01*
X115889908Y-19803794D01*
X115981155Y-20058814D01*
X116046967Y-20321551D01*
X116086710Y-20589473D01*
X116100000Y-20860000D01*
X116100000Y-61340000D01*
X116086710Y-61610527D01*
X116046967Y-61878449D01*
X115981155Y-62141186D01*
X115889908Y-62396206D01*
X115774103Y-62641055D01*
X115634856Y-62873374D01*
X115473509Y-63090925D01*
X115291615Y-63291615D01*
X115090925Y-63473509D01*
X114873374Y-63634856D01*
X114641055Y-63774103D01*
X114396206Y-63889908D01*
X114141186Y-63981155D01*
X113878449Y-64046967D01*
X113610527Y-64086710D01*
X113340000Y-64100000D01*
X72860000Y-64100000D01*
X72589473Y-64086710D01*
X72321551Y-64046967D01*
X72058814Y-63981155D01*
X71803794Y-63889908D01*
X71558945Y-63774103D01*
X71326626Y-63634856D01*
X71109075Y-63473509D01*
X70908385Y-63291615D01*
X70726491Y-63090925D01*
X70565144Y-62873374D01*
X70425897Y-62641055D01*
X70310092Y-62396206D01*
X70218845Y-62141186D01*
X70153033Y-61878449D01*
X70113290Y-61610527D01*
X70100000Y-61340000D01*
X70100000Y-20860000D01*
X70113290Y-20589473D01*
X70153033Y-20321551D01*
X70218845Y-20058814D01*
X70310092Y-19803794D01*
X70425897Y-19558945D01*
X70565144Y-19326626D01*
X70726491Y-19109075D01*
X70908385Y-18908385D01*
X71109075Y-18726491D01*
X71326626Y-18565144D01*
X71558945Y-18425897D01*
X71803794Y-18310092D01*
X72058814Y-18218845D01*
X72321551Y-18153033D01*
X72589473Y-18113290D01*
X72860000Y-18100000D01*
X113340000Y-18100000D01*
X113610527Y-18113290D01*
X113610527Y-18113290D01*
G37*
D20*
X93100000Y-41100000D03*
G04 #@! TD*
D10*
G04 #@! TO.N,Net-(J1-Pad1)*
G04 #@! TO.C,J1*
G36*
X66610527Y-18113290D02*
X66878449Y-18153033D01*
X67141186Y-18218845D01*
X67396206Y-18310092D01*
X67641055Y-18425897D01*
X67873374Y-18565144D01*
X68090925Y-18726491D01*
X68291615Y-18908385D01*
X68473509Y-19109075D01*
X68634856Y-19326626D01*
X68774103Y-19558945D01*
X68889908Y-19803794D01*
X68981155Y-20058814D01*
X69046967Y-20321551D01*
X69086710Y-20589473D01*
X69100000Y-20860000D01*
X69100000Y-61340000D01*
X69086710Y-61610527D01*
X69046967Y-61878449D01*
X68981155Y-62141186D01*
X68889908Y-62396206D01*
X68774103Y-62641055D01*
X68634856Y-62873374D01*
X68473509Y-63090925D01*
X68291615Y-63291615D01*
X68090925Y-63473509D01*
X67873374Y-63634856D01*
X67641055Y-63774103D01*
X67396206Y-63889908D01*
X67141186Y-63981155D01*
X66878449Y-64046967D01*
X66610527Y-64086710D01*
X66340000Y-64100000D01*
X25860000Y-64100000D01*
X25589473Y-64086710D01*
X25321551Y-64046967D01*
X25058814Y-63981155D01*
X24803794Y-63889908D01*
X24558945Y-63774103D01*
X24326626Y-63634856D01*
X24109075Y-63473509D01*
X23908385Y-63291615D01*
X23726491Y-63090925D01*
X23565144Y-62873374D01*
X23425897Y-62641055D01*
X23310092Y-62396206D01*
X23218845Y-62141186D01*
X23153033Y-61878449D01*
X23113290Y-61610527D01*
X23100000Y-61340000D01*
X23100000Y-20860000D01*
X23113290Y-20589473D01*
X23153033Y-20321551D01*
X23218845Y-20058814D01*
X23310092Y-19803794D01*
X23425897Y-19558945D01*
X23565144Y-19326626D01*
X23726491Y-19109075D01*
X23908385Y-18908385D01*
X24109075Y-18726491D01*
X24326626Y-18565144D01*
X24558945Y-18425897D01*
X24803794Y-18310092D01*
X25058814Y-18218845D01*
X25321551Y-18153033D01*
X25589473Y-18113290D01*
X25860000Y-18100000D01*
X66340000Y-18100000D01*
X66610527Y-18113290D01*
X66610527Y-18113290D01*
G37*
D20*
X46100000Y-41100000D03*
G04 #@! TD*
D21*
G04 #@! TO.P,D1,1*
G04 #@! TO.N,Net-(D1-Pad1)*
X277600000Y-24700000D03*
D22*
G04 #@! TO.P,D1,2*
G04 #@! TO.N,GND*
X277600000Y-22160000D03*
G04 #@! TO.P,D1,3*
G04 #@! TO.N,Net-(D1-Pad3)*
X277600000Y-19620000D03*
G04 #@! TD*
D23*
G04 #@! TO.N,Net-(D1-Pad3)*
X269360000Y-21750000D02*
X268160000Y-21750000D01*
X271440000Y-19670000D02*
X269360000Y-21750000D01*
X277600000Y-19670000D02*
X271440000Y-19670000D01*
G04 #@! TO.N,GND*
X268200000Y-52500000D02*
X273400000Y-47300000D01*
X273400000Y-47300000D02*
X273400000Y-44100000D01*
X220650000Y-43610000D02*
X220650000Y-29650000D01*
X220650000Y-29650000D02*
X230000000Y-20300000D01*
X230000000Y-20300000D02*
X246000000Y-20300000D01*
X246000000Y-20300000D02*
X254000000Y-20300000D01*
X268330000Y-28880000D02*
X268330000Y-25154000D01*
X258634000Y-20250000D02*
X253980000Y-20250000D01*
X268330000Y-25154000D02*
X258634000Y-20250000D01*
X271274000Y-22210000D02*
X268330000Y-25154000D01*
X277700000Y-22200000D02*
X271274000Y-22210000D01*
X260400000Y-52500000D02*
X268200000Y-52500000D01*
G04 #@! TO.N,Net-(D1-Pad1)*
X272110000Y-25250000D02*
X270910000Y-25250000D01*
X272610000Y-24750000D02*
X272110000Y-25250000D01*
X277600000Y-24750000D02*
X272610000Y-24750000D01*
D24*
G04 #@! TO.N,Net-(J1-Pad1)*
X220650000Y-61706800D02*
X220650000Y-61390000D01*
D23*
X72007110Y-66600000D02*
X218292890Y-66600000D01*
X220600000Y-64700000D02*
X220600000Y-61700000D01*
X218300000Y-66600000D02*
X220600000Y-64700000D01*
X46100000Y-41100000D02*
X72000000Y-66600000D01*
D24*
G04 #@! TO.N,Net-(J2-Pad1)*
X218110000Y-61691700D02*
X218110000Y-61390000D01*
D23*
X218110000Y-61390000D02*
X218110000Y-64590000D01*
X93100000Y-41100000D02*
X117800000Y-65800000D01*
X216900000Y-65800000D02*
X218110000Y-64590000D01*
X117800000Y-65800000D02*
X216900000Y-65800000D01*
D24*
G04 #@! TO.N,Net-(J3-Pad1)*
X215570000Y-61687200D02*
X215570000Y-61390000D01*
D23*
X140100000Y-41100000D02*
X164200000Y-65000000D01*
X215600000Y-63900000D02*
X215600000Y-61800000D01*
X214500000Y-65000000D02*
X215600000Y-63900000D01*
X164200000Y-65000000D02*
X214500000Y-65000000D01*
D24*
G04 #@! TO.N,Net-(J4-Pad1)*
X187100000Y-41100000D02*
X192740000Y-41100000D01*
D23*
X187100000Y-41100000D02*
X188000000Y-41100000D01*
X213030000Y-61390000D02*
X213030000Y-63570000D01*
X212900000Y-63700000D02*
X210600000Y-63700000D01*
X213030000Y-63570000D02*
X212900000Y-63700000D01*
X188000000Y-41100000D02*
X210600000Y-63700000D01*
D25*
G04 #@! TO.N,Net-(J5-Pad1)*
X228250000Y-38900000D02*
X228250000Y-43450000D01*
G04 #@! TO.N,Net-(J6-Pad1)*
X225750000Y-38900000D02*
X225750000Y-43450000D01*
D24*
G04 #@! TO.N,Net-(R1-Pad1)*
X260750000Y-25250000D02*
X260710000Y-25290000D01*
D23*
X260750000Y-25250000D02*
X260750000Y-28850000D01*
D24*
G04 #@! TO.N,Net-(R2-Pad1)*
X258000000Y-28710000D02*
X258170000Y-28880000D01*
D23*
X258000000Y-21750000D02*
X258000000Y-28900000D01*
G04 #@! TO.N,Net-(SW1-Pad1)*
X250560000Y-27648686D02*
X250560000Y-24750000D01*
X250550000Y-27658686D02*
X250560000Y-27648686D01*
X250550000Y-28880000D02*
X250550000Y-27658686D01*
X250560000Y-24750000D02*
X253850000Y-24750000D01*
X246020000Y-24750000D02*
X250560000Y-24750000D01*
G04 #@! TO.N,CC1101_CS*
X248010000Y-44120000D02*
X248010000Y-51110000D01*
X248010000Y-51110000D02*
X248010000Y-57610000D01*
X248010000Y-57610000D02*
X254900000Y-64500000D01*
X254900000Y-64500000D02*
X260500000Y-64500000D01*
G04 #@! TO.N,+3V3*
X233400000Y-39900000D02*
X266100000Y-39900000D01*
X266100000Y-39900000D02*
X268400000Y-42200000D01*
X268400000Y-42200000D02*
X268400000Y-44000000D01*
X268400000Y-47000000D02*
X268400000Y-44300000D01*
X260400000Y-50500000D02*
X265800000Y-50500000D01*
X268400000Y-47900000D02*
X268400000Y-47000000D01*
X265800000Y-50500000D02*
X268400000Y-47900000D01*
X233350000Y-39950000D02*
X233400000Y-39900000D01*
X233350000Y-43610000D02*
X233350000Y-39950000D01*
G04 #@! TO.N,MOSI*
X250550000Y-42250000D02*
X250550000Y-44120000D01*
X259000000Y-54500000D02*
X258400000Y-53900000D01*
X256000000Y-41800000D02*
X251000000Y-41800000D01*
X251000000Y-41800000D02*
X250550000Y-42250000D01*
X258400000Y-44200000D02*
X256000000Y-41800000D01*
X258400000Y-53900000D02*
X258400000Y-44200000D01*
X260400000Y-54500000D02*
X259000000Y-54500000D01*
G04 #@! TO.N,SCK*
X255600000Y-51600000D02*
X255600000Y-44200000D01*
X259000000Y-56500000D02*
X255600000Y-53100000D01*
X255600000Y-53100000D02*
X255600000Y-51600000D01*
X260400000Y-56500000D02*
X259000000Y-56500000D01*
G04 #@! TO.N,MISO*
X253090000Y-44120000D02*
X253090000Y-50890000D01*
X253090000Y-52590000D02*
X253090000Y-50890000D01*
X259000000Y-58500000D02*
X253090000Y-52590000D01*
X260400000Y-58500000D02*
X259000000Y-58500000D01*
G04 #@! TO.N,CC1101_GDO0*
X275400000Y-51400000D02*
X275400000Y-41000000D01*
X264300000Y-62500000D02*
X275400000Y-51400000D01*
X265800000Y-31400000D02*
X265800000Y-28900000D01*
X275400000Y-41000000D02*
X265800000Y-31400000D01*
X260400000Y-62500000D02*
X264300000Y-62500000D01*
D24*
G04 #@! TO.N,MPR121_IRQ*
X230810000Y-43248300D02*
X230810000Y-43610000D01*
D23*
X230810000Y-43252568D02*
X230800000Y-43242568D01*
X230810000Y-43610000D02*
X230810000Y-43252568D01*
X230800000Y-43242568D02*
X230800000Y-36000000D01*
X230800000Y-36000000D02*
X234400000Y-32400000D01*
X234400000Y-32400000D02*
X262200000Y-32400000D01*
X262200000Y-32400000D02*
X263200000Y-31400000D01*
X263200000Y-31400000D02*
X263200000Y-29200000D01*
X263200000Y-29200000D02*
X263300000Y-29100000D01*
G04 #@! TD*
M02*
