G04 #@! TF.GenerationSoftware,KiCad,Pcbnew,(5.0.0-3-g5ebb6b6)*
G04 #@! TF.CreationDate,2021-01-19T19:10:24+01:00*
G04 #@! TF.ProjectId,HB-RC-4-TOUCH,48422D52432D342D544F5543482E6B69,rev?*
G04 #@! TF.SameCoordinates,Original*
G04 #@! TF.FileFunction,Soldermask,Top*
G04 #@! TF.FilePolarity,Negative*
%FSLAX46Y46*%
G04 Gerber Fmt 4.6, Leading zero omitted, Abs format (unit mm)*
G04 Created by KiCad (PCBNEW (5.0.0-3-g5ebb6b6)) date 2021 January 19, Tuesday 19:10:24*
%MOMM*%
%LPD*%
G01*
G04 APERTURE LIST*
%ADD10C,0.100000*%
G04 APERTURE END LIST*
D10*
G36*
X264211767Y-68301899D02*
X264343891Y-68356627D01*
X264462799Y-68436079D01*
X264563921Y-68537201D01*
X264643373Y-68656109D01*
X264698101Y-68788233D01*
X264726000Y-68928494D01*
X264726000Y-69071506D01*
X264698101Y-69211767D01*
X264643373Y-69343891D01*
X264563921Y-69462799D01*
X264462799Y-69563921D01*
X264343891Y-69643373D01*
X264211767Y-69698101D01*
X264071506Y-69726000D01*
X262049000Y-69726000D01*
X262049000Y-68274000D01*
X264071506Y-68274000D01*
X264211767Y-68301899D01*
X264211767Y-68301899D01*
G37*
G36*
X264211767Y-66301899D02*
X264343891Y-66356627D01*
X264462799Y-66436079D01*
X264563921Y-66537201D01*
X264643373Y-66656109D01*
X264698101Y-66788233D01*
X264726000Y-66928494D01*
X264726000Y-67071506D01*
X264698101Y-67211767D01*
X264643373Y-67343891D01*
X264563921Y-67462799D01*
X264462799Y-67563921D01*
X264343891Y-67643373D01*
X264211767Y-67698101D01*
X264071506Y-67726000D01*
X262049000Y-67726000D01*
X262049000Y-66274000D01*
X264071506Y-66274000D01*
X264211767Y-66301899D01*
X264211767Y-66301899D01*
G37*
G36*
X264211767Y-64301899D02*
X264343891Y-64356627D01*
X264462799Y-64436079D01*
X264563921Y-64537201D01*
X264643373Y-64656109D01*
X264698101Y-64788233D01*
X264726000Y-64928494D01*
X264726000Y-65071506D01*
X264698101Y-65211767D01*
X264643373Y-65343891D01*
X264563921Y-65462799D01*
X264462799Y-65563921D01*
X264343891Y-65643373D01*
X264211767Y-65698101D01*
X264071506Y-65726000D01*
X262049000Y-65726000D01*
X262049000Y-64274000D01*
X264071506Y-64274000D01*
X264211767Y-64301899D01*
X264211767Y-64301899D01*
G37*
G36*
X264211767Y-62301899D02*
X264343891Y-62356627D01*
X264462799Y-62436079D01*
X264563921Y-62537201D01*
X264643373Y-62656109D01*
X264698101Y-62788233D01*
X264726000Y-62928494D01*
X264726000Y-63071506D01*
X264698101Y-63211767D01*
X264643373Y-63343891D01*
X264563921Y-63462799D01*
X264462799Y-63563921D01*
X264343891Y-63643373D01*
X264211767Y-63698101D01*
X264071506Y-63726000D01*
X262049000Y-63726000D01*
X262049000Y-62274000D01*
X264071506Y-62274000D01*
X264211767Y-62301899D01*
X264211767Y-62301899D01*
G37*
G36*
X264211767Y-60301899D02*
X264343891Y-60356627D01*
X264462799Y-60436079D01*
X264563921Y-60537201D01*
X264643373Y-60656109D01*
X264698101Y-60788233D01*
X264726000Y-60928494D01*
X264726000Y-61071506D01*
X264698101Y-61211767D01*
X264643373Y-61343891D01*
X264563921Y-61462799D01*
X264462799Y-61563921D01*
X264343891Y-61643373D01*
X264211767Y-61698101D01*
X264071506Y-61726000D01*
X262049000Y-61726000D01*
X262049000Y-60274000D01*
X264071506Y-60274000D01*
X264211767Y-60301899D01*
X264211767Y-60301899D01*
G37*
G36*
X264211767Y-58301899D02*
X264343891Y-58356627D01*
X264462799Y-58436079D01*
X264563921Y-58537201D01*
X264643373Y-58656109D01*
X264698101Y-58788233D01*
X264726000Y-58928494D01*
X264726000Y-59071506D01*
X264698101Y-59211767D01*
X264643373Y-59343891D01*
X264563921Y-59462799D01*
X264462799Y-59563921D01*
X264343891Y-59643373D01*
X264211767Y-59698101D01*
X264071506Y-59726000D01*
X262049000Y-59726000D01*
X262049000Y-58274000D01*
X264071506Y-58274000D01*
X264211767Y-58301899D01*
X264211767Y-58301899D01*
G37*
G36*
X264211767Y-56301899D02*
X264343891Y-56356627D01*
X264462799Y-56436079D01*
X264563921Y-56537201D01*
X264643373Y-56656109D01*
X264698101Y-56788233D01*
X264726000Y-56928494D01*
X264726000Y-57071506D01*
X264698101Y-57211767D01*
X264643373Y-57343891D01*
X264563921Y-57462799D01*
X264462799Y-57563921D01*
X264343891Y-57643373D01*
X264211767Y-57698101D01*
X264071506Y-57726000D01*
X262049000Y-57726000D01*
X262049000Y-56274000D01*
X264071506Y-56274000D01*
X264211767Y-56301899D01*
X264211767Y-56301899D01*
G37*
G36*
X264211767Y-54301899D02*
X264343891Y-54356627D01*
X264462799Y-54436079D01*
X264563921Y-54537201D01*
X264643373Y-54656109D01*
X264698101Y-54788233D01*
X264726000Y-54928494D01*
X264726000Y-55071506D01*
X264698101Y-55211767D01*
X264643373Y-55343891D01*
X264563921Y-55462799D01*
X264462799Y-55563921D01*
X264343891Y-55643373D01*
X264211767Y-55698101D01*
X264071506Y-55726000D01*
X262049000Y-55726000D01*
X262049000Y-54274000D01*
X264071506Y-54274000D01*
X264211767Y-54301899D01*
X264211767Y-54301899D01*
G37*
G36*
X226551000Y-48301000D02*
X224949000Y-48301000D01*
X224949000Y-46699000D01*
X226551000Y-46699000D01*
X226551000Y-48301000D01*
X226551000Y-48301000D01*
G37*
G36*
X229051000Y-48301000D02*
X227449000Y-48301000D01*
X227449000Y-46699000D01*
X229051000Y-46699000D01*
X229051000Y-48301000D01*
X229051000Y-48301000D01*
G37*
G36*
X233999822Y-42895533D02*
X234082117Y-42920497D01*
X234157946Y-42961028D01*
X234224419Y-43015581D01*
X234278972Y-43082054D01*
X234319503Y-43157883D01*
X234344467Y-43240178D01*
X234353500Y-43331890D01*
X234353500Y-45083110D01*
X234344467Y-45174822D01*
X234319503Y-45257117D01*
X234278972Y-45332946D01*
X234224419Y-45399419D01*
X234157946Y-45453972D01*
X234082117Y-45494503D01*
X233999822Y-45519467D01*
X233908110Y-45528500D01*
X232791890Y-45528500D01*
X232700178Y-45519467D01*
X232617883Y-45494503D01*
X232542054Y-45453972D01*
X232475581Y-45399419D01*
X232421028Y-45332946D01*
X232380497Y-45257117D01*
X232355533Y-45174822D01*
X232346500Y-45083110D01*
X232346500Y-43331890D01*
X232355533Y-43240178D01*
X232380497Y-43157883D01*
X232421028Y-43082054D01*
X232475581Y-43015581D01*
X232542054Y-42961028D01*
X232617883Y-42920497D01*
X232700178Y-42895533D01*
X232791890Y-42886500D01*
X233908110Y-42886500D01*
X233999822Y-42895533D01*
X233999822Y-42895533D01*
G37*
G36*
X231459822Y-42895533D02*
X231542117Y-42920497D01*
X231617946Y-42961028D01*
X231684419Y-43015581D01*
X231738972Y-43082054D01*
X231779503Y-43157883D01*
X231804467Y-43240178D01*
X231813500Y-43331890D01*
X231813500Y-45083110D01*
X231804467Y-45174822D01*
X231779503Y-45257117D01*
X231738972Y-45332946D01*
X231684419Y-45399419D01*
X231617946Y-45453972D01*
X231542117Y-45494503D01*
X231459822Y-45519467D01*
X231368110Y-45528500D01*
X230251890Y-45528500D01*
X230160178Y-45519467D01*
X230077883Y-45494503D01*
X230002054Y-45453972D01*
X229935581Y-45399419D01*
X229881028Y-45332946D01*
X229840497Y-45257117D01*
X229815533Y-45174822D01*
X229806500Y-45083110D01*
X229806500Y-43331890D01*
X229815533Y-43240178D01*
X229840497Y-43157883D01*
X229881028Y-43082054D01*
X229935581Y-43015581D01*
X230002054Y-42961028D01*
X230077883Y-42920497D01*
X230160178Y-42895533D01*
X230251890Y-42886500D01*
X231368110Y-42886500D01*
X231459822Y-42895533D01*
X231459822Y-42895533D01*
G37*
G36*
X228919822Y-42895533D02*
X229002117Y-42920497D01*
X229077946Y-42961028D01*
X229144419Y-43015581D01*
X229198972Y-43082054D01*
X229239503Y-43157883D01*
X229264467Y-43240178D01*
X229273500Y-43331890D01*
X229273500Y-45083110D01*
X229264467Y-45174822D01*
X229239503Y-45257117D01*
X229198972Y-45332946D01*
X229144419Y-45399419D01*
X229077946Y-45453972D01*
X229002117Y-45494503D01*
X228919822Y-45519467D01*
X228828110Y-45528500D01*
X227711890Y-45528500D01*
X227620178Y-45519467D01*
X227537883Y-45494503D01*
X227462054Y-45453972D01*
X227395581Y-45399419D01*
X227341028Y-45332946D01*
X227300497Y-45257117D01*
X227275533Y-45174822D01*
X227266500Y-45083110D01*
X227266500Y-43331890D01*
X227275533Y-43240178D01*
X227300497Y-43157883D01*
X227341028Y-43082054D01*
X227395581Y-43015581D01*
X227462054Y-42961028D01*
X227537883Y-42920497D01*
X227620178Y-42895533D01*
X227711890Y-42886500D01*
X228828110Y-42886500D01*
X228919822Y-42895533D01*
X228919822Y-42895533D01*
G37*
G36*
X226379822Y-42895533D02*
X226462117Y-42920497D01*
X226537946Y-42961028D01*
X226604419Y-43015581D01*
X226658972Y-43082054D01*
X226699503Y-43157883D01*
X226724467Y-43240178D01*
X226733500Y-43331890D01*
X226733500Y-45083110D01*
X226724467Y-45174822D01*
X226699503Y-45257117D01*
X226658972Y-45332946D01*
X226604419Y-45399419D01*
X226537946Y-45453972D01*
X226462117Y-45494503D01*
X226379822Y-45519467D01*
X226288110Y-45528500D01*
X225171890Y-45528500D01*
X225080178Y-45519467D01*
X224997883Y-45494503D01*
X224922054Y-45453972D01*
X224855581Y-45399419D01*
X224801028Y-45332946D01*
X224760497Y-45257117D01*
X224735533Y-45174822D01*
X224726500Y-45083110D01*
X224726500Y-43331890D01*
X224735533Y-43240178D01*
X224760497Y-43157883D01*
X224801028Y-43082054D01*
X224855581Y-43015581D01*
X224922054Y-42961028D01*
X224997883Y-42920497D01*
X225080178Y-42895533D01*
X225171890Y-42886500D01*
X226288110Y-42886500D01*
X226379822Y-42895533D01*
X226379822Y-42895533D01*
G37*
G36*
X223839822Y-42895533D02*
X223922117Y-42920497D01*
X223997946Y-42961028D01*
X224064419Y-43015581D01*
X224118972Y-43082054D01*
X224159503Y-43157883D01*
X224184467Y-43240178D01*
X224193500Y-43331890D01*
X224193500Y-45083110D01*
X224184467Y-45174822D01*
X224159503Y-45257117D01*
X224118972Y-45332946D01*
X224064419Y-45399419D01*
X223997946Y-45453972D01*
X223922117Y-45494503D01*
X223839822Y-45519467D01*
X223748110Y-45528500D01*
X222631890Y-45528500D01*
X222540178Y-45519467D01*
X222457883Y-45494503D01*
X222382054Y-45453972D01*
X222315581Y-45399419D01*
X222261028Y-45332946D01*
X222220497Y-45257117D01*
X222195533Y-45174822D01*
X222186500Y-45083110D01*
X222186500Y-43331890D01*
X222195533Y-43240178D01*
X222220497Y-43157883D01*
X222261028Y-43082054D01*
X222315581Y-43015581D01*
X222382054Y-42961028D01*
X222457883Y-42920497D01*
X222540178Y-42895533D01*
X222631890Y-42886500D01*
X223748110Y-42886500D01*
X223839822Y-42895533D01*
X223839822Y-42895533D01*
G37*
G36*
X221299822Y-42895533D02*
X221382117Y-42920497D01*
X221457946Y-42961028D01*
X221524419Y-43015581D01*
X221578972Y-43082054D01*
X221619503Y-43157883D01*
X221644467Y-43240178D01*
X221653500Y-43331890D01*
X221653500Y-45083110D01*
X221644467Y-45174822D01*
X221619503Y-45257117D01*
X221578972Y-45332946D01*
X221524419Y-45399419D01*
X221457946Y-45453972D01*
X221382117Y-45494503D01*
X221299822Y-45519467D01*
X221208110Y-45528500D01*
X220091890Y-45528500D01*
X220000178Y-45519467D01*
X219917883Y-45494503D01*
X219842054Y-45453972D01*
X219775581Y-45399419D01*
X219721028Y-45332946D01*
X219680497Y-45257117D01*
X219655533Y-45174822D01*
X219646500Y-45083110D01*
X219646500Y-43331890D01*
X219655533Y-43240178D01*
X219680497Y-43157883D01*
X219721028Y-43082054D01*
X219775581Y-43015581D01*
X219842054Y-42961028D01*
X219917883Y-42920497D01*
X220000178Y-42895533D01*
X220091890Y-42886500D01*
X221208110Y-42886500D01*
X221299822Y-42895533D01*
X221299822Y-42895533D01*
G37*
G36*
X255896776Y-43240547D02*
X255896778Y-43240548D01*
X255896779Y-43240548D01*
X256063225Y-43309492D01*
X256063226Y-43309493D01*
X256213026Y-43409586D01*
X256340414Y-43536974D01*
X256340416Y-43536977D01*
X256440508Y-43686775D01*
X256509452Y-43853221D01*
X256544600Y-44029920D01*
X256544600Y-44210080D01*
X256509452Y-44386779D01*
X256440508Y-44553225D01*
X256362138Y-44670514D01*
X256340414Y-44703026D01*
X256213026Y-44830414D01*
X256213023Y-44830416D01*
X256063225Y-44930508D01*
X255896779Y-44999452D01*
X255896778Y-44999452D01*
X255896776Y-44999453D01*
X255720082Y-45034600D01*
X255539918Y-45034600D01*
X255363224Y-44999453D01*
X255363222Y-44999452D01*
X255363221Y-44999452D01*
X255196775Y-44930508D01*
X255046977Y-44830416D01*
X255046974Y-44830414D01*
X254919586Y-44703026D01*
X254897862Y-44670514D01*
X254819492Y-44553225D01*
X254750548Y-44386779D01*
X254715400Y-44210080D01*
X254715400Y-44029920D01*
X254750548Y-43853221D01*
X254819492Y-43686775D01*
X254919584Y-43536977D01*
X254919586Y-43536974D01*
X255046974Y-43409586D01*
X255196774Y-43309493D01*
X255196775Y-43309492D01*
X255363221Y-43240548D01*
X255363222Y-43240548D01*
X255363224Y-43240547D01*
X255539918Y-43205400D01*
X255720082Y-43205400D01*
X255896776Y-43240547D01*
X255896776Y-43240547D01*
G37*
G36*
X248276776Y-43240547D02*
X248276778Y-43240548D01*
X248276779Y-43240548D01*
X248443225Y-43309492D01*
X248443226Y-43309493D01*
X248593026Y-43409586D01*
X248720414Y-43536974D01*
X248720416Y-43536977D01*
X248820508Y-43686775D01*
X248889452Y-43853221D01*
X248924600Y-44029920D01*
X248924600Y-44210080D01*
X248889452Y-44386779D01*
X248820508Y-44553225D01*
X248742138Y-44670514D01*
X248720414Y-44703026D01*
X248593026Y-44830414D01*
X248593023Y-44830416D01*
X248443225Y-44930508D01*
X248276779Y-44999452D01*
X248276778Y-44999452D01*
X248276776Y-44999453D01*
X248100082Y-45034600D01*
X247919918Y-45034600D01*
X247743224Y-44999453D01*
X247743222Y-44999452D01*
X247743221Y-44999452D01*
X247576775Y-44930508D01*
X247426977Y-44830416D01*
X247426974Y-44830414D01*
X247299586Y-44703026D01*
X247277862Y-44670514D01*
X247199492Y-44553225D01*
X247130548Y-44386779D01*
X247095400Y-44210080D01*
X247095400Y-44029920D01*
X247130548Y-43853221D01*
X247199492Y-43686775D01*
X247299584Y-43536977D01*
X247299586Y-43536974D01*
X247426974Y-43409586D01*
X247576774Y-43309493D01*
X247576775Y-43309492D01*
X247743221Y-43240548D01*
X247743222Y-43240548D01*
X247743224Y-43240547D01*
X247919918Y-43205400D01*
X248100082Y-43205400D01*
X248276776Y-43240547D01*
X248276776Y-43240547D01*
G37*
G36*
X253356776Y-43240547D02*
X253356778Y-43240548D01*
X253356779Y-43240548D01*
X253523225Y-43309492D01*
X253523226Y-43309493D01*
X253673026Y-43409586D01*
X253800414Y-43536974D01*
X253800416Y-43536977D01*
X253900508Y-43686775D01*
X253969452Y-43853221D01*
X254004600Y-44029920D01*
X254004600Y-44210080D01*
X253969452Y-44386779D01*
X253900508Y-44553225D01*
X253822138Y-44670514D01*
X253800414Y-44703026D01*
X253673026Y-44830414D01*
X253673023Y-44830416D01*
X253523225Y-44930508D01*
X253356779Y-44999452D01*
X253356778Y-44999452D01*
X253356776Y-44999453D01*
X253180082Y-45034600D01*
X252999918Y-45034600D01*
X252823224Y-44999453D01*
X252823222Y-44999452D01*
X252823221Y-44999452D01*
X252656775Y-44930508D01*
X252506977Y-44830416D01*
X252506974Y-44830414D01*
X252379586Y-44703026D01*
X252357862Y-44670514D01*
X252279492Y-44553225D01*
X252210548Y-44386779D01*
X252175400Y-44210080D01*
X252175400Y-44029920D01*
X252210548Y-43853221D01*
X252279492Y-43686775D01*
X252379584Y-43536977D01*
X252379586Y-43536974D01*
X252506974Y-43409586D01*
X252656774Y-43309493D01*
X252656775Y-43309492D01*
X252823221Y-43240548D01*
X252823222Y-43240548D01*
X252823224Y-43240547D01*
X252999918Y-43205400D01*
X253180082Y-43205400D01*
X253356776Y-43240547D01*
X253356776Y-43240547D01*
G37*
G36*
X268596776Y-43240547D02*
X268596778Y-43240548D01*
X268596779Y-43240548D01*
X268763225Y-43309492D01*
X268763226Y-43309493D01*
X268913026Y-43409586D01*
X269040414Y-43536974D01*
X269040416Y-43536977D01*
X269140508Y-43686775D01*
X269209452Y-43853221D01*
X269244600Y-44029920D01*
X269244600Y-44210080D01*
X269209452Y-44386779D01*
X269140508Y-44553225D01*
X269062138Y-44670514D01*
X269040414Y-44703026D01*
X268913026Y-44830414D01*
X268913023Y-44830416D01*
X268763225Y-44930508D01*
X268596779Y-44999452D01*
X268596778Y-44999452D01*
X268596776Y-44999453D01*
X268420082Y-45034600D01*
X268239918Y-45034600D01*
X268063224Y-44999453D01*
X268063222Y-44999452D01*
X268063221Y-44999452D01*
X267896775Y-44930508D01*
X267746977Y-44830416D01*
X267746974Y-44830414D01*
X267619586Y-44703026D01*
X267597862Y-44670514D01*
X267519492Y-44553225D01*
X267450548Y-44386779D01*
X267415400Y-44210080D01*
X267415400Y-44029920D01*
X267450548Y-43853221D01*
X267519492Y-43686775D01*
X267619584Y-43536977D01*
X267619586Y-43536974D01*
X267746974Y-43409586D01*
X267896774Y-43309493D01*
X267896775Y-43309492D01*
X268063221Y-43240548D01*
X268063222Y-43240548D01*
X268063224Y-43240547D01*
X268239918Y-43205400D01*
X268420082Y-43205400D01*
X268596776Y-43240547D01*
X268596776Y-43240547D01*
G37*
G36*
X273676776Y-43240547D02*
X273676778Y-43240548D01*
X273676779Y-43240548D01*
X273843225Y-43309492D01*
X273843226Y-43309493D01*
X273993026Y-43409586D01*
X274120414Y-43536974D01*
X274120416Y-43536977D01*
X274220508Y-43686775D01*
X274289452Y-43853221D01*
X274324600Y-44029920D01*
X274324600Y-44210080D01*
X274289452Y-44386779D01*
X274220508Y-44553225D01*
X274142138Y-44670514D01*
X274120414Y-44703026D01*
X273993026Y-44830414D01*
X273993023Y-44830416D01*
X273843225Y-44930508D01*
X273676779Y-44999452D01*
X273676778Y-44999452D01*
X273676776Y-44999453D01*
X273500082Y-45034600D01*
X273319918Y-45034600D01*
X273143224Y-44999453D01*
X273143222Y-44999452D01*
X273143221Y-44999452D01*
X272976775Y-44930508D01*
X272826977Y-44830416D01*
X272826974Y-44830414D01*
X272699586Y-44703026D01*
X272677862Y-44670514D01*
X272599492Y-44553225D01*
X272530548Y-44386779D01*
X272495400Y-44210080D01*
X272495400Y-44029920D01*
X272530548Y-43853221D01*
X272599492Y-43686775D01*
X272699584Y-43536977D01*
X272699586Y-43536974D01*
X272826974Y-43409586D01*
X272976774Y-43309493D01*
X272976775Y-43309492D01*
X273143221Y-43240548D01*
X273143222Y-43240548D01*
X273143224Y-43240547D01*
X273319918Y-43205400D01*
X273500082Y-43205400D01*
X273676776Y-43240547D01*
X273676776Y-43240547D01*
G37*
G36*
X250816776Y-43240547D02*
X250816778Y-43240548D01*
X250816779Y-43240548D01*
X250983225Y-43309492D01*
X250983226Y-43309493D01*
X251133026Y-43409586D01*
X251260414Y-43536974D01*
X251260416Y-43536977D01*
X251360508Y-43686775D01*
X251429452Y-43853221D01*
X251464600Y-44029920D01*
X251464600Y-44210080D01*
X251429452Y-44386779D01*
X251360508Y-44553225D01*
X251282138Y-44670514D01*
X251260414Y-44703026D01*
X251133026Y-44830414D01*
X251133023Y-44830416D01*
X250983225Y-44930508D01*
X250816779Y-44999452D01*
X250816778Y-44999452D01*
X250816776Y-44999453D01*
X250640082Y-45034600D01*
X250459918Y-45034600D01*
X250283224Y-44999453D01*
X250283222Y-44999452D01*
X250283221Y-44999452D01*
X250116775Y-44930508D01*
X249966977Y-44830416D01*
X249966974Y-44830414D01*
X249839586Y-44703026D01*
X249817862Y-44670514D01*
X249739492Y-44553225D01*
X249670548Y-44386779D01*
X249635400Y-44210080D01*
X249635400Y-44029920D01*
X249670548Y-43853221D01*
X249739492Y-43686775D01*
X249839584Y-43536977D01*
X249839586Y-43536974D01*
X249966974Y-43409586D01*
X250116774Y-43309493D01*
X250116775Y-43309492D01*
X250283221Y-43240548D01*
X250283222Y-43240548D01*
X250283224Y-43240547D01*
X250459918Y-43205400D01*
X250640082Y-43205400D01*
X250816776Y-43240547D01*
X250816776Y-43240547D01*
G37*
G36*
X276813600Y-44983600D02*
X275086400Y-44983600D01*
X275086400Y-43256400D01*
X276813600Y-43256400D01*
X276813600Y-44983600D01*
X276813600Y-44983600D01*
G37*
G36*
X263501903Y-43289587D02*
X263659068Y-43354687D01*
X263800513Y-43449198D01*
X263920802Y-43569487D01*
X264015313Y-43710932D01*
X264080413Y-43868097D01*
X264113600Y-44034943D01*
X264113600Y-44205057D01*
X264080413Y-44371903D01*
X264015313Y-44529068D01*
X263920802Y-44670513D01*
X263800513Y-44790802D01*
X263659068Y-44885313D01*
X263501903Y-44950413D01*
X263335057Y-44983600D01*
X263164943Y-44983600D01*
X262998097Y-44950413D01*
X262840932Y-44885313D01*
X262699487Y-44790802D01*
X262579198Y-44670513D01*
X262484687Y-44529068D01*
X262419587Y-44371903D01*
X262386400Y-44205057D01*
X262386400Y-44034943D01*
X262419587Y-43868097D01*
X262484687Y-43710932D01*
X262579198Y-43569487D01*
X262699487Y-43449198D01*
X262840932Y-43354687D01*
X262998097Y-43289587D01*
X263164943Y-43256400D01*
X263335057Y-43256400D01*
X263501903Y-43289587D01*
X263501903Y-43289587D01*
G37*
G36*
X258421903Y-43289587D02*
X258579068Y-43354687D01*
X258720513Y-43449198D01*
X258840802Y-43569487D01*
X258935313Y-43710932D01*
X259000413Y-43868097D01*
X259033600Y-44034943D01*
X259033600Y-44205057D01*
X259000413Y-44371903D01*
X258935313Y-44529068D01*
X258840802Y-44670513D01*
X258720513Y-44790802D01*
X258579068Y-44885313D01*
X258421903Y-44950413D01*
X258255057Y-44983600D01*
X258084943Y-44983600D01*
X257918097Y-44950413D01*
X257760932Y-44885313D01*
X257619487Y-44790802D01*
X257499198Y-44670513D01*
X257404687Y-44529068D01*
X257339587Y-44371903D01*
X257306400Y-44205057D01*
X257306400Y-44034943D01*
X257339587Y-43868097D01*
X257404687Y-43710932D01*
X257499198Y-43569487D01*
X257619487Y-43449198D01*
X257760932Y-43354687D01*
X257918097Y-43289587D01*
X258084943Y-43256400D01*
X258255057Y-43256400D01*
X258421903Y-43289587D01*
X258421903Y-43289587D01*
G37*
G36*
X260961903Y-43289587D02*
X261119068Y-43354687D01*
X261260513Y-43449198D01*
X261380802Y-43569487D01*
X261475313Y-43710932D01*
X261540413Y-43868097D01*
X261573600Y-44034943D01*
X261573600Y-44205057D01*
X261540413Y-44371903D01*
X261475313Y-44529068D01*
X261380802Y-44670513D01*
X261260513Y-44790802D01*
X261119068Y-44885313D01*
X260961903Y-44950413D01*
X260795057Y-44983600D01*
X260624943Y-44983600D01*
X260458097Y-44950413D01*
X260300932Y-44885313D01*
X260159487Y-44790802D01*
X260039198Y-44670513D01*
X259944687Y-44529068D01*
X259879587Y-44371903D01*
X259846400Y-44205057D01*
X259846400Y-44034943D01*
X259879587Y-43868097D01*
X259944687Y-43710932D01*
X260039198Y-43569487D01*
X260159487Y-43449198D01*
X260300932Y-43354687D01*
X260458097Y-43289587D01*
X260624943Y-43256400D01*
X260795057Y-43256400D01*
X260961903Y-43289587D01*
X260961903Y-43289587D01*
G37*
G36*
X266041903Y-43289587D02*
X266199068Y-43354687D01*
X266340513Y-43449198D01*
X266460802Y-43569487D01*
X266555313Y-43710932D01*
X266620413Y-43868097D01*
X266653600Y-44034943D01*
X266653600Y-44205057D01*
X266620413Y-44371903D01*
X266555313Y-44529068D01*
X266460802Y-44670513D01*
X266340513Y-44790802D01*
X266199068Y-44885313D01*
X266041903Y-44950413D01*
X265875057Y-44983600D01*
X265704943Y-44983600D01*
X265538097Y-44950413D01*
X265380932Y-44885313D01*
X265239487Y-44790802D01*
X265119198Y-44670513D01*
X265024687Y-44529068D01*
X264959587Y-44371903D01*
X264926400Y-44205057D01*
X264926400Y-44034943D01*
X264959587Y-43868097D01*
X265024687Y-43710932D01*
X265119198Y-43569487D01*
X265239487Y-43449198D01*
X265380932Y-43354687D01*
X265538097Y-43289587D01*
X265704943Y-43256400D01*
X265875057Y-43256400D01*
X266041903Y-43289587D01*
X266041903Y-43289587D01*
G37*
G36*
X271121903Y-43289587D02*
X271279068Y-43354687D01*
X271420513Y-43449198D01*
X271540802Y-43569487D01*
X271635313Y-43710932D01*
X271700413Y-43868097D01*
X271733600Y-44034943D01*
X271733600Y-44205057D01*
X271700413Y-44371903D01*
X271635313Y-44529068D01*
X271540802Y-44670513D01*
X271420513Y-44790802D01*
X271279068Y-44885313D01*
X271121903Y-44950413D01*
X270955057Y-44983600D01*
X270784943Y-44983600D01*
X270618097Y-44950413D01*
X270460932Y-44885313D01*
X270319487Y-44790802D01*
X270199198Y-44670513D01*
X270104687Y-44529068D01*
X270039587Y-44371903D01*
X270006400Y-44205057D01*
X270006400Y-44034943D01*
X270039587Y-43868097D01*
X270104687Y-43710932D01*
X270199198Y-43569487D01*
X270319487Y-43449198D01*
X270460932Y-43354687D01*
X270618097Y-43289587D01*
X270784943Y-43256400D01*
X270955057Y-43256400D01*
X271121903Y-43289587D01*
X271121903Y-43289587D01*
G37*
G36*
X278741903Y-42019587D02*
X278899068Y-42084687D01*
X279040513Y-42179198D01*
X279160802Y-42299487D01*
X279255313Y-42440932D01*
X279320413Y-42598097D01*
X279353600Y-42764943D01*
X279353600Y-42935057D01*
X279320413Y-43101903D01*
X279255313Y-43259068D01*
X279160802Y-43400513D01*
X279040513Y-43520802D01*
X278899068Y-43615313D01*
X278741903Y-43680413D01*
X278575057Y-43713600D01*
X278404943Y-43713600D01*
X278238097Y-43680413D01*
X278080932Y-43615313D01*
X277939487Y-43520802D01*
X277819198Y-43400513D01*
X277724687Y-43259068D01*
X277659587Y-43101903D01*
X277626400Y-42935057D01*
X277626400Y-42764943D01*
X277659587Y-42598097D01*
X277724687Y-42440932D01*
X277819198Y-42299487D01*
X277939487Y-42179198D01*
X278080932Y-42084687D01*
X278238097Y-42019587D01*
X278404943Y-41986400D01*
X278575057Y-41986400D01*
X278741903Y-42019587D01*
X278741903Y-42019587D01*
G37*
G36*
X267311903Y-40749587D02*
X267469068Y-40814687D01*
X267610513Y-40909198D01*
X267730802Y-41029487D01*
X267825313Y-41170932D01*
X267890413Y-41328097D01*
X267923600Y-41494943D01*
X267923600Y-41665057D01*
X267890413Y-41831903D01*
X267825313Y-41989068D01*
X267730802Y-42130513D01*
X267610513Y-42250802D01*
X267469068Y-42345313D01*
X267311903Y-42410413D01*
X267145057Y-42443600D01*
X266974943Y-42443600D01*
X266808097Y-42410413D01*
X266650932Y-42345313D01*
X266509487Y-42250802D01*
X266389198Y-42130513D01*
X266294687Y-41989068D01*
X266229587Y-41831903D01*
X266196400Y-41665057D01*
X266196400Y-41494943D01*
X266229587Y-41328097D01*
X266294687Y-41170932D01*
X266389198Y-41029487D01*
X266509487Y-40909198D01*
X266650932Y-40814687D01*
X266808097Y-40749587D01*
X266974943Y-40716400D01*
X267145057Y-40716400D01*
X267311903Y-40749587D01*
X267311903Y-40749587D01*
G37*
G36*
X248261903Y-40749587D02*
X248419068Y-40814687D01*
X248560513Y-40909198D01*
X248680802Y-41029487D01*
X248775313Y-41170932D01*
X248840413Y-41328097D01*
X248873600Y-41494943D01*
X248873600Y-41665057D01*
X248840413Y-41831903D01*
X248775313Y-41989068D01*
X248680802Y-42130513D01*
X248560513Y-42250802D01*
X248419068Y-42345313D01*
X248261903Y-42410413D01*
X248095057Y-42443600D01*
X247924943Y-42443600D01*
X247758097Y-42410413D01*
X247600932Y-42345313D01*
X247459487Y-42250802D01*
X247339198Y-42130513D01*
X247244687Y-41989068D01*
X247179587Y-41831903D01*
X247146400Y-41665057D01*
X247146400Y-41494943D01*
X247179587Y-41328097D01*
X247244687Y-41170932D01*
X247339198Y-41029487D01*
X247459487Y-40909198D01*
X247600932Y-40814687D01*
X247758097Y-40749587D01*
X247924943Y-40716400D01*
X248095057Y-40716400D01*
X248261903Y-40749587D01*
X248261903Y-40749587D01*
G37*
G36*
X264771903Y-40749587D02*
X264929068Y-40814687D01*
X265070513Y-40909198D01*
X265190802Y-41029487D01*
X265285313Y-41170932D01*
X265350413Y-41328097D01*
X265383600Y-41494943D01*
X265383600Y-41665057D01*
X265350413Y-41831903D01*
X265285313Y-41989068D01*
X265190802Y-42130513D01*
X265070513Y-42250802D01*
X264929068Y-42345313D01*
X264771903Y-42410413D01*
X264605057Y-42443600D01*
X264434943Y-42443600D01*
X264268097Y-42410413D01*
X264110932Y-42345313D01*
X263969487Y-42250802D01*
X263849198Y-42130513D01*
X263754687Y-41989068D01*
X263689587Y-41831903D01*
X263656400Y-41665057D01*
X263656400Y-41494943D01*
X263689587Y-41328097D01*
X263754687Y-41170932D01*
X263849198Y-41029487D01*
X263969487Y-40909198D01*
X264110932Y-40814687D01*
X264268097Y-40749587D01*
X264434943Y-40716400D01*
X264605057Y-40716400D01*
X264771903Y-40749587D01*
X264771903Y-40749587D01*
G37*
G36*
X278741903Y-39479587D02*
X278899068Y-39544687D01*
X279040513Y-39639198D01*
X279160802Y-39759487D01*
X279255313Y-39900932D01*
X279320413Y-40058097D01*
X279353600Y-40224943D01*
X279353600Y-40395057D01*
X279320413Y-40561903D01*
X279255313Y-40719068D01*
X279160802Y-40860513D01*
X279040513Y-40980802D01*
X278899068Y-41075313D01*
X278741903Y-41140413D01*
X278575057Y-41173600D01*
X278404943Y-41173600D01*
X278238097Y-41140413D01*
X278080932Y-41075313D01*
X277939487Y-40980802D01*
X277819198Y-40860513D01*
X277724687Y-40719068D01*
X277659587Y-40561903D01*
X277626400Y-40395057D01*
X277626400Y-40224943D01*
X277659587Y-40058097D01*
X277724687Y-39900932D01*
X277819198Y-39759487D01*
X277939487Y-39639198D01*
X278080932Y-39544687D01*
X278238097Y-39479587D01*
X278404943Y-39446400D01*
X278575057Y-39446400D01*
X278741903Y-39479587D01*
X278741903Y-39479587D01*
G37*
G36*
X248261903Y-38209587D02*
X248419068Y-38274687D01*
X248560513Y-38369198D01*
X248680802Y-38489487D01*
X248775313Y-38630932D01*
X248840413Y-38788097D01*
X248873600Y-38954943D01*
X248873600Y-39125057D01*
X248840413Y-39291903D01*
X248775313Y-39449068D01*
X248680802Y-39590513D01*
X248560513Y-39710802D01*
X248419068Y-39805313D01*
X248261903Y-39870413D01*
X248095057Y-39903600D01*
X247924943Y-39903600D01*
X247758097Y-39870413D01*
X247600932Y-39805313D01*
X247459487Y-39710802D01*
X247339198Y-39590513D01*
X247244687Y-39449068D01*
X247179587Y-39291903D01*
X247146400Y-39125057D01*
X247146400Y-38954943D01*
X247179587Y-38788097D01*
X247244687Y-38630932D01*
X247339198Y-38489487D01*
X247459487Y-38369198D01*
X247600932Y-38274687D01*
X247758097Y-38209587D01*
X247924943Y-38176400D01*
X248095057Y-38176400D01*
X248261903Y-38209587D01*
X248261903Y-38209587D01*
G37*
G36*
X278741903Y-36939587D02*
X278899068Y-37004687D01*
X279040513Y-37099198D01*
X279160802Y-37219487D01*
X279255313Y-37360932D01*
X279320413Y-37518097D01*
X279353600Y-37684943D01*
X279353600Y-37855057D01*
X279320413Y-38021903D01*
X279255313Y-38179068D01*
X279160802Y-38320513D01*
X279040513Y-38440802D01*
X278899068Y-38535313D01*
X278741903Y-38600413D01*
X278575057Y-38633600D01*
X278404943Y-38633600D01*
X278238097Y-38600413D01*
X278080932Y-38535313D01*
X277939487Y-38440802D01*
X277819198Y-38320513D01*
X277724687Y-38179068D01*
X277659587Y-38021903D01*
X277626400Y-37855057D01*
X277626400Y-37684943D01*
X277659587Y-37518097D01*
X277724687Y-37360932D01*
X277819198Y-37219487D01*
X277939487Y-37099198D01*
X278080932Y-37004687D01*
X278238097Y-36939587D01*
X278404943Y-36906400D01*
X278575057Y-36906400D01*
X278741903Y-36939587D01*
X278741903Y-36939587D01*
G37*
G36*
X248924600Y-37414600D02*
X247095400Y-37414600D01*
X247095400Y-35585400D01*
X248924600Y-35585400D01*
X248924600Y-37414600D01*
X248924600Y-37414600D01*
G37*
G36*
X278741903Y-34399587D02*
X278899068Y-34464687D01*
X279040513Y-34559198D01*
X279160802Y-34679487D01*
X279255313Y-34820932D01*
X279320413Y-34978097D01*
X279353600Y-35144943D01*
X279353600Y-35315057D01*
X279320413Y-35481903D01*
X279255313Y-35639068D01*
X279160802Y-35780513D01*
X279040513Y-35900802D01*
X278899068Y-35995313D01*
X278741903Y-36060413D01*
X278575057Y-36093600D01*
X278404943Y-36093600D01*
X278238097Y-36060413D01*
X278080932Y-35995313D01*
X277939487Y-35900802D01*
X277819198Y-35780513D01*
X277724687Y-35639068D01*
X277659587Y-35481903D01*
X277626400Y-35315057D01*
X277626400Y-35144943D01*
X277659587Y-34978097D01*
X277724687Y-34820932D01*
X277819198Y-34679487D01*
X277939487Y-34559198D01*
X278080932Y-34464687D01*
X278238097Y-34399587D01*
X278404943Y-34366400D01*
X278575057Y-34366400D01*
X278741903Y-34399587D01*
X278741903Y-34399587D01*
G37*
G36*
X278741903Y-31859587D02*
X278899068Y-31924687D01*
X279040513Y-32019198D01*
X279160802Y-32139487D01*
X279255313Y-32280932D01*
X279320413Y-32438097D01*
X279353600Y-32604943D01*
X279353600Y-32775057D01*
X279320413Y-32941903D01*
X279255313Y-33099068D01*
X279160802Y-33240513D01*
X279040513Y-33360802D01*
X278899068Y-33455313D01*
X278741903Y-33520413D01*
X278575057Y-33553600D01*
X278404943Y-33553600D01*
X278238097Y-33520413D01*
X278080932Y-33455313D01*
X277939487Y-33360802D01*
X277819198Y-33240513D01*
X277724687Y-33099068D01*
X277659587Y-32941903D01*
X277626400Y-32775057D01*
X277626400Y-32604943D01*
X277659587Y-32438097D01*
X277724687Y-32280932D01*
X277819198Y-32139487D01*
X277939487Y-32019198D01*
X278080932Y-31924687D01*
X278238097Y-31859587D01*
X278404943Y-31826400D01*
X278575057Y-31826400D01*
X278741903Y-31859587D01*
X278741903Y-31859587D01*
G37*
G36*
X279353600Y-31013600D02*
X277626400Y-31013600D01*
X277626400Y-29286400D01*
X279353600Y-29286400D01*
X279353600Y-31013600D01*
X279353600Y-31013600D01*
G37*
G36*
X258436776Y-28000547D02*
X258436778Y-28000548D01*
X258436779Y-28000548D01*
X258603225Y-28069492D01*
X258603226Y-28069493D01*
X258753026Y-28169586D01*
X258880414Y-28296974D01*
X258880416Y-28296977D01*
X258980508Y-28446775D01*
X259049452Y-28613221D01*
X259084600Y-28789920D01*
X259084600Y-28970080D01*
X259049452Y-29146779D01*
X258980508Y-29313225D01*
X258902138Y-29430514D01*
X258880414Y-29463026D01*
X258753026Y-29590414D01*
X258753023Y-29590416D01*
X258603225Y-29690508D01*
X258436779Y-29759452D01*
X258436778Y-29759452D01*
X258436776Y-29759453D01*
X258260082Y-29794600D01*
X258079918Y-29794600D01*
X257903224Y-29759453D01*
X257903222Y-29759452D01*
X257903221Y-29759452D01*
X257736775Y-29690508D01*
X257586977Y-29590416D01*
X257586974Y-29590414D01*
X257459586Y-29463026D01*
X257437862Y-29430514D01*
X257359492Y-29313225D01*
X257290548Y-29146779D01*
X257255400Y-28970080D01*
X257255400Y-28789920D01*
X257290548Y-28613221D01*
X257359492Y-28446775D01*
X257459584Y-28296977D01*
X257459586Y-28296974D01*
X257586974Y-28169586D01*
X257736774Y-28069493D01*
X257736775Y-28069492D01*
X257903221Y-28000548D01*
X257903222Y-28000548D01*
X257903224Y-28000547D01*
X258079918Y-27965400D01*
X258260082Y-27965400D01*
X258436776Y-28000547D01*
X258436776Y-28000547D01*
G37*
G36*
X268596776Y-28000547D02*
X268596778Y-28000548D01*
X268596779Y-28000548D01*
X268763225Y-28069492D01*
X268763226Y-28069493D01*
X268913026Y-28169586D01*
X269040414Y-28296974D01*
X269040416Y-28296977D01*
X269140508Y-28446775D01*
X269209452Y-28613221D01*
X269244600Y-28789920D01*
X269244600Y-28970080D01*
X269209452Y-29146779D01*
X269140508Y-29313225D01*
X269062138Y-29430514D01*
X269040414Y-29463026D01*
X268913026Y-29590414D01*
X268913023Y-29590416D01*
X268763225Y-29690508D01*
X268596779Y-29759452D01*
X268596778Y-29759452D01*
X268596776Y-29759453D01*
X268420082Y-29794600D01*
X268239918Y-29794600D01*
X268063224Y-29759453D01*
X268063222Y-29759452D01*
X268063221Y-29759452D01*
X267896775Y-29690508D01*
X267746977Y-29590416D01*
X267746974Y-29590414D01*
X267619586Y-29463026D01*
X267597862Y-29430514D01*
X267519492Y-29313225D01*
X267450548Y-29146779D01*
X267415400Y-28970080D01*
X267415400Y-28789920D01*
X267450548Y-28613221D01*
X267519492Y-28446775D01*
X267619584Y-28296977D01*
X267619586Y-28296974D01*
X267746974Y-28169586D01*
X267896774Y-28069493D01*
X267896775Y-28069492D01*
X268063221Y-28000548D01*
X268063222Y-28000548D01*
X268063224Y-28000547D01*
X268239918Y-27965400D01*
X268420082Y-27965400D01*
X268596776Y-28000547D01*
X268596776Y-28000547D01*
G37*
G36*
X250816776Y-28000547D02*
X250816778Y-28000548D01*
X250816779Y-28000548D01*
X250983225Y-28069492D01*
X250983226Y-28069493D01*
X251133026Y-28169586D01*
X251260414Y-28296974D01*
X251260416Y-28296977D01*
X251360508Y-28446775D01*
X251429452Y-28613221D01*
X251464600Y-28789920D01*
X251464600Y-28970080D01*
X251429452Y-29146779D01*
X251360508Y-29313225D01*
X251282138Y-29430514D01*
X251260414Y-29463026D01*
X251133026Y-29590414D01*
X251133023Y-29590416D01*
X250983225Y-29690508D01*
X250816779Y-29759452D01*
X250816778Y-29759452D01*
X250816776Y-29759453D01*
X250640082Y-29794600D01*
X250459918Y-29794600D01*
X250283224Y-29759453D01*
X250283222Y-29759452D01*
X250283221Y-29759452D01*
X250116775Y-29690508D01*
X249966977Y-29590416D01*
X249966974Y-29590414D01*
X249839586Y-29463026D01*
X249817862Y-29430514D01*
X249739492Y-29313225D01*
X249670548Y-29146779D01*
X249635400Y-28970080D01*
X249635400Y-28789920D01*
X249670548Y-28613221D01*
X249739492Y-28446775D01*
X249839584Y-28296977D01*
X249839586Y-28296974D01*
X249966974Y-28169586D01*
X250116774Y-28069493D01*
X250116775Y-28069492D01*
X250283221Y-28000548D01*
X250283222Y-28000548D01*
X250283224Y-28000547D01*
X250459918Y-27965400D01*
X250640082Y-27965400D01*
X250816776Y-28000547D01*
X250816776Y-28000547D01*
G37*
G36*
X266056776Y-28000547D02*
X266056778Y-28000548D01*
X266056779Y-28000548D01*
X266223225Y-28069492D01*
X266223226Y-28069493D01*
X266373026Y-28169586D01*
X266500414Y-28296974D01*
X266500416Y-28296977D01*
X266600508Y-28446775D01*
X266669452Y-28613221D01*
X266704600Y-28789920D01*
X266704600Y-28970080D01*
X266669452Y-29146779D01*
X266600508Y-29313225D01*
X266522138Y-29430514D01*
X266500414Y-29463026D01*
X266373026Y-29590414D01*
X266373023Y-29590416D01*
X266223225Y-29690508D01*
X266056779Y-29759452D01*
X266056778Y-29759452D01*
X266056776Y-29759453D01*
X265880082Y-29794600D01*
X265699918Y-29794600D01*
X265523224Y-29759453D01*
X265523222Y-29759452D01*
X265523221Y-29759452D01*
X265356775Y-29690508D01*
X265206977Y-29590416D01*
X265206974Y-29590414D01*
X265079586Y-29463026D01*
X265057862Y-29430514D01*
X264979492Y-29313225D01*
X264910548Y-29146779D01*
X264875400Y-28970080D01*
X264875400Y-28789920D01*
X264910548Y-28613221D01*
X264979492Y-28446775D01*
X265079584Y-28296977D01*
X265079586Y-28296974D01*
X265206974Y-28169586D01*
X265356774Y-28069493D01*
X265356775Y-28069492D01*
X265523221Y-28000548D01*
X265523222Y-28000548D01*
X265523224Y-28000547D01*
X265699918Y-27965400D01*
X265880082Y-27965400D01*
X266056776Y-28000547D01*
X266056776Y-28000547D01*
G37*
G36*
X263516776Y-28000547D02*
X263516778Y-28000548D01*
X263516779Y-28000548D01*
X263683225Y-28069492D01*
X263683226Y-28069493D01*
X263833026Y-28169586D01*
X263960414Y-28296974D01*
X263960416Y-28296977D01*
X264060508Y-28446775D01*
X264129452Y-28613221D01*
X264164600Y-28789920D01*
X264164600Y-28970080D01*
X264129452Y-29146779D01*
X264060508Y-29313225D01*
X263982138Y-29430514D01*
X263960414Y-29463026D01*
X263833026Y-29590414D01*
X263833023Y-29590416D01*
X263683225Y-29690508D01*
X263516779Y-29759452D01*
X263516778Y-29759452D01*
X263516776Y-29759453D01*
X263340082Y-29794600D01*
X263159918Y-29794600D01*
X262983224Y-29759453D01*
X262983222Y-29759452D01*
X262983221Y-29759452D01*
X262816775Y-29690508D01*
X262666977Y-29590416D01*
X262666974Y-29590414D01*
X262539586Y-29463026D01*
X262517862Y-29430514D01*
X262439492Y-29313225D01*
X262370548Y-29146779D01*
X262335400Y-28970080D01*
X262335400Y-28789920D01*
X262370548Y-28613221D01*
X262439492Y-28446775D01*
X262539584Y-28296977D01*
X262539586Y-28296974D01*
X262666974Y-28169586D01*
X262816774Y-28069493D01*
X262816775Y-28069492D01*
X262983221Y-28000548D01*
X262983222Y-28000548D01*
X262983224Y-28000547D01*
X263159918Y-27965400D01*
X263340082Y-27965400D01*
X263516776Y-28000547D01*
X263516776Y-28000547D01*
G37*
G36*
X260976776Y-28000547D02*
X260976778Y-28000548D01*
X260976779Y-28000548D01*
X261143225Y-28069492D01*
X261143226Y-28069493D01*
X261293026Y-28169586D01*
X261420414Y-28296974D01*
X261420416Y-28296977D01*
X261520508Y-28446775D01*
X261589452Y-28613221D01*
X261624600Y-28789920D01*
X261624600Y-28970080D01*
X261589452Y-29146779D01*
X261520508Y-29313225D01*
X261442138Y-29430514D01*
X261420414Y-29463026D01*
X261293026Y-29590414D01*
X261293023Y-29590416D01*
X261143225Y-29690508D01*
X260976779Y-29759452D01*
X260976778Y-29759452D01*
X260976776Y-29759453D01*
X260800082Y-29794600D01*
X260619918Y-29794600D01*
X260443224Y-29759453D01*
X260443222Y-29759452D01*
X260443221Y-29759452D01*
X260276775Y-29690508D01*
X260126977Y-29590416D01*
X260126974Y-29590414D01*
X259999586Y-29463026D01*
X259977862Y-29430514D01*
X259899492Y-29313225D01*
X259830548Y-29146779D01*
X259795400Y-28970080D01*
X259795400Y-28789920D01*
X259830548Y-28613221D01*
X259899492Y-28446775D01*
X259999584Y-28296977D01*
X259999586Y-28296974D01*
X260126974Y-28169586D01*
X260276774Y-28069493D01*
X260276775Y-28069492D01*
X260443221Y-28000548D01*
X260443222Y-28000548D01*
X260443224Y-28000547D01*
X260619918Y-27965400D01*
X260800082Y-27965400D01*
X260976776Y-28000547D01*
X260976776Y-28000547D01*
G37*
G36*
X273661903Y-28049587D02*
X273819068Y-28114687D01*
X273960513Y-28209198D01*
X274080802Y-28329487D01*
X274175313Y-28470932D01*
X274240413Y-28628097D01*
X274273600Y-28794943D01*
X274273600Y-28965057D01*
X274240413Y-29131903D01*
X274175313Y-29289068D01*
X274080802Y-29430513D01*
X273960513Y-29550802D01*
X273819068Y-29645313D01*
X273661903Y-29710413D01*
X273495057Y-29743600D01*
X273324943Y-29743600D01*
X273158097Y-29710413D01*
X273000932Y-29645313D01*
X272859487Y-29550802D01*
X272739198Y-29430513D01*
X272644687Y-29289068D01*
X272579587Y-29131903D01*
X272546400Y-28965057D01*
X272546400Y-28794943D01*
X272579587Y-28628097D01*
X272644687Y-28470932D01*
X272739198Y-28329487D01*
X272859487Y-28209198D01*
X273000932Y-28114687D01*
X273158097Y-28049587D01*
X273324943Y-28016400D01*
X273495057Y-28016400D01*
X273661903Y-28049587D01*
X273661903Y-28049587D01*
G37*
G36*
X276813600Y-29743600D02*
X275086400Y-29743600D01*
X275086400Y-28016400D01*
X276813600Y-28016400D01*
X276813600Y-29743600D01*
X276813600Y-29743600D01*
G37*
G36*
X271121903Y-28049587D02*
X271279068Y-28114687D01*
X271420513Y-28209198D01*
X271540802Y-28329487D01*
X271635313Y-28470932D01*
X271700413Y-28628097D01*
X271733600Y-28794943D01*
X271733600Y-28965057D01*
X271700413Y-29131903D01*
X271635313Y-29289068D01*
X271540802Y-29430513D01*
X271420513Y-29550802D01*
X271279068Y-29645313D01*
X271121903Y-29710413D01*
X270955057Y-29743600D01*
X270784943Y-29743600D01*
X270618097Y-29710413D01*
X270460932Y-29645313D01*
X270319487Y-29550802D01*
X270199198Y-29430513D01*
X270104687Y-29289068D01*
X270039587Y-29131903D01*
X270006400Y-28965057D01*
X270006400Y-28794943D01*
X270039587Y-28628097D01*
X270104687Y-28470932D01*
X270199198Y-28329487D01*
X270319487Y-28209198D01*
X270460932Y-28114687D01*
X270618097Y-28049587D01*
X270784943Y-28016400D01*
X270955057Y-28016400D01*
X271121903Y-28049587D01*
X271121903Y-28049587D01*
G37*
G36*
X253341903Y-28049587D02*
X253499068Y-28114687D01*
X253640513Y-28209198D01*
X253760802Y-28329487D01*
X253855313Y-28470932D01*
X253920413Y-28628097D01*
X253953600Y-28794943D01*
X253953600Y-28965057D01*
X253920413Y-29131903D01*
X253855313Y-29289068D01*
X253760802Y-29430513D01*
X253640513Y-29550802D01*
X253499068Y-29645313D01*
X253341903Y-29710413D01*
X253175057Y-29743600D01*
X253004943Y-29743600D01*
X252838097Y-29710413D01*
X252680932Y-29645313D01*
X252539487Y-29550802D01*
X252419198Y-29430513D01*
X252324687Y-29289068D01*
X252259587Y-29131903D01*
X252226400Y-28965057D01*
X252226400Y-28794943D01*
X252259587Y-28628097D01*
X252324687Y-28470932D01*
X252419198Y-28329487D01*
X252539487Y-28209198D01*
X252680932Y-28114687D01*
X252838097Y-28049587D01*
X253004943Y-28016400D01*
X253175057Y-28016400D01*
X253341903Y-28049587D01*
X253341903Y-28049587D01*
G37*
G36*
X255881903Y-28049587D02*
X256039068Y-28114687D01*
X256180513Y-28209198D01*
X256300802Y-28329487D01*
X256395313Y-28470932D01*
X256460413Y-28628097D01*
X256493600Y-28794943D01*
X256493600Y-28965057D01*
X256460413Y-29131903D01*
X256395313Y-29289068D01*
X256300802Y-29430513D01*
X256180513Y-29550802D01*
X256039068Y-29645313D01*
X255881903Y-29710413D01*
X255715057Y-29743600D01*
X255544943Y-29743600D01*
X255378097Y-29710413D01*
X255220932Y-29645313D01*
X255079487Y-29550802D01*
X254959198Y-29430513D01*
X254864687Y-29289068D01*
X254799587Y-29131903D01*
X254766400Y-28965057D01*
X254766400Y-28794943D01*
X254799587Y-28628097D01*
X254864687Y-28470932D01*
X254959198Y-28329487D01*
X255079487Y-28209198D01*
X255220932Y-28114687D01*
X255378097Y-28049587D01*
X255544943Y-28016400D01*
X255715057Y-28016400D01*
X255881903Y-28049587D01*
X255881903Y-28049587D01*
G37*
G36*
X248261903Y-28049587D02*
X248419068Y-28114687D01*
X248560513Y-28209198D01*
X248680802Y-28329487D01*
X248775313Y-28470932D01*
X248840413Y-28628097D01*
X248873600Y-28794943D01*
X248873600Y-28965057D01*
X248840413Y-29131903D01*
X248775313Y-29289068D01*
X248680802Y-29430513D01*
X248560513Y-29550802D01*
X248419068Y-29645313D01*
X248261903Y-29710413D01*
X248095057Y-29743600D01*
X247924943Y-29743600D01*
X247758097Y-29710413D01*
X247600932Y-29645313D01*
X247459487Y-29550802D01*
X247339198Y-29430513D01*
X247244687Y-29289068D01*
X247179587Y-29131903D01*
X247146400Y-28965057D01*
X247146400Y-28794943D01*
X247179587Y-28628097D01*
X247244687Y-28470932D01*
X247339198Y-28329487D01*
X247459487Y-28209198D01*
X247600932Y-28114687D01*
X247758097Y-28049587D01*
X247924943Y-28016400D01*
X248095057Y-28016400D01*
X248261903Y-28049587D01*
X248261903Y-28049587D01*
G37*
G36*
X216219822Y-24480533D02*
X216302117Y-24505497D01*
X216377946Y-24546028D01*
X216444419Y-24600581D01*
X216498972Y-24667054D01*
X216539503Y-24742883D01*
X216564467Y-24825178D01*
X216573500Y-24916890D01*
X216573500Y-26668110D01*
X216564467Y-26759822D01*
X216539503Y-26842117D01*
X216498972Y-26917946D01*
X216444419Y-26984419D01*
X216377946Y-27038972D01*
X216302117Y-27079503D01*
X216219822Y-27104467D01*
X216128110Y-27113500D01*
X215011890Y-27113500D01*
X214920178Y-27104467D01*
X214837883Y-27079503D01*
X214762054Y-27038972D01*
X214695581Y-26984419D01*
X214641028Y-26917946D01*
X214600497Y-26842117D01*
X214575533Y-26759822D01*
X214566500Y-26668110D01*
X214566500Y-24916890D01*
X214575533Y-24825178D01*
X214600497Y-24742883D01*
X214641028Y-24667054D01*
X214695581Y-24600581D01*
X214762054Y-24546028D01*
X214837883Y-24505497D01*
X214920178Y-24480533D01*
X215011890Y-24471500D01*
X216128110Y-24471500D01*
X216219822Y-24480533D01*
X216219822Y-24480533D01*
G37*
G36*
X218759822Y-24480533D02*
X218842117Y-24505497D01*
X218917946Y-24546028D01*
X218984419Y-24600581D01*
X219038972Y-24667054D01*
X219079503Y-24742883D01*
X219104467Y-24825178D01*
X219113500Y-24916890D01*
X219113500Y-26668110D01*
X219104467Y-26759822D01*
X219079503Y-26842117D01*
X219038972Y-26917946D01*
X218984419Y-26984419D01*
X218917946Y-27038972D01*
X218842117Y-27079503D01*
X218759822Y-27104467D01*
X218668110Y-27113500D01*
X217551890Y-27113500D01*
X217460178Y-27104467D01*
X217377883Y-27079503D01*
X217302054Y-27038972D01*
X217235581Y-26984419D01*
X217181028Y-26917946D01*
X217140497Y-26842117D01*
X217115533Y-26759822D01*
X217106500Y-26668110D01*
X217106500Y-24916890D01*
X217115533Y-24825178D01*
X217140497Y-24742883D01*
X217181028Y-24667054D01*
X217235581Y-24600581D01*
X217302054Y-24546028D01*
X217377883Y-24505497D01*
X217460178Y-24480533D01*
X217551890Y-24471500D01*
X218668110Y-24471500D01*
X218759822Y-24480533D01*
X218759822Y-24480533D01*
G37*
G36*
X241619822Y-24480533D02*
X241702117Y-24505497D01*
X241777946Y-24546028D01*
X241844419Y-24600581D01*
X241898972Y-24667054D01*
X241939503Y-24742883D01*
X241964467Y-24825178D01*
X241973500Y-24916890D01*
X241973500Y-26668110D01*
X241964467Y-26759822D01*
X241939503Y-26842117D01*
X241898972Y-26917946D01*
X241844419Y-26984419D01*
X241777946Y-27038972D01*
X241702117Y-27079503D01*
X241619822Y-27104467D01*
X241528110Y-27113500D01*
X240411890Y-27113500D01*
X240320178Y-27104467D01*
X240237883Y-27079503D01*
X240162054Y-27038972D01*
X240095581Y-26984419D01*
X240041028Y-26917946D01*
X240000497Y-26842117D01*
X239975533Y-26759822D01*
X239966500Y-26668110D01*
X239966500Y-24916890D01*
X239975533Y-24825178D01*
X240000497Y-24742883D01*
X240041028Y-24667054D01*
X240095581Y-24600581D01*
X240162054Y-24546028D01*
X240237883Y-24505497D01*
X240320178Y-24480533D01*
X240411890Y-24471500D01*
X241528110Y-24471500D01*
X241619822Y-24480533D01*
X241619822Y-24480533D01*
G37*
G36*
X239079822Y-24480533D02*
X239162117Y-24505497D01*
X239237946Y-24546028D01*
X239304419Y-24600581D01*
X239358972Y-24667054D01*
X239399503Y-24742883D01*
X239424467Y-24825178D01*
X239433500Y-24916890D01*
X239433500Y-26668110D01*
X239424467Y-26759822D01*
X239399503Y-26842117D01*
X239358972Y-26917946D01*
X239304419Y-26984419D01*
X239237946Y-27038972D01*
X239162117Y-27079503D01*
X239079822Y-27104467D01*
X238988110Y-27113500D01*
X237871890Y-27113500D01*
X237780178Y-27104467D01*
X237697883Y-27079503D01*
X237622054Y-27038972D01*
X237555581Y-26984419D01*
X237501028Y-26917946D01*
X237460497Y-26842117D01*
X237435533Y-26759822D01*
X237426500Y-26668110D01*
X237426500Y-24916890D01*
X237435533Y-24825178D01*
X237460497Y-24742883D01*
X237501028Y-24667054D01*
X237555581Y-24600581D01*
X237622054Y-24546028D01*
X237697883Y-24505497D01*
X237780178Y-24480533D01*
X237871890Y-24471500D01*
X238988110Y-24471500D01*
X239079822Y-24480533D01*
X239079822Y-24480533D01*
G37*
G36*
X236539822Y-24480533D02*
X236622117Y-24505497D01*
X236697946Y-24546028D01*
X236764419Y-24600581D01*
X236818972Y-24667054D01*
X236859503Y-24742883D01*
X236884467Y-24825178D01*
X236893500Y-24916890D01*
X236893500Y-26668110D01*
X236884467Y-26759822D01*
X236859503Y-26842117D01*
X236818972Y-26917946D01*
X236764419Y-26984419D01*
X236697946Y-27038972D01*
X236622117Y-27079503D01*
X236539822Y-27104467D01*
X236448110Y-27113500D01*
X235331890Y-27113500D01*
X235240178Y-27104467D01*
X235157883Y-27079503D01*
X235082054Y-27038972D01*
X235015581Y-26984419D01*
X234961028Y-26917946D01*
X234920497Y-26842117D01*
X234895533Y-26759822D01*
X234886500Y-26668110D01*
X234886500Y-24916890D01*
X234895533Y-24825178D01*
X234920497Y-24742883D01*
X234961028Y-24667054D01*
X235015581Y-24600581D01*
X235082054Y-24546028D01*
X235157883Y-24505497D01*
X235240178Y-24480533D01*
X235331890Y-24471500D01*
X236448110Y-24471500D01*
X236539822Y-24480533D01*
X236539822Y-24480533D01*
G37*
G36*
X233999822Y-24480533D02*
X234082117Y-24505497D01*
X234157946Y-24546028D01*
X234224419Y-24600581D01*
X234278972Y-24667054D01*
X234319503Y-24742883D01*
X234344467Y-24825178D01*
X234353500Y-24916890D01*
X234353500Y-26668110D01*
X234344467Y-26759822D01*
X234319503Y-26842117D01*
X234278972Y-26917946D01*
X234224419Y-26984419D01*
X234157946Y-27038972D01*
X234082117Y-27079503D01*
X233999822Y-27104467D01*
X233908110Y-27113500D01*
X232791890Y-27113500D01*
X232700178Y-27104467D01*
X232617883Y-27079503D01*
X232542054Y-27038972D01*
X232475581Y-26984419D01*
X232421028Y-26917946D01*
X232380497Y-26842117D01*
X232355533Y-26759822D01*
X232346500Y-26668110D01*
X232346500Y-24916890D01*
X232355533Y-24825178D01*
X232380497Y-24742883D01*
X232421028Y-24667054D01*
X232475581Y-24600581D01*
X232542054Y-24546028D01*
X232617883Y-24505497D01*
X232700178Y-24480533D01*
X232791890Y-24471500D01*
X233908110Y-24471500D01*
X233999822Y-24480533D01*
X233999822Y-24480533D01*
G37*
G36*
X231459822Y-24480533D02*
X231542117Y-24505497D01*
X231617946Y-24546028D01*
X231684419Y-24600581D01*
X231738972Y-24667054D01*
X231779503Y-24742883D01*
X231804467Y-24825178D01*
X231813500Y-24916890D01*
X231813500Y-26668110D01*
X231804467Y-26759822D01*
X231779503Y-26842117D01*
X231738972Y-26917946D01*
X231684419Y-26984419D01*
X231617946Y-27038972D01*
X231542117Y-27079503D01*
X231459822Y-27104467D01*
X231368110Y-27113500D01*
X230251890Y-27113500D01*
X230160178Y-27104467D01*
X230077883Y-27079503D01*
X230002054Y-27038972D01*
X229935581Y-26984419D01*
X229881028Y-26917946D01*
X229840497Y-26842117D01*
X229815533Y-26759822D01*
X229806500Y-26668110D01*
X229806500Y-24916890D01*
X229815533Y-24825178D01*
X229840497Y-24742883D01*
X229881028Y-24667054D01*
X229935581Y-24600581D01*
X230002054Y-24546028D01*
X230077883Y-24505497D01*
X230160178Y-24480533D01*
X230251890Y-24471500D01*
X231368110Y-24471500D01*
X231459822Y-24480533D01*
X231459822Y-24480533D01*
G37*
G36*
X228919822Y-24480533D02*
X229002117Y-24505497D01*
X229077946Y-24546028D01*
X229144419Y-24600581D01*
X229198972Y-24667054D01*
X229239503Y-24742883D01*
X229264467Y-24825178D01*
X229273500Y-24916890D01*
X229273500Y-26668110D01*
X229264467Y-26759822D01*
X229239503Y-26842117D01*
X229198972Y-26917946D01*
X229144419Y-26984419D01*
X229077946Y-27038972D01*
X229002117Y-27079503D01*
X228919822Y-27104467D01*
X228828110Y-27113500D01*
X227711890Y-27113500D01*
X227620178Y-27104467D01*
X227537883Y-27079503D01*
X227462054Y-27038972D01*
X227395581Y-26984419D01*
X227341028Y-26917946D01*
X227300497Y-26842117D01*
X227275533Y-26759822D01*
X227266500Y-26668110D01*
X227266500Y-24916890D01*
X227275533Y-24825178D01*
X227300497Y-24742883D01*
X227341028Y-24667054D01*
X227395581Y-24600581D01*
X227462054Y-24546028D01*
X227537883Y-24505497D01*
X227620178Y-24480533D01*
X227711890Y-24471500D01*
X228828110Y-24471500D01*
X228919822Y-24480533D01*
X228919822Y-24480533D01*
G37*
G36*
X226379822Y-24480533D02*
X226462117Y-24505497D01*
X226537946Y-24546028D01*
X226604419Y-24600581D01*
X226658972Y-24667054D01*
X226699503Y-24742883D01*
X226724467Y-24825178D01*
X226733500Y-24916890D01*
X226733500Y-26668110D01*
X226724467Y-26759822D01*
X226699503Y-26842117D01*
X226658972Y-26917946D01*
X226604419Y-26984419D01*
X226537946Y-27038972D01*
X226462117Y-27079503D01*
X226379822Y-27104467D01*
X226288110Y-27113500D01*
X225171890Y-27113500D01*
X225080178Y-27104467D01*
X224997883Y-27079503D01*
X224922054Y-27038972D01*
X224855581Y-26984419D01*
X224801028Y-26917946D01*
X224760497Y-26842117D01*
X224735533Y-26759822D01*
X224726500Y-26668110D01*
X224726500Y-24916890D01*
X224735533Y-24825178D01*
X224760497Y-24742883D01*
X224801028Y-24667054D01*
X224855581Y-24600581D01*
X224922054Y-24546028D01*
X224997883Y-24505497D01*
X225080178Y-24480533D01*
X225171890Y-24471500D01*
X226288110Y-24471500D01*
X226379822Y-24480533D01*
X226379822Y-24480533D01*
G37*
G36*
X223839822Y-24480533D02*
X223922117Y-24505497D01*
X223997946Y-24546028D01*
X224064419Y-24600581D01*
X224118972Y-24667054D01*
X224159503Y-24742883D01*
X224184467Y-24825178D01*
X224193500Y-24916890D01*
X224193500Y-26668110D01*
X224184467Y-26759822D01*
X224159503Y-26842117D01*
X224118972Y-26917946D01*
X224064419Y-26984419D01*
X223997946Y-27038972D01*
X223922117Y-27079503D01*
X223839822Y-27104467D01*
X223748110Y-27113500D01*
X222631890Y-27113500D01*
X222540178Y-27104467D01*
X222457883Y-27079503D01*
X222382054Y-27038972D01*
X222315581Y-26984419D01*
X222261028Y-26917946D01*
X222220497Y-26842117D01*
X222195533Y-26759822D01*
X222186500Y-26668110D01*
X222186500Y-24916890D01*
X222195533Y-24825178D01*
X222220497Y-24742883D01*
X222261028Y-24667054D01*
X222315581Y-24600581D01*
X222382054Y-24546028D01*
X222457883Y-24505497D01*
X222540178Y-24480533D01*
X222631890Y-24471500D01*
X223748110Y-24471500D01*
X223839822Y-24480533D01*
X223839822Y-24480533D01*
G37*
G36*
X221299822Y-24480533D02*
X221382117Y-24505497D01*
X221457946Y-24546028D01*
X221524419Y-24600581D01*
X221578972Y-24667054D01*
X221619503Y-24742883D01*
X221644467Y-24825178D01*
X221653500Y-24916890D01*
X221653500Y-26668110D01*
X221644467Y-26759822D01*
X221619503Y-26842117D01*
X221578972Y-26917946D01*
X221524419Y-26984419D01*
X221457946Y-27038972D01*
X221382117Y-27079503D01*
X221299822Y-27104467D01*
X221208110Y-27113500D01*
X220091890Y-27113500D01*
X220000178Y-27104467D01*
X219917883Y-27079503D01*
X219842054Y-27038972D01*
X219775581Y-26984419D01*
X219721028Y-26917946D01*
X219680497Y-26842117D01*
X219655533Y-26759822D01*
X219646500Y-26668110D01*
X219646500Y-24916890D01*
X219655533Y-24825178D01*
X219680497Y-24742883D01*
X219721028Y-24667054D01*
X219775581Y-24600581D01*
X219842054Y-24546028D01*
X219917883Y-24505497D01*
X220000178Y-24480533D01*
X220091890Y-24471500D01*
X221208110Y-24471500D01*
X221299822Y-24480533D01*
X221299822Y-24480533D01*
G37*
G36*
X213679822Y-24480533D02*
X213762117Y-24505497D01*
X213837946Y-24546028D01*
X213904419Y-24600581D01*
X213958972Y-24667054D01*
X213999503Y-24742883D01*
X214024467Y-24825178D01*
X214033500Y-24916890D01*
X214033500Y-26668110D01*
X214024467Y-26759822D01*
X213999503Y-26842117D01*
X213958972Y-26917946D01*
X213904419Y-26984419D01*
X213837946Y-27038972D01*
X213762117Y-27079503D01*
X213679822Y-27104467D01*
X213588110Y-27113500D01*
X212471890Y-27113500D01*
X212380178Y-27104467D01*
X212297883Y-27079503D01*
X212222054Y-27038972D01*
X212155581Y-26984419D01*
X212101028Y-26917946D01*
X212060497Y-26842117D01*
X212035533Y-26759822D01*
X212026500Y-26668110D01*
X212026500Y-24916890D01*
X212035533Y-24825178D01*
X212060497Y-24742883D01*
X212101028Y-24667054D01*
X212155581Y-24600581D01*
X212222054Y-24546028D01*
X212297883Y-24505497D01*
X212380178Y-24480533D01*
X212471890Y-24471500D01*
X213588110Y-24471500D01*
X213679822Y-24480533D01*
X213679822Y-24480533D01*
G37*
G36*
X271076821Y-24411313D02*
X271076824Y-24411314D01*
X271076825Y-24411314D01*
X271237239Y-24459975D01*
X271237241Y-24459976D01*
X271237244Y-24459977D01*
X271385078Y-24538995D01*
X271514659Y-24645341D01*
X271621005Y-24774922D01*
X271700023Y-24922756D01*
X271700024Y-24922759D01*
X271700025Y-24922761D01*
X271748686Y-25083175D01*
X271748687Y-25083179D01*
X271765117Y-25250000D01*
X271748687Y-25416821D01*
X271748686Y-25416824D01*
X271748686Y-25416825D01*
X271723993Y-25498228D01*
X271700023Y-25577244D01*
X271621005Y-25725078D01*
X271514659Y-25854659D01*
X271385078Y-25961005D01*
X271237244Y-26040023D01*
X271237241Y-26040024D01*
X271237239Y-26040025D01*
X271076825Y-26088686D01*
X271076824Y-26088686D01*
X271076821Y-26088687D01*
X270951804Y-26101000D01*
X270868196Y-26101000D01*
X270743179Y-26088687D01*
X270743176Y-26088686D01*
X270743175Y-26088686D01*
X270582761Y-26040025D01*
X270582759Y-26040024D01*
X270582756Y-26040023D01*
X270434922Y-25961005D01*
X270305341Y-25854659D01*
X270198995Y-25725078D01*
X270119977Y-25577244D01*
X270096008Y-25498228D01*
X270071314Y-25416825D01*
X270071314Y-25416824D01*
X270071313Y-25416821D01*
X270054883Y-25250000D01*
X270071313Y-25083179D01*
X270071314Y-25083175D01*
X270119975Y-24922761D01*
X270119976Y-24922759D01*
X270119977Y-24922756D01*
X270198995Y-24774922D01*
X270305341Y-24645341D01*
X270434922Y-24538995D01*
X270582756Y-24459977D01*
X270582759Y-24459976D01*
X270582761Y-24459975D01*
X270743175Y-24411314D01*
X270743176Y-24411314D01*
X270743179Y-24411313D01*
X270868196Y-24399000D01*
X270951804Y-24399000D01*
X271076821Y-24411313D01*
X271076821Y-24411313D01*
G37*
G36*
X260998228Y-24431703D02*
X261153100Y-24495853D01*
X261292481Y-24588985D01*
X261411015Y-24707519D01*
X261504147Y-24846900D01*
X261568297Y-25001772D01*
X261601000Y-25166184D01*
X261601000Y-25333816D01*
X261568297Y-25498228D01*
X261504147Y-25653100D01*
X261411015Y-25792481D01*
X261292481Y-25911015D01*
X261153100Y-26004147D01*
X260998228Y-26068297D01*
X260833816Y-26101000D01*
X260666184Y-26101000D01*
X260501772Y-26068297D01*
X260346900Y-26004147D01*
X260207519Y-25911015D01*
X260088985Y-25792481D01*
X259995853Y-25653100D01*
X259931703Y-25498228D01*
X259899000Y-25333816D01*
X259899000Y-25166184D01*
X259931703Y-25001772D01*
X259995853Y-24846900D01*
X260088985Y-24707519D01*
X260207519Y-24588985D01*
X260346900Y-24495853D01*
X260501772Y-24431703D01*
X260666184Y-24399000D01*
X260833816Y-24399000D01*
X260998228Y-24431703D01*
X260998228Y-24431703D01*
G37*
G36*
X281201000Y-25701000D02*
X279299000Y-25701000D01*
X279299000Y-23799000D01*
X281201000Y-23799000D01*
X281201000Y-25701000D01*
X281201000Y-25701000D01*
G37*
G36*
X254806000Y-25451000D02*
X253154000Y-25451000D01*
X253154000Y-24049000D01*
X254806000Y-24049000D01*
X254806000Y-25451000D01*
X254806000Y-25451000D01*
G37*
G36*
X246846000Y-25451000D02*
X245194000Y-25451000D01*
X245194000Y-24049000D01*
X246846000Y-24049000D01*
X246846000Y-25451000D01*
X246846000Y-25451000D01*
G37*
G36*
X280527396Y-21295546D02*
X280700466Y-21367234D01*
X280856230Y-21471312D01*
X280988688Y-21603770D01*
X281092766Y-21759534D01*
X281164454Y-21932604D01*
X281201000Y-22116333D01*
X281201000Y-22303667D01*
X281164454Y-22487396D01*
X281092766Y-22660466D01*
X280988688Y-22816230D01*
X280856230Y-22948688D01*
X280700466Y-23052766D01*
X280527396Y-23124454D01*
X280343667Y-23161000D01*
X280156333Y-23161000D01*
X279972604Y-23124454D01*
X279799534Y-23052766D01*
X279643770Y-22948688D01*
X279511312Y-22816230D01*
X279407234Y-22660466D01*
X279335546Y-22487396D01*
X279299000Y-22303667D01*
X279299000Y-22116333D01*
X279335546Y-21932604D01*
X279407234Y-21759534D01*
X279511312Y-21603770D01*
X279643770Y-21471312D01*
X279799534Y-21367234D01*
X279972604Y-21295546D01*
X280156333Y-21259000D01*
X280343667Y-21259000D01*
X280527396Y-21295546D01*
X280527396Y-21295546D01*
G37*
G36*
X268326821Y-20911313D02*
X268326824Y-20911314D01*
X268326825Y-20911314D01*
X268487239Y-20959975D01*
X268487241Y-20959976D01*
X268487244Y-20959977D01*
X268635078Y-21038995D01*
X268764659Y-21145341D01*
X268871005Y-21274922D01*
X268950023Y-21422756D01*
X268950024Y-21422759D01*
X268950025Y-21422761D01*
X268998686Y-21583175D01*
X268998687Y-21583179D01*
X269015117Y-21750000D01*
X268998687Y-21916821D01*
X268998686Y-21916824D01*
X268998686Y-21916825D01*
X268973993Y-21998228D01*
X268950023Y-22077244D01*
X268871005Y-22225078D01*
X268764659Y-22354659D01*
X268635078Y-22461005D01*
X268487244Y-22540023D01*
X268487241Y-22540024D01*
X268487239Y-22540025D01*
X268326825Y-22588686D01*
X268326824Y-22588686D01*
X268326821Y-22588687D01*
X268201804Y-22601000D01*
X268118196Y-22601000D01*
X267993179Y-22588687D01*
X267993176Y-22588686D01*
X267993175Y-22588686D01*
X267832761Y-22540025D01*
X267832759Y-22540024D01*
X267832756Y-22540023D01*
X267684922Y-22461005D01*
X267555341Y-22354659D01*
X267448995Y-22225078D01*
X267369977Y-22077244D01*
X267346008Y-21998228D01*
X267321314Y-21916825D01*
X267321314Y-21916824D01*
X267321313Y-21916821D01*
X267304883Y-21750000D01*
X267321313Y-21583179D01*
X267321314Y-21583175D01*
X267369975Y-21422761D01*
X267369976Y-21422759D01*
X267369977Y-21422756D01*
X267448995Y-21274922D01*
X267555341Y-21145341D01*
X267684922Y-21038995D01*
X267832756Y-20959977D01*
X267832759Y-20959976D01*
X267832761Y-20959975D01*
X267993175Y-20911314D01*
X267993176Y-20911314D01*
X267993179Y-20911313D01*
X268118196Y-20899000D01*
X268201804Y-20899000D01*
X268326821Y-20911313D01*
X268326821Y-20911313D01*
G37*
G36*
X258248228Y-20931703D02*
X258403100Y-20995853D01*
X258542481Y-21088985D01*
X258661015Y-21207519D01*
X258754147Y-21346900D01*
X258818297Y-21501772D01*
X258851000Y-21666184D01*
X258851000Y-21833816D01*
X258818297Y-21998228D01*
X258754147Y-22153100D01*
X258661015Y-22292481D01*
X258542481Y-22411015D01*
X258403100Y-22504147D01*
X258248228Y-22568297D01*
X258083816Y-22601000D01*
X257916184Y-22601000D01*
X257751772Y-22568297D01*
X257596900Y-22504147D01*
X257457519Y-22411015D01*
X257338985Y-22292481D01*
X257245853Y-22153100D01*
X257181703Y-21998228D01*
X257149000Y-21833816D01*
X257149000Y-21666184D01*
X257181703Y-21501772D01*
X257245853Y-21346900D01*
X257338985Y-21207519D01*
X257457519Y-21088985D01*
X257596900Y-20995853D01*
X257751772Y-20931703D01*
X257916184Y-20899000D01*
X258083816Y-20899000D01*
X258248228Y-20931703D01*
X258248228Y-20931703D01*
G37*
G36*
X254806000Y-20951000D02*
X253154000Y-20951000D01*
X253154000Y-19549000D01*
X254806000Y-19549000D01*
X254806000Y-20951000D01*
X254806000Y-20951000D01*
G37*
G36*
X246846000Y-20951000D02*
X245194000Y-20951000D01*
X245194000Y-19549000D01*
X246846000Y-19549000D01*
X246846000Y-20951000D01*
X246846000Y-20951000D01*
G37*
G36*
X280527396Y-18755546D02*
X280700466Y-18827234D01*
X280856230Y-18931312D01*
X280988688Y-19063770D01*
X281092766Y-19219534D01*
X281164454Y-19392604D01*
X281201000Y-19576333D01*
X281201000Y-19763667D01*
X281164454Y-19947396D01*
X281092766Y-20120466D01*
X280988688Y-20276230D01*
X280856230Y-20408688D01*
X280700466Y-20512766D01*
X280527396Y-20584454D01*
X280343667Y-20621000D01*
X280156333Y-20621000D01*
X279972604Y-20584454D01*
X279799534Y-20512766D01*
X279643770Y-20408688D01*
X279511312Y-20276230D01*
X279407234Y-20120466D01*
X279335546Y-19947396D01*
X279299000Y-19763667D01*
X279299000Y-19576333D01*
X279335546Y-19392604D01*
X279407234Y-19219534D01*
X279511312Y-19063770D01*
X279643770Y-18931312D01*
X279799534Y-18827234D01*
X279972604Y-18755546D01*
X280156333Y-18719000D01*
X280343667Y-18719000D01*
X280527396Y-18755546D01*
X280527396Y-18755546D01*
G37*
M02*
