G04 #@! TF.GenerationSoftware,KiCad,Pcbnew,(5.0.0-3-g5ebb6b6)*
G04 #@! TF.CreationDate,2021-01-19T19:10:24+01:00*
G04 #@! TF.ProjectId,HB-RC-4-TOUCH,48422D52432D342D544F5543482E6B69,rev?*
G04 #@! TF.SameCoordinates,Original*
G04 #@! TF.FileFunction,Soldermask,Bot*
G04 #@! TF.FilePolarity,Negative*
%FSLAX46Y46*%
G04 Gerber Fmt 4.6, Leading zero omitted, Abs format (unit mm)*
G04 Created by KiCad (PCBNEW (5.0.0-3-g5ebb6b6)) date 2021 January 19, Tuesday 19:10:24*
%MOMM*%
%LPD*%
G01*
G04 APERTURE LIST*
%ADD10C,0.100000*%
G04 APERTURE END LIST*
D10*
G36*
X273676776Y-43240547D02*
X273676778Y-43240548D01*
X273676779Y-43240548D01*
X273843225Y-43309492D01*
X273843226Y-43309493D01*
X273993026Y-43409586D01*
X274120414Y-43536974D01*
X274120416Y-43536977D01*
X274220508Y-43686775D01*
X274289452Y-43853221D01*
X274324600Y-44029920D01*
X274324600Y-44210080D01*
X274289452Y-44386779D01*
X274220508Y-44553225D01*
X274220507Y-44553226D01*
X274120414Y-44703026D01*
X273993026Y-44830414D01*
X273993023Y-44830416D01*
X273843225Y-44930508D01*
X273676779Y-44999452D01*
X273676778Y-44999452D01*
X273676776Y-44999453D01*
X273500082Y-45034600D01*
X273319918Y-45034600D01*
X273143224Y-44999453D01*
X273143222Y-44999452D01*
X273143221Y-44999452D01*
X272976775Y-44930508D01*
X272826977Y-44830416D01*
X272826974Y-44830414D01*
X272699586Y-44703026D01*
X272599493Y-44553226D01*
X272599492Y-44553225D01*
X272530548Y-44386779D01*
X272495400Y-44210080D01*
X272495400Y-44029920D01*
X272530548Y-43853221D01*
X272599492Y-43686775D01*
X272699584Y-43536977D01*
X272699586Y-43536974D01*
X272826974Y-43409586D01*
X272976774Y-43309493D01*
X272976775Y-43309492D01*
X273143221Y-43240548D01*
X273143222Y-43240548D01*
X273143224Y-43240547D01*
X273319918Y-43205400D01*
X273500082Y-43205400D01*
X273676776Y-43240547D01*
X273676776Y-43240547D01*
G37*
G36*
X268596776Y-43240547D02*
X268596778Y-43240548D01*
X268596779Y-43240548D01*
X268763225Y-43309492D01*
X268763226Y-43309493D01*
X268913026Y-43409586D01*
X269040414Y-43536974D01*
X269040416Y-43536977D01*
X269140508Y-43686775D01*
X269209452Y-43853221D01*
X269244600Y-44029920D01*
X269244600Y-44210080D01*
X269209452Y-44386779D01*
X269140508Y-44553225D01*
X269140507Y-44553226D01*
X269040414Y-44703026D01*
X268913026Y-44830414D01*
X268913023Y-44830416D01*
X268763225Y-44930508D01*
X268596779Y-44999452D01*
X268596778Y-44999452D01*
X268596776Y-44999453D01*
X268420082Y-45034600D01*
X268239918Y-45034600D01*
X268063224Y-44999453D01*
X268063222Y-44999452D01*
X268063221Y-44999452D01*
X267896775Y-44930508D01*
X267746977Y-44830416D01*
X267746974Y-44830414D01*
X267619586Y-44703026D01*
X267519493Y-44553226D01*
X267519492Y-44553225D01*
X267450548Y-44386779D01*
X267415400Y-44210080D01*
X267415400Y-44029920D01*
X267450548Y-43853221D01*
X267519492Y-43686775D01*
X267619584Y-43536977D01*
X267619586Y-43536974D01*
X267746974Y-43409586D01*
X267896774Y-43309493D01*
X267896775Y-43309492D01*
X268063221Y-43240548D01*
X268063222Y-43240548D01*
X268063224Y-43240547D01*
X268239918Y-43205400D01*
X268420082Y-43205400D01*
X268596776Y-43240547D01*
X268596776Y-43240547D01*
G37*
G36*
X255896776Y-43240547D02*
X255896778Y-43240548D01*
X255896779Y-43240548D01*
X256063225Y-43309492D01*
X256063226Y-43309493D01*
X256213026Y-43409586D01*
X256340414Y-43536974D01*
X256340416Y-43536977D01*
X256440508Y-43686775D01*
X256509452Y-43853221D01*
X256544600Y-44029920D01*
X256544600Y-44210080D01*
X256509452Y-44386779D01*
X256440508Y-44553225D01*
X256440507Y-44553226D01*
X256340414Y-44703026D01*
X256213026Y-44830414D01*
X256213023Y-44830416D01*
X256063225Y-44930508D01*
X255896779Y-44999452D01*
X255896778Y-44999452D01*
X255896776Y-44999453D01*
X255720082Y-45034600D01*
X255539918Y-45034600D01*
X255363224Y-44999453D01*
X255363222Y-44999452D01*
X255363221Y-44999452D01*
X255196775Y-44930508D01*
X255046977Y-44830416D01*
X255046974Y-44830414D01*
X254919586Y-44703026D01*
X254819493Y-44553226D01*
X254819492Y-44553225D01*
X254750548Y-44386779D01*
X254715400Y-44210080D01*
X254715400Y-44029920D01*
X254750548Y-43853221D01*
X254819492Y-43686775D01*
X254919584Y-43536977D01*
X254919586Y-43536974D01*
X255046974Y-43409586D01*
X255196774Y-43309493D01*
X255196775Y-43309492D01*
X255363221Y-43240548D01*
X255363222Y-43240548D01*
X255363224Y-43240547D01*
X255539918Y-43205400D01*
X255720082Y-43205400D01*
X255896776Y-43240547D01*
X255896776Y-43240547D01*
G37*
G36*
X253356776Y-43240547D02*
X253356778Y-43240548D01*
X253356779Y-43240548D01*
X253523225Y-43309492D01*
X253523226Y-43309493D01*
X253673026Y-43409586D01*
X253800414Y-43536974D01*
X253800416Y-43536977D01*
X253900508Y-43686775D01*
X253969452Y-43853221D01*
X254004600Y-44029920D01*
X254004600Y-44210080D01*
X253969452Y-44386779D01*
X253900508Y-44553225D01*
X253900507Y-44553226D01*
X253800414Y-44703026D01*
X253673026Y-44830414D01*
X253673023Y-44830416D01*
X253523225Y-44930508D01*
X253356779Y-44999452D01*
X253356778Y-44999452D01*
X253356776Y-44999453D01*
X253180082Y-45034600D01*
X252999918Y-45034600D01*
X252823224Y-44999453D01*
X252823222Y-44999452D01*
X252823221Y-44999452D01*
X252656775Y-44930508D01*
X252506977Y-44830416D01*
X252506974Y-44830414D01*
X252379586Y-44703026D01*
X252279493Y-44553226D01*
X252279492Y-44553225D01*
X252210548Y-44386779D01*
X252175400Y-44210080D01*
X252175400Y-44029920D01*
X252210548Y-43853221D01*
X252279492Y-43686775D01*
X252379584Y-43536977D01*
X252379586Y-43536974D01*
X252506974Y-43409586D01*
X252656774Y-43309493D01*
X252656775Y-43309492D01*
X252823221Y-43240548D01*
X252823222Y-43240548D01*
X252823224Y-43240547D01*
X252999918Y-43205400D01*
X253180082Y-43205400D01*
X253356776Y-43240547D01*
X253356776Y-43240547D01*
G37*
G36*
X250816776Y-43240547D02*
X250816778Y-43240548D01*
X250816779Y-43240548D01*
X250983225Y-43309492D01*
X250983226Y-43309493D01*
X251133026Y-43409586D01*
X251260414Y-43536974D01*
X251260416Y-43536977D01*
X251360508Y-43686775D01*
X251429452Y-43853221D01*
X251464600Y-44029920D01*
X251464600Y-44210080D01*
X251429452Y-44386779D01*
X251360508Y-44553225D01*
X251360507Y-44553226D01*
X251260414Y-44703026D01*
X251133026Y-44830414D01*
X251133023Y-44830416D01*
X250983225Y-44930508D01*
X250816779Y-44999452D01*
X250816778Y-44999452D01*
X250816776Y-44999453D01*
X250640082Y-45034600D01*
X250459918Y-45034600D01*
X250283224Y-44999453D01*
X250283222Y-44999452D01*
X250283221Y-44999452D01*
X250116775Y-44930508D01*
X249966977Y-44830416D01*
X249966974Y-44830414D01*
X249839586Y-44703026D01*
X249739493Y-44553226D01*
X249739492Y-44553225D01*
X249670548Y-44386779D01*
X249635400Y-44210080D01*
X249635400Y-44029920D01*
X249670548Y-43853221D01*
X249739492Y-43686775D01*
X249839584Y-43536977D01*
X249839586Y-43536974D01*
X249966974Y-43409586D01*
X250116774Y-43309493D01*
X250116775Y-43309492D01*
X250283221Y-43240548D01*
X250283222Y-43240548D01*
X250283224Y-43240547D01*
X250459918Y-43205400D01*
X250640082Y-43205400D01*
X250816776Y-43240547D01*
X250816776Y-43240547D01*
G37*
G36*
X248276776Y-43240547D02*
X248276778Y-43240548D01*
X248276779Y-43240548D01*
X248443225Y-43309492D01*
X248443226Y-43309493D01*
X248593026Y-43409586D01*
X248720414Y-43536974D01*
X248720416Y-43536977D01*
X248820508Y-43686775D01*
X248889452Y-43853221D01*
X248924600Y-44029920D01*
X248924600Y-44210080D01*
X248889452Y-44386779D01*
X248820508Y-44553225D01*
X248820507Y-44553226D01*
X248720414Y-44703026D01*
X248593026Y-44830414D01*
X248593023Y-44830416D01*
X248443225Y-44930508D01*
X248276779Y-44999452D01*
X248276778Y-44999452D01*
X248276776Y-44999453D01*
X248100082Y-45034600D01*
X247919918Y-45034600D01*
X247743224Y-44999453D01*
X247743222Y-44999452D01*
X247743221Y-44999452D01*
X247576775Y-44930508D01*
X247426977Y-44830416D01*
X247426974Y-44830414D01*
X247299586Y-44703026D01*
X247199493Y-44553226D01*
X247199492Y-44553225D01*
X247130548Y-44386779D01*
X247095400Y-44210080D01*
X247095400Y-44029920D01*
X247130548Y-43853221D01*
X247199492Y-43686775D01*
X247299584Y-43536977D01*
X247299586Y-43536974D01*
X247426974Y-43409586D01*
X247576774Y-43309493D01*
X247576775Y-43309492D01*
X247743221Y-43240548D01*
X247743222Y-43240548D01*
X247743224Y-43240547D01*
X247919918Y-43205400D01*
X248100082Y-43205400D01*
X248276776Y-43240547D01*
X248276776Y-43240547D01*
G37*
G36*
X248924600Y-37414600D02*
X247095400Y-37414600D01*
X247095400Y-35585400D01*
X248924600Y-35585400D01*
X248924600Y-37414600D01*
X248924600Y-37414600D01*
G37*
G36*
X250816776Y-28000547D02*
X250816778Y-28000548D01*
X250816779Y-28000548D01*
X250983225Y-28069492D01*
X250983226Y-28069493D01*
X251133026Y-28169586D01*
X251260414Y-28296974D01*
X251260416Y-28296977D01*
X251360508Y-28446775D01*
X251429452Y-28613221D01*
X251464600Y-28789920D01*
X251464600Y-28970080D01*
X251429452Y-29146779D01*
X251360508Y-29313225D01*
X251360507Y-29313226D01*
X251260414Y-29463026D01*
X251133026Y-29590414D01*
X251133023Y-29590416D01*
X250983225Y-29690508D01*
X250816779Y-29759452D01*
X250816778Y-29759452D01*
X250816776Y-29759453D01*
X250640082Y-29794600D01*
X250459918Y-29794600D01*
X250283224Y-29759453D01*
X250283222Y-29759452D01*
X250283221Y-29759452D01*
X250116775Y-29690508D01*
X249966977Y-29590416D01*
X249966974Y-29590414D01*
X249839586Y-29463026D01*
X249739493Y-29313226D01*
X249739492Y-29313225D01*
X249670548Y-29146779D01*
X249635400Y-28970080D01*
X249635400Y-28789920D01*
X249670548Y-28613221D01*
X249739492Y-28446775D01*
X249839584Y-28296977D01*
X249839586Y-28296974D01*
X249966974Y-28169586D01*
X250116774Y-28069493D01*
X250116775Y-28069492D01*
X250283221Y-28000548D01*
X250283222Y-28000548D01*
X250283224Y-28000547D01*
X250459918Y-27965400D01*
X250640082Y-27965400D01*
X250816776Y-28000547D01*
X250816776Y-28000547D01*
G37*
G36*
X263516776Y-28000547D02*
X263516778Y-28000548D01*
X263516779Y-28000548D01*
X263683225Y-28069492D01*
X263683226Y-28069493D01*
X263833026Y-28169586D01*
X263960414Y-28296974D01*
X263960416Y-28296977D01*
X264060508Y-28446775D01*
X264129452Y-28613221D01*
X264164600Y-28789920D01*
X264164600Y-28970080D01*
X264129452Y-29146779D01*
X264060508Y-29313225D01*
X264060507Y-29313226D01*
X263960414Y-29463026D01*
X263833026Y-29590414D01*
X263833023Y-29590416D01*
X263683225Y-29690508D01*
X263516779Y-29759452D01*
X263516778Y-29759452D01*
X263516776Y-29759453D01*
X263340082Y-29794600D01*
X263159918Y-29794600D01*
X262983224Y-29759453D01*
X262983222Y-29759452D01*
X262983221Y-29759452D01*
X262816775Y-29690508D01*
X262666977Y-29590416D01*
X262666974Y-29590414D01*
X262539586Y-29463026D01*
X262439493Y-29313226D01*
X262439492Y-29313225D01*
X262370548Y-29146779D01*
X262335400Y-28970080D01*
X262335400Y-28789920D01*
X262370548Y-28613221D01*
X262439492Y-28446775D01*
X262539584Y-28296977D01*
X262539586Y-28296974D01*
X262666974Y-28169586D01*
X262816774Y-28069493D01*
X262816775Y-28069492D01*
X262983221Y-28000548D01*
X262983222Y-28000548D01*
X262983224Y-28000547D01*
X263159918Y-27965400D01*
X263340082Y-27965400D01*
X263516776Y-28000547D01*
X263516776Y-28000547D01*
G37*
G36*
X266056776Y-28000547D02*
X266056778Y-28000548D01*
X266056779Y-28000548D01*
X266223225Y-28069492D01*
X266223226Y-28069493D01*
X266373026Y-28169586D01*
X266500414Y-28296974D01*
X266500416Y-28296977D01*
X266600508Y-28446775D01*
X266669452Y-28613221D01*
X266704600Y-28789920D01*
X266704600Y-28970080D01*
X266669452Y-29146779D01*
X266600508Y-29313225D01*
X266600507Y-29313226D01*
X266500414Y-29463026D01*
X266373026Y-29590414D01*
X266373023Y-29590416D01*
X266223225Y-29690508D01*
X266056779Y-29759452D01*
X266056778Y-29759452D01*
X266056776Y-29759453D01*
X265880082Y-29794600D01*
X265699918Y-29794600D01*
X265523224Y-29759453D01*
X265523222Y-29759452D01*
X265523221Y-29759452D01*
X265356775Y-29690508D01*
X265206977Y-29590416D01*
X265206974Y-29590414D01*
X265079586Y-29463026D01*
X264979493Y-29313226D01*
X264979492Y-29313225D01*
X264910548Y-29146779D01*
X264875400Y-28970080D01*
X264875400Y-28789920D01*
X264910548Y-28613221D01*
X264979492Y-28446775D01*
X265079584Y-28296977D01*
X265079586Y-28296974D01*
X265206974Y-28169586D01*
X265356774Y-28069493D01*
X265356775Y-28069492D01*
X265523221Y-28000548D01*
X265523222Y-28000548D01*
X265523224Y-28000547D01*
X265699918Y-27965400D01*
X265880082Y-27965400D01*
X266056776Y-28000547D01*
X266056776Y-28000547D01*
G37*
G36*
X260976776Y-28000547D02*
X260976778Y-28000548D01*
X260976779Y-28000548D01*
X261143225Y-28069492D01*
X261143226Y-28069493D01*
X261293026Y-28169586D01*
X261420414Y-28296974D01*
X261420416Y-28296977D01*
X261520508Y-28446775D01*
X261589452Y-28613221D01*
X261624600Y-28789920D01*
X261624600Y-28970080D01*
X261589452Y-29146779D01*
X261520508Y-29313225D01*
X261520507Y-29313226D01*
X261420414Y-29463026D01*
X261293026Y-29590414D01*
X261293023Y-29590416D01*
X261143225Y-29690508D01*
X260976779Y-29759452D01*
X260976778Y-29759452D01*
X260976776Y-29759453D01*
X260800082Y-29794600D01*
X260619918Y-29794600D01*
X260443224Y-29759453D01*
X260443222Y-29759452D01*
X260443221Y-29759452D01*
X260276775Y-29690508D01*
X260126977Y-29590416D01*
X260126974Y-29590414D01*
X259999586Y-29463026D01*
X259899493Y-29313226D01*
X259899492Y-29313225D01*
X259830548Y-29146779D01*
X259795400Y-28970080D01*
X259795400Y-28789920D01*
X259830548Y-28613221D01*
X259899492Y-28446775D01*
X259999584Y-28296977D01*
X259999586Y-28296974D01*
X260126974Y-28169586D01*
X260276774Y-28069493D01*
X260276775Y-28069492D01*
X260443221Y-28000548D01*
X260443222Y-28000548D01*
X260443224Y-28000547D01*
X260619918Y-27965400D01*
X260800082Y-27965400D01*
X260976776Y-28000547D01*
X260976776Y-28000547D01*
G37*
G36*
X258436776Y-28000547D02*
X258436778Y-28000548D01*
X258436779Y-28000548D01*
X258603225Y-28069492D01*
X258603226Y-28069493D01*
X258753026Y-28169586D01*
X258880414Y-28296974D01*
X258880416Y-28296977D01*
X258980508Y-28446775D01*
X259049452Y-28613221D01*
X259084600Y-28789920D01*
X259084600Y-28970080D01*
X259049452Y-29146779D01*
X258980508Y-29313225D01*
X258980507Y-29313226D01*
X258880414Y-29463026D01*
X258753026Y-29590414D01*
X258753023Y-29590416D01*
X258603225Y-29690508D01*
X258436779Y-29759452D01*
X258436778Y-29759452D01*
X258436776Y-29759453D01*
X258260082Y-29794600D01*
X258079918Y-29794600D01*
X257903224Y-29759453D01*
X257903222Y-29759452D01*
X257903221Y-29759452D01*
X257736775Y-29690508D01*
X257586977Y-29590416D01*
X257586974Y-29590414D01*
X257459586Y-29463026D01*
X257359493Y-29313226D01*
X257359492Y-29313225D01*
X257290548Y-29146779D01*
X257255400Y-28970080D01*
X257255400Y-28789920D01*
X257290548Y-28613221D01*
X257359492Y-28446775D01*
X257459584Y-28296977D01*
X257459586Y-28296974D01*
X257586974Y-28169586D01*
X257736774Y-28069493D01*
X257736775Y-28069492D01*
X257903221Y-28000548D01*
X257903222Y-28000548D01*
X257903224Y-28000547D01*
X258079918Y-27965400D01*
X258260082Y-27965400D01*
X258436776Y-28000547D01*
X258436776Y-28000547D01*
G37*
G36*
X268596776Y-28000547D02*
X268596778Y-28000548D01*
X268596779Y-28000548D01*
X268763225Y-28069492D01*
X268763226Y-28069493D01*
X268913026Y-28169586D01*
X269040414Y-28296974D01*
X269040416Y-28296977D01*
X269140508Y-28446775D01*
X269209452Y-28613221D01*
X269244600Y-28789920D01*
X269244600Y-28970080D01*
X269209452Y-29146779D01*
X269140508Y-29313225D01*
X269140507Y-29313226D01*
X269040414Y-29463026D01*
X268913026Y-29590414D01*
X268913023Y-29590416D01*
X268763225Y-29690508D01*
X268596779Y-29759452D01*
X268596778Y-29759452D01*
X268596776Y-29759453D01*
X268420082Y-29794600D01*
X268239918Y-29794600D01*
X268063224Y-29759453D01*
X268063222Y-29759452D01*
X268063221Y-29759452D01*
X267896775Y-29690508D01*
X267746977Y-29590416D01*
X267746974Y-29590414D01*
X267619586Y-29463026D01*
X267519493Y-29313226D01*
X267519492Y-29313225D01*
X267450548Y-29146779D01*
X267415400Y-28970080D01*
X267415400Y-28789920D01*
X267450548Y-28613221D01*
X267519492Y-28446775D01*
X267619584Y-28296977D01*
X267619586Y-28296974D01*
X267746974Y-28169586D01*
X267896774Y-28069493D01*
X267896775Y-28069492D01*
X268063221Y-28000548D01*
X268063222Y-28000548D01*
X268063224Y-28000547D01*
X268239918Y-27965400D01*
X268420082Y-27965400D01*
X268596776Y-28000547D01*
X268596776Y-28000547D01*
G37*
G36*
X260998228Y-24431703D02*
X261153100Y-24495853D01*
X261292481Y-24588985D01*
X261411015Y-24707519D01*
X261504147Y-24846900D01*
X261568297Y-25001772D01*
X261601000Y-25166184D01*
X261601000Y-25333816D01*
X261568297Y-25498228D01*
X261504147Y-25653100D01*
X261411015Y-25792481D01*
X261292481Y-25911015D01*
X261153100Y-26004147D01*
X260998228Y-26068297D01*
X260833816Y-26101000D01*
X260666184Y-26101000D01*
X260501772Y-26068297D01*
X260346900Y-26004147D01*
X260207519Y-25911015D01*
X260088985Y-25792481D01*
X259995853Y-25653100D01*
X259931703Y-25498228D01*
X259899000Y-25333816D01*
X259899000Y-25166184D01*
X259931703Y-25001772D01*
X259995853Y-24846900D01*
X260088985Y-24707519D01*
X260207519Y-24588985D01*
X260346900Y-24495853D01*
X260501772Y-24431703D01*
X260666184Y-24399000D01*
X260833816Y-24399000D01*
X260998228Y-24431703D01*
X260998228Y-24431703D01*
G37*
G36*
X271076821Y-24411313D02*
X271076824Y-24411314D01*
X271076825Y-24411314D01*
X271237239Y-24459975D01*
X271237241Y-24459976D01*
X271237244Y-24459977D01*
X271385078Y-24538995D01*
X271514659Y-24645341D01*
X271621005Y-24774922D01*
X271700023Y-24922756D01*
X271700024Y-24922759D01*
X271700025Y-24922761D01*
X271748686Y-25083175D01*
X271748687Y-25083179D01*
X271765117Y-25250000D01*
X271748687Y-25416821D01*
X271748686Y-25416824D01*
X271748686Y-25416825D01*
X271723993Y-25498228D01*
X271700023Y-25577244D01*
X271621005Y-25725078D01*
X271514659Y-25854659D01*
X271385078Y-25961005D01*
X271237244Y-26040023D01*
X271237241Y-26040024D01*
X271237239Y-26040025D01*
X271076825Y-26088686D01*
X271076824Y-26088686D01*
X271076821Y-26088687D01*
X270951804Y-26101000D01*
X270868196Y-26101000D01*
X270743179Y-26088687D01*
X270743176Y-26088686D01*
X270743175Y-26088686D01*
X270582761Y-26040025D01*
X270582759Y-26040024D01*
X270582756Y-26040023D01*
X270434922Y-25961005D01*
X270305341Y-25854659D01*
X270198995Y-25725078D01*
X270119977Y-25577244D01*
X270096008Y-25498228D01*
X270071314Y-25416825D01*
X270071314Y-25416824D01*
X270071313Y-25416821D01*
X270054883Y-25250000D01*
X270071313Y-25083179D01*
X270071314Y-25083175D01*
X270119975Y-24922761D01*
X270119976Y-24922759D01*
X270119977Y-24922756D01*
X270198995Y-24774922D01*
X270305341Y-24645341D01*
X270434922Y-24538995D01*
X270582756Y-24459977D01*
X270582759Y-24459976D01*
X270582761Y-24459975D01*
X270743175Y-24411314D01*
X270743176Y-24411314D01*
X270743179Y-24411313D01*
X270868196Y-24399000D01*
X270951804Y-24399000D01*
X271076821Y-24411313D01*
X271076821Y-24411313D01*
G37*
G36*
X281201000Y-25701000D02*
X279299000Y-25701000D01*
X279299000Y-23799000D01*
X281201000Y-23799000D01*
X281201000Y-25701000D01*
X281201000Y-25701000D01*
G37*
G36*
X280527396Y-21295546D02*
X280700466Y-21367234D01*
X280856230Y-21471312D01*
X280988688Y-21603770D01*
X281092766Y-21759534D01*
X281164454Y-21932604D01*
X281201000Y-22116333D01*
X281201000Y-22303667D01*
X281164454Y-22487396D01*
X281092766Y-22660466D01*
X280988688Y-22816230D01*
X280856230Y-22948688D01*
X280700466Y-23052766D01*
X280527396Y-23124454D01*
X280343667Y-23161000D01*
X280156333Y-23161000D01*
X279972604Y-23124454D01*
X279799534Y-23052766D01*
X279643770Y-22948688D01*
X279511312Y-22816230D01*
X279407234Y-22660466D01*
X279335546Y-22487396D01*
X279299000Y-22303667D01*
X279299000Y-22116333D01*
X279335546Y-21932604D01*
X279407234Y-21759534D01*
X279511312Y-21603770D01*
X279643770Y-21471312D01*
X279799534Y-21367234D01*
X279972604Y-21295546D01*
X280156333Y-21259000D01*
X280343667Y-21259000D01*
X280527396Y-21295546D01*
X280527396Y-21295546D01*
G37*
G36*
X268326821Y-20911313D02*
X268326824Y-20911314D01*
X268326825Y-20911314D01*
X268487239Y-20959975D01*
X268487241Y-20959976D01*
X268487244Y-20959977D01*
X268635078Y-21038995D01*
X268764659Y-21145341D01*
X268871005Y-21274922D01*
X268950023Y-21422756D01*
X268950024Y-21422759D01*
X268950025Y-21422761D01*
X268998686Y-21583175D01*
X268998687Y-21583179D01*
X269015117Y-21750000D01*
X268998687Y-21916821D01*
X268998686Y-21916824D01*
X268998686Y-21916825D01*
X268973993Y-21998228D01*
X268950023Y-22077244D01*
X268871005Y-22225078D01*
X268764659Y-22354659D01*
X268635078Y-22461005D01*
X268487244Y-22540023D01*
X268487241Y-22540024D01*
X268487239Y-22540025D01*
X268326825Y-22588686D01*
X268326824Y-22588686D01*
X268326821Y-22588687D01*
X268201804Y-22601000D01*
X268118196Y-22601000D01*
X267993179Y-22588687D01*
X267993176Y-22588686D01*
X267993175Y-22588686D01*
X267832761Y-22540025D01*
X267832759Y-22540024D01*
X267832756Y-22540023D01*
X267684922Y-22461005D01*
X267555341Y-22354659D01*
X267448995Y-22225078D01*
X267369977Y-22077244D01*
X267346008Y-21998228D01*
X267321314Y-21916825D01*
X267321314Y-21916824D01*
X267321313Y-21916821D01*
X267304883Y-21750000D01*
X267321313Y-21583179D01*
X267321314Y-21583175D01*
X267369975Y-21422761D01*
X267369976Y-21422759D01*
X267369977Y-21422756D01*
X267448995Y-21274922D01*
X267555341Y-21145341D01*
X267684922Y-21038995D01*
X267832756Y-20959977D01*
X267832759Y-20959976D01*
X267832761Y-20959975D01*
X267993175Y-20911314D01*
X267993176Y-20911314D01*
X267993179Y-20911313D01*
X268118196Y-20899000D01*
X268201804Y-20899000D01*
X268326821Y-20911313D01*
X268326821Y-20911313D01*
G37*
G36*
X258248228Y-20931703D02*
X258403100Y-20995853D01*
X258542481Y-21088985D01*
X258661015Y-21207519D01*
X258754147Y-21346900D01*
X258818297Y-21501772D01*
X258851000Y-21666184D01*
X258851000Y-21833816D01*
X258818297Y-21998228D01*
X258754147Y-22153100D01*
X258661015Y-22292481D01*
X258542481Y-22411015D01*
X258403100Y-22504147D01*
X258248228Y-22568297D01*
X258083816Y-22601000D01*
X257916184Y-22601000D01*
X257751772Y-22568297D01*
X257596900Y-22504147D01*
X257457519Y-22411015D01*
X257338985Y-22292481D01*
X257245853Y-22153100D01*
X257181703Y-21998228D01*
X257149000Y-21833816D01*
X257149000Y-21666184D01*
X257181703Y-21501772D01*
X257245853Y-21346900D01*
X257338985Y-21207519D01*
X257457519Y-21088985D01*
X257596900Y-20995853D01*
X257751772Y-20931703D01*
X257916184Y-20899000D01*
X258083816Y-20899000D01*
X258248228Y-20931703D01*
X258248228Y-20931703D01*
G37*
G36*
X280527396Y-18755546D02*
X280700466Y-18827234D01*
X280856230Y-18931312D01*
X280988688Y-19063770D01*
X281092766Y-19219534D01*
X281164454Y-19392604D01*
X281201000Y-19576333D01*
X281201000Y-19763667D01*
X281164454Y-19947396D01*
X281092766Y-20120466D01*
X280988688Y-20276230D01*
X280856230Y-20408688D01*
X280700466Y-20512766D01*
X280527396Y-20584454D01*
X280343667Y-20621000D01*
X280156333Y-20621000D01*
X279972604Y-20584454D01*
X279799534Y-20512766D01*
X279643770Y-20408688D01*
X279511312Y-20276230D01*
X279407234Y-20120466D01*
X279335546Y-19947396D01*
X279299000Y-19763667D01*
X279299000Y-19576333D01*
X279335546Y-19392604D01*
X279407234Y-19219534D01*
X279511312Y-19063770D01*
X279643770Y-18931312D01*
X279799534Y-18827234D01*
X279972604Y-18755546D01*
X280156333Y-18719000D01*
X280343667Y-18719000D01*
X280527396Y-18755546D01*
X280527396Y-18755546D01*
G37*
M02*
