G04 #@! TF.GenerationSoftware,KiCad,Pcbnew,(5.0.0-3-g5ebb6b6)*
G04 #@! TF.CreationDate,2021-01-19T19:10:24+01:00*
G04 #@! TF.ProjectId,HB-RC-4-TOUCH,48422D52432D342D544F5543482E6B69,rev?*
G04 #@! TF.SameCoordinates,Original*
G04 #@! TF.FileFunction,Legend,Top*
G04 #@! TF.FilePolarity,Positive*
%FSLAX46Y46*%
G04 Gerber Fmt 4.6, Leading zero omitted, Abs format (unit mm)*
G04 Created by KiCad (PCBNEW (5.0.0-3-g5ebb6b6)) date 2021 January 19, Tuesday 19:10:24*
%MOMM*%
%LPD*%
G01*
G04 APERTURE LIST*
%ADD10C,0.152400*%
%ADD11C,0.177800*%
%ADD12C,0.381000*%
%ADD13C,0.120000*%
%ADD14C,0.150000*%
%ADD15C,0.203200*%
%ADD16C,0.190500*%
G04 APERTURE END LIST*
D10*
G04 #@! TO.C,X1*
X264520000Y-42850000D02*
X264520000Y-49835000D01*
X267060000Y-42850000D02*
X267060000Y-49835000D01*
X253471000Y-39675000D02*
X253471000Y-33325000D01*
X253471000Y-39675000D02*
X249915000Y-39675000D01*
X249915000Y-33325000D02*
X249915000Y-39675000D01*
X253471000Y-33325000D02*
X249915000Y-33325000D01*
D11*
X260191105Y-31085544D02*
X265579259Y-36473697D01*
X265579259Y-36473697D02*
X260191105Y-41861851D01*
X254802951Y-36473697D02*
X260191105Y-41861851D01*
X260191105Y-31085544D02*
X254802951Y-36473697D01*
D12*
X280141000Y-27102000D02*
X280141000Y-45898000D01*
X280141000Y-45898000D02*
X246359000Y-45898000D01*
X246359000Y-45898000D02*
X246359000Y-27102000D01*
X246359000Y-27102000D02*
X280141000Y-27102000D01*
D13*
G04 #@! TO.C,U2*
X242240000Y-45160000D02*
X211760000Y-45160000D01*
X242240000Y-24840000D02*
X242240000Y-45160000D01*
X211760000Y-24840000D02*
X242240000Y-24840000D01*
X211760000Y-24840000D02*
X211760000Y-45160000D01*
D14*
G04 #@! TO.C,U1*
X283000000Y-70500000D02*
X263000000Y-70500000D01*
X283000000Y-53500000D02*
X283000000Y-70500000D01*
X263000000Y-53500000D02*
X283000000Y-53500000D01*
X282500000Y-63000000D02*
G75*
G03X282500000Y-63000000I-500000J0D01*
G01*
X282500000Y-60500000D02*
G75*
G03X282500000Y-60500000I-500000J0D01*
G01*
X282500000Y-65500000D02*
G75*
G03X282500000Y-65500000I-500000J0D01*
G01*
X263000000Y-53500000D02*
X263000000Y-54000000D01*
X263000000Y-70500000D02*
X263000000Y-70000000D01*
D13*
G04 #@! TO.C,SW1*
X246770000Y-25730000D02*
X246770000Y-25700000D01*
X246770000Y-19270000D02*
X246770000Y-19300000D01*
X253230000Y-19270000D02*
X253230000Y-19300000D01*
X253230000Y-25700000D02*
X253230000Y-25730000D01*
X246770000Y-23800000D02*
X246770000Y-21200000D01*
X253230000Y-25730000D02*
X246770000Y-25730000D01*
X253230000Y-23800000D02*
X253230000Y-21200000D01*
X253230000Y-19270000D02*
X246770000Y-19270000D01*
G04 #@! TO.C,R2*
X259810000Y-20380000D02*
X259810000Y-23120000D01*
X259810000Y-23120000D02*
X266350000Y-23120000D01*
X266350000Y-23120000D02*
X266350000Y-20380000D01*
X266350000Y-20380000D02*
X259810000Y-20380000D01*
X259040000Y-21750000D02*
X259810000Y-21750000D01*
X267120000Y-21750000D02*
X266350000Y-21750000D01*
G04 #@! TO.C,R1*
X262560000Y-23880000D02*
X262560000Y-26620000D01*
X262560000Y-26620000D02*
X269100000Y-26620000D01*
X269100000Y-26620000D02*
X269100000Y-23880000D01*
X269100000Y-23880000D02*
X262560000Y-23880000D01*
X261790000Y-25250000D02*
X262560000Y-25250000D01*
X269870000Y-25250000D02*
X269100000Y-25250000D01*
G04 #@! TO.C,J6*
X227300000Y-48450000D02*
X227300000Y-46550000D01*
X229200000Y-48450000D02*
X227300000Y-48450000D01*
X229200000Y-46550000D02*
X229200000Y-48450000D01*
X227300000Y-46550000D02*
X229200000Y-46550000D01*
G04 #@! TO.C,J5*
X224800000Y-48450000D02*
X224800000Y-46550000D01*
X226700000Y-48450000D02*
X224800000Y-48450000D01*
X226700000Y-46550000D02*
X226700000Y-48450000D01*
X224800000Y-46550000D02*
X226700000Y-46550000D01*
G04 #@! TO.C,D1*
X279171392Y-20537665D02*
G75*
G03X279014484Y-23770000I1078608J-1672335D01*
G01*
X281328608Y-20537665D02*
G75*
G02X281485516Y-23770000I-1078608J-1672335D01*
G01*
X279170163Y-21168870D02*
G75*
G03X279170000Y-23250961I1079837J-1041130D01*
G01*
X281329837Y-21168870D02*
G75*
G02X281330000Y-23250961I-1079837J-1041130D01*
G01*
X279014000Y-23770000D02*
X279170000Y-23770000D01*
X281330000Y-23770000D02*
X281486000Y-23770000D01*
G04 #@! TO.C,X1*
D15*
X285263333Y-37860714D02*
X287041333Y-36844714D01*
X285263333Y-36844714D02*
X287041333Y-37860714D01*
X287041333Y-35465857D02*
X287041333Y-36336714D01*
X287041333Y-35901285D02*
X285263333Y-35901285D01*
X285517333Y-36046428D01*
X285686666Y-36191571D01*
X285771333Y-36336714D01*
D16*
X267271666Y-50978000D02*
X267271666Y-50433714D01*
X267634523Y-51086857D02*
X266364523Y-50705857D01*
X267634523Y-50324857D01*
X266364523Y-49399571D02*
X266364523Y-49943857D01*
X266969285Y-49998285D01*
X266908809Y-49943857D01*
X266848333Y-49835000D01*
X266848333Y-49562857D01*
X266908809Y-49454000D01*
X266969285Y-49399571D01*
X267090238Y-49345142D01*
X267392619Y-49345142D01*
X267513571Y-49399571D01*
X267574047Y-49454000D01*
X267634523Y-49562857D01*
X267634523Y-49835000D01*
X267574047Y-49943857D01*
X267513571Y-49998285D01*
X264731666Y-50978000D02*
X264731666Y-50433714D01*
X265094523Y-51086857D02*
X263824523Y-50705857D01*
X265094523Y-50324857D01*
X264247857Y-49454000D02*
X265094523Y-49454000D01*
X263764047Y-49726142D02*
X264671190Y-49998285D01*
X264671190Y-49290714D01*
X248203523Y-24162857D02*
X248203523Y-23945142D01*
X248143047Y-23836285D01*
X248082571Y-23781857D01*
X247901142Y-23673000D01*
X247659238Y-23618571D01*
X247175428Y-23618571D01*
X247054476Y-23673000D01*
X246994000Y-23727428D01*
X246933523Y-23836285D01*
X246933523Y-24054000D01*
X246994000Y-24162857D01*
X247054476Y-24217285D01*
X247175428Y-24271714D01*
X247477809Y-24271714D01*
X247598761Y-24217285D01*
X247659238Y-24162857D01*
X247719714Y-24054000D01*
X247719714Y-23836285D01*
X247659238Y-23727428D01*
X247598761Y-23673000D01*
X247477809Y-23618571D01*
X250017809Y-24054000D02*
X249957333Y-24162857D01*
X249896857Y-24217285D01*
X249775904Y-24271714D01*
X249715428Y-24271714D01*
X249594476Y-24217285D01*
X249534000Y-24162857D01*
X249473523Y-24054000D01*
X249473523Y-23836285D01*
X249534000Y-23727428D01*
X249594476Y-23673000D01*
X249715428Y-23618571D01*
X249775904Y-23618571D01*
X249896857Y-23673000D01*
X249957333Y-23727428D01*
X250017809Y-23836285D01*
X250017809Y-24054000D01*
X250078285Y-24162857D01*
X250138761Y-24217285D01*
X250259714Y-24271714D01*
X250501619Y-24271714D01*
X250622571Y-24217285D01*
X250683047Y-24162857D01*
X250743523Y-24054000D01*
X250743523Y-23836285D01*
X250683047Y-23727428D01*
X250622571Y-23673000D01*
X250501619Y-23618571D01*
X250259714Y-23618571D01*
X250138761Y-23673000D01*
X250078285Y-23727428D01*
X250017809Y-23836285D01*
X252013523Y-24326142D02*
X252013523Y-23564142D01*
X253283523Y-24054000D01*
X254553523Y-23727428D02*
X254553523Y-23945142D01*
X254614000Y-24054000D01*
X254674476Y-24108428D01*
X254855904Y-24217285D01*
X255097809Y-24271714D01*
X255581619Y-24271714D01*
X255702571Y-24217285D01*
X255763047Y-24162857D01*
X255823523Y-24054000D01*
X255823523Y-23836285D01*
X255763047Y-23727428D01*
X255702571Y-23673000D01*
X255581619Y-23618571D01*
X255279238Y-23618571D01*
X255158285Y-23673000D01*
X255097809Y-23727428D01*
X255037333Y-23836285D01*
X255037333Y-24054000D01*
X255097809Y-24162857D01*
X255158285Y-24217285D01*
X255279238Y-24271714D01*
X257093523Y-23673000D02*
X257093523Y-24217285D01*
X257698285Y-24271714D01*
X257637809Y-24217285D01*
X257577333Y-24108428D01*
X257577333Y-23836285D01*
X257637809Y-23727428D01*
X257698285Y-23673000D01*
X257819238Y-23618571D01*
X258121619Y-23618571D01*
X258242571Y-23673000D01*
X258303047Y-23727428D01*
X258363523Y-23836285D01*
X258363523Y-24108428D01*
X258303047Y-24217285D01*
X258242571Y-24271714D01*
X260056857Y-23727428D02*
X260903523Y-23727428D01*
X259573047Y-23999571D02*
X260480190Y-24271714D01*
X260480190Y-23564142D01*
X274873523Y-26285571D02*
X274873523Y-25632428D01*
X276143523Y-25959000D02*
X274873523Y-25959000D01*
X274873523Y-25360285D02*
X276143523Y-24598285D01*
X274873523Y-24598285D02*
X276143523Y-25360285D01*
X274873523Y-23945142D02*
X274873523Y-23727428D01*
X274934000Y-23618571D01*
X275054952Y-23509714D01*
X275296857Y-23455285D01*
X275720190Y-23455285D01*
X275962095Y-23509714D01*
X276083047Y-23618571D01*
X276143523Y-23727428D01*
X276143523Y-23945142D01*
X276083047Y-24054000D01*
X275962095Y-24162857D01*
X275720190Y-24217285D01*
X275296857Y-24217285D01*
X275054952Y-24162857D01*
X274934000Y-24054000D01*
X274873523Y-23945142D01*
X273603523Y-25278642D02*
X272998761Y-25659642D01*
X273603523Y-25931785D02*
X272333523Y-25931785D01*
X272333523Y-25496357D01*
X272394000Y-25387500D01*
X272454476Y-25333071D01*
X272575428Y-25278642D01*
X272756857Y-25278642D01*
X272877809Y-25333071D01*
X272938285Y-25387500D01*
X272998761Y-25496357D01*
X272998761Y-25931785D01*
X272333523Y-24897642D02*
X273603523Y-24135642D01*
X272333523Y-24135642D02*
X273603523Y-24897642D01*
X273603523Y-23700214D02*
X272333523Y-23700214D01*
X271063523Y-25441928D02*
X270458761Y-25822928D01*
X271063523Y-26095071D02*
X269793523Y-26095071D01*
X269793523Y-25659642D01*
X269854000Y-25550785D01*
X269914476Y-25496357D01*
X270035428Y-25441928D01*
X270216857Y-25441928D01*
X270337809Y-25496357D01*
X270398285Y-25550785D01*
X270458761Y-25659642D01*
X270458761Y-26095071D01*
X271003047Y-25006500D02*
X271063523Y-24843214D01*
X271063523Y-24571071D01*
X271003047Y-24462214D01*
X270942571Y-24407785D01*
X270821619Y-24353357D01*
X270700666Y-24353357D01*
X270579714Y-24407785D01*
X270519238Y-24462214D01*
X270458761Y-24571071D01*
X270398285Y-24788785D01*
X270337809Y-24897642D01*
X270277333Y-24952071D01*
X270156380Y-25006500D01*
X270035428Y-25006500D01*
X269914476Y-24952071D01*
X269854000Y-24897642D01*
X269793523Y-24788785D01*
X269793523Y-24516642D01*
X269854000Y-24353357D01*
X269793523Y-24026785D02*
X269793523Y-23373642D01*
X271063523Y-23700214D02*
X269793523Y-23700214D01*
X267314000Y-25686857D02*
X267253523Y-25795714D01*
X267253523Y-25959000D01*
X267314000Y-26122285D01*
X267434952Y-26231142D01*
X267555904Y-26285571D01*
X267797809Y-26340000D01*
X267979238Y-26340000D01*
X268221142Y-26285571D01*
X268342095Y-26231142D01*
X268463047Y-26122285D01*
X268523523Y-25959000D01*
X268523523Y-25850142D01*
X268463047Y-25686857D01*
X268402571Y-25632428D01*
X267979238Y-25632428D01*
X267979238Y-25850142D01*
X268523523Y-25142571D02*
X267253523Y-25142571D01*
X268523523Y-24489428D01*
X267253523Y-24489428D01*
X268523523Y-23945142D02*
X267253523Y-23945142D01*
X267253523Y-23673000D01*
X267314000Y-23509714D01*
X267434952Y-23400857D01*
X267555904Y-23346428D01*
X267797809Y-23292000D01*
X267979238Y-23292000D01*
X268221142Y-23346428D01*
X268342095Y-23400857D01*
X268463047Y-23509714D01*
X268523523Y-23673000D01*
X268523523Y-23945142D01*
X264834476Y-24271714D02*
X264774000Y-24217285D01*
X264713523Y-24108428D01*
X264713523Y-23836285D01*
X264774000Y-23727428D01*
X264834476Y-23673000D01*
X264955428Y-23618571D01*
X265076380Y-23618571D01*
X265257809Y-23673000D01*
X265983523Y-24326142D01*
X265983523Y-23618571D01*
X262173523Y-24326142D02*
X262173523Y-23618571D01*
X262657333Y-23999571D01*
X262657333Y-23836285D01*
X262717809Y-23727428D01*
X262778285Y-23673000D01*
X262899238Y-23618571D01*
X263201619Y-23618571D01*
X263322571Y-23673000D01*
X263383047Y-23727428D01*
X263443523Y-23836285D01*
X263443523Y-24162857D01*
X263383047Y-24271714D01*
X263322571Y-24326142D01*
X263461666Y-48438000D02*
X263461666Y-47893714D01*
X263824523Y-48546857D02*
X262554523Y-48165857D01*
X263824523Y-47784857D01*
X262675476Y-47458285D02*
X262615000Y-47403857D01*
X262554523Y-47295000D01*
X262554523Y-47022857D01*
X262615000Y-46914000D01*
X262675476Y-46859571D01*
X262796428Y-46805142D01*
X262917380Y-46805142D01*
X263098809Y-46859571D01*
X263824523Y-47512714D01*
X263824523Y-46805142D01*
X266001666Y-48438000D02*
X266001666Y-47893714D01*
X266364523Y-48546857D02*
X265094523Y-48165857D01*
X266364523Y-47784857D01*
X265094523Y-47512714D02*
X265094523Y-46805142D01*
X265578333Y-47186142D01*
X265578333Y-47022857D01*
X265638809Y-46914000D01*
X265699285Y-46859571D01*
X265820238Y-46805142D01*
X266122619Y-46805142D01*
X266243571Y-46859571D01*
X266304047Y-46914000D01*
X266364523Y-47022857D01*
X266364523Y-47349428D01*
X266304047Y-47458285D01*
X266243571Y-47512714D01*
X267634523Y-49581000D02*
X268904523Y-49200000D01*
X267634523Y-48819000D01*
X268783571Y-47784857D02*
X268844047Y-47839285D01*
X268904523Y-48002571D01*
X268904523Y-48111428D01*
X268844047Y-48274714D01*
X268723095Y-48383571D01*
X268602142Y-48438000D01*
X268360238Y-48492428D01*
X268178809Y-48492428D01*
X267936904Y-48438000D01*
X267815952Y-48383571D01*
X267695000Y-48274714D01*
X267634523Y-48111428D01*
X267634523Y-48002571D01*
X267695000Y-47839285D01*
X267755476Y-47784857D01*
X268783571Y-46641857D02*
X268844047Y-46696285D01*
X268904523Y-46859571D01*
X268904523Y-46968428D01*
X268844047Y-47131714D01*
X268723095Y-47240571D01*
X268602142Y-47295000D01*
X268360238Y-47349428D01*
X268178809Y-47349428D01*
X267936904Y-47295000D01*
X267815952Y-47240571D01*
X267695000Y-47131714D01*
X267634523Y-46968428D01*
X267634523Y-46859571D01*
X267695000Y-46696285D01*
X267755476Y-46641857D01*
X271444523Y-48682928D02*
X270839761Y-49063928D01*
X271444523Y-49336071D02*
X270174523Y-49336071D01*
X270174523Y-48900642D01*
X270235000Y-48791785D01*
X270295476Y-48737357D01*
X270416428Y-48682928D01*
X270597857Y-48682928D01*
X270718809Y-48737357D01*
X270779285Y-48791785D01*
X270839761Y-48900642D01*
X270839761Y-49336071D01*
X271384047Y-48247500D02*
X271444523Y-48084214D01*
X271444523Y-47812071D01*
X271384047Y-47703214D01*
X271323571Y-47648785D01*
X271202619Y-47594357D01*
X271081666Y-47594357D01*
X270960714Y-47648785D01*
X270900238Y-47703214D01*
X270839761Y-47812071D01*
X270779285Y-48029785D01*
X270718809Y-48138642D01*
X270658333Y-48193071D01*
X270537380Y-48247500D01*
X270416428Y-48247500D01*
X270295476Y-48193071D01*
X270235000Y-48138642D01*
X270174523Y-48029785D01*
X270174523Y-47757642D01*
X270235000Y-47594357D01*
X270174523Y-47267785D02*
X270174523Y-46614642D01*
X271444523Y-46941214D02*
X270174523Y-46941214D01*
X272775000Y-48927857D02*
X272714523Y-49036714D01*
X272714523Y-49200000D01*
X272775000Y-49363285D01*
X272895952Y-49472142D01*
X273016904Y-49526571D01*
X273258809Y-49581000D01*
X273440238Y-49581000D01*
X273682142Y-49526571D01*
X273803095Y-49472142D01*
X273924047Y-49363285D01*
X273984523Y-49200000D01*
X273984523Y-49091142D01*
X273924047Y-48927857D01*
X273863571Y-48873428D01*
X273440238Y-48873428D01*
X273440238Y-49091142D01*
X273984523Y-48383571D02*
X272714523Y-48383571D01*
X273984523Y-47730428D01*
X272714523Y-47730428D01*
X273984523Y-47186142D02*
X272714523Y-47186142D01*
X272714523Y-46914000D01*
X272775000Y-46750714D01*
X272895952Y-46641857D01*
X273016904Y-46587428D01*
X273258809Y-46533000D01*
X273440238Y-46533000D01*
X273682142Y-46587428D01*
X273803095Y-46641857D01*
X273924047Y-46750714D01*
X273984523Y-46914000D01*
X273984523Y-47186142D01*
X276524523Y-48846214D02*
X275919761Y-49227214D01*
X276524523Y-49499357D02*
X275254523Y-49499357D01*
X275254523Y-49063928D01*
X275315000Y-48955071D01*
X275375476Y-48900642D01*
X275496428Y-48846214D01*
X275677857Y-48846214D01*
X275798809Y-48900642D01*
X275859285Y-48955071D01*
X275919761Y-49063928D01*
X275919761Y-49499357D01*
X276161666Y-48410785D02*
X276161666Y-47866500D01*
X276524523Y-48519642D02*
X275254523Y-48138642D01*
X276524523Y-47757642D01*
X275254523Y-47485500D02*
X276524523Y-47213357D01*
X275617380Y-46995642D01*
X276524523Y-46777928D01*
X275254523Y-46505785D01*
X260921666Y-48438000D02*
X260921666Y-47893714D01*
X261284523Y-48546857D02*
X260014523Y-48165857D01*
X261284523Y-47784857D01*
X261284523Y-46805142D02*
X261284523Y-47458285D01*
X261284523Y-47131714D02*
X260014523Y-47131714D01*
X260195952Y-47240571D01*
X260316904Y-47349428D01*
X260377380Y-47458285D01*
X258381666Y-48438000D02*
X258381666Y-47893714D01*
X258744523Y-48546857D02*
X257474523Y-48165857D01*
X258744523Y-47784857D01*
X257474523Y-47186142D02*
X257474523Y-47077285D01*
X257535000Y-46968428D01*
X257595476Y-46914000D01*
X257716428Y-46859571D01*
X257958333Y-46805142D01*
X258260714Y-46805142D01*
X258502619Y-46859571D01*
X258623571Y-46914000D01*
X258684047Y-46968428D01*
X258744523Y-47077285D01*
X258744523Y-47186142D01*
X258684047Y-47295000D01*
X258623571Y-47349428D01*
X258502619Y-47403857D01*
X258260714Y-47458285D01*
X257958333Y-47458285D01*
X257716428Y-47403857D01*
X257595476Y-47349428D01*
X257535000Y-47295000D01*
X257474523Y-47186142D01*
X256204523Y-47839285D02*
X256204523Y-48492428D01*
X256204523Y-48165857D02*
X254934523Y-48165857D01*
X255115952Y-48274714D01*
X255236904Y-48383571D01*
X255297380Y-48492428D01*
X254934523Y-47458285D02*
X254934523Y-46750714D01*
X255418333Y-47131714D01*
X255418333Y-46968428D01*
X255478809Y-46859571D01*
X255539285Y-46805142D01*
X255660238Y-46750714D01*
X255962619Y-46750714D01*
X256083571Y-46805142D01*
X256144047Y-46859571D01*
X256204523Y-46968428D01*
X256204523Y-47295000D01*
X256144047Y-47403857D01*
X256083571Y-47458285D01*
X253664523Y-47839285D02*
X253664523Y-48492428D01*
X253664523Y-48165857D02*
X252394523Y-48165857D01*
X252575952Y-48274714D01*
X252696904Y-48383571D01*
X252757380Y-48492428D01*
X252515476Y-47403857D02*
X252455000Y-47349428D01*
X252394523Y-47240571D01*
X252394523Y-46968428D01*
X252455000Y-46859571D01*
X252515476Y-46805142D01*
X252636428Y-46750714D01*
X252757380Y-46750714D01*
X252938809Y-46805142D01*
X253664523Y-47458285D01*
X253664523Y-46750714D01*
X251124523Y-47839285D02*
X251124523Y-48492428D01*
X251124523Y-48165857D02*
X249854523Y-48165857D01*
X250035952Y-48274714D01*
X250156904Y-48383571D01*
X250217380Y-48492428D01*
X251124523Y-46750714D02*
X251124523Y-47403857D01*
X251124523Y-47077285D02*
X249854523Y-47077285D01*
X250035952Y-47186142D01*
X250156904Y-47295000D01*
X250217380Y-47403857D01*
X248584523Y-47839285D02*
X248584523Y-48492428D01*
X248584523Y-48165857D02*
X247314523Y-48165857D01*
X247495952Y-48274714D01*
X247616904Y-48383571D01*
X247677380Y-48492428D01*
X247314523Y-47131714D02*
X247314523Y-47022857D01*
X247375000Y-46914000D01*
X247435476Y-46859571D01*
X247556428Y-46805142D01*
X247798333Y-46750714D01*
X248100714Y-46750714D01*
X248342619Y-46805142D01*
X248463571Y-46859571D01*
X248524047Y-46914000D01*
X248584523Y-47022857D01*
X248584523Y-47131714D01*
X248524047Y-47240571D01*
X248463571Y-47295000D01*
X248342619Y-47349428D01*
X248100714Y-47403857D01*
X247798333Y-47403857D01*
X247556428Y-47349428D01*
X247435476Y-47295000D01*
X247375000Y-47240571D01*
X247314523Y-47131714D01*
X243819000Y-41918666D02*
X244363285Y-41918666D01*
X243710142Y-42281523D02*
X244091142Y-41011523D01*
X244472142Y-42281523D01*
X244744285Y-41011523D02*
X245506285Y-41011523D01*
X245016428Y-42281523D01*
X243819000Y-39378666D02*
X244363285Y-39378666D01*
X243710142Y-39741523D02*
X244091142Y-38471523D01*
X244472142Y-39741523D01*
X245343000Y-38471523D02*
X245125285Y-38471523D01*
X245016428Y-38532000D01*
X244962000Y-38592476D01*
X244853142Y-38773904D01*
X244798714Y-39015809D01*
X244798714Y-39499619D01*
X244853142Y-39620571D01*
X244907571Y-39681047D01*
X245016428Y-39741523D01*
X245234142Y-39741523D01*
X245343000Y-39681047D01*
X245397428Y-39620571D01*
X245451857Y-39499619D01*
X245451857Y-39197238D01*
X245397428Y-39076285D01*
X245343000Y-39015809D01*
X245234142Y-38955333D01*
X245016428Y-38955333D01*
X244907571Y-39015809D01*
X244853142Y-39076285D01*
X244798714Y-39197238D01*
X243329142Y-35992000D02*
X243220285Y-35931523D01*
X243057000Y-35931523D01*
X242893714Y-35992000D01*
X242784857Y-36112952D01*
X242730428Y-36233904D01*
X242676000Y-36475809D01*
X242676000Y-36657238D01*
X242730428Y-36899142D01*
X242784857Y-37020095D01*
X242893714Y-37141047D01*
X243057000Y-37201523D01*
X243165857Y-37201523D01*
X243329142Y-37141047D01*
X243383571Y-37080571D01*
X243383571Y-36657238D01*
X243165857Y-36657238D01*
X243873428Y-37201523D02*
X243873428Y-35931523D01*
X244526571Y-37201523D01*
X244526571Y-35931523D01*
X245070857Y-37201523D02*
X245070857Y-35931523D01*
X245343000Y-35931523D01*
X245506285Y-35992000D01*
X245615142Y-36112952D01*
X245669571Y-36233904D01*
X245724000Y-36475809D01*
X245724000Y-36657238D01*
X245669571Y-36899142D01*
X245615142Y-37020095D01*
X245506285Y-37141047D01*
X245343000Y-37201523D01*
X245070857Y-37201523D01*
X281429142Y-42342000D02*
X281320285Y-42281523D01*
X281157000Y-42281523D01*
X280993714Y-42342000D01*
X280884857Y-42462952D01*
X280830428Y-42583904D01*
X280776000Y-42825809D01*
X280776000Y-43007238D01*
X280830428Y-43249142D01*
X280884857Y-43370095D01*
X280993714Y-43491047D01*
X281157000Y-43551523D01*
X281265857Y-43551523D01*
X281429142Y-43491047D01*
X281483571Y-43430571D01*
X281483571Y-43007238D01*
X281265857Y-43007238D01*
X281973428Y-43551523D02*
X281973428Y-42281523D01*
X282626571Y-43551523D01*
X282626571Y-42281523D01*
X283170857Y-43551523D02*
X283170857Y-42281523D01*
X283443000Y-42281523D01*
X283606285Y-42342000D01*
X283715142Y-42462952D01*
X283769571Y-42583904D01*
X283824000Y-42825809D01*
X283824000Y-43007238D01*
X283769571Y-43249142D01*
X283715142Y-43370095D01*
X283606285Y-43491047D01*
X283443000Y-43551523D01*
X283170857Y-43551523D01*
X281556142Y-39802000D02*
X281447285Y-39741523D01*
X281284000Y-39741523D01*
X281120714Y-39802000D01*
X281011857Y-39922952D01*
X280957428Y-40043904D01*
X280903000Y-40285809D01*
X280903000Y-40467238D01*
X280957428Y-40709142D01*
X281011857Y-40830095D01*
X281120714Y-40951047D01*
X281284000Y-41011523D01*
X281392857Y-41011523D01*
X281556142Y-40951047D01*
X281610571Y-40890571D01*
X281610571Y-40467238D01*
X281392857Y-40467238D01*
X282100428Y-41011523D02*
X282100428Y-39741523D01*
X282753571Y-41011523D01*
X282753571Y-39741523D01*
X283297857Y-41011523D02*
X283297857Y-39741523D01*
X283570000Y-39741523D01*
X283733285Y-39802000D01*
X283842142Y-39922952D01*
X283896571Y-40043904D01*
X283951000Y-40285809D01*
X283951000Y-40467238D01*
X283896571Y-40709142D01*
X283842142Y-40830095D01*
X283733285Y-40951047D01*
X283570000Y-41011523D01*
X283297857Y-41011523D01*
X280776000Y-37201523D02*
X281157000Y-38471523D01*
X281538000Y-37201523D01*
X282572142Y-38350571D02*
X282517714Y-38411047D01*
X282354428Y-38471523D01*
X282245571Y-38471523D01*
X282082285Y-38411047D01*
X281973428Y-38290095D01*
X281919000Y-38169142D01*
X281864571Y-37927238D01*
X281864571Y-37745809D01*
X281919000Y-37503904D01*
X281973428Y-37382952D01*
X282082285Y-37262000D01*
X282245571Y-37201523D01*
X282354428Y-37201523D01*
X282517714Y-37262000D01*
X282572142Y-37322476D01*
X283715142Y-38350571D02*
X283660714Y-38411047D01*
X283497428Y-38471523D01*
X283388571Y-38471523D01*
X283225285Y-38411047D01*
X283116428Y-38290095D01*
X283062000Y-38169142D01*
X283007571Y-37927238D01*
X283007571Y-37745809D01*
X283062000Y-37503904D01*
X283116428Y-37382952D01*
X283225285Y-37262000D01*
X283388571Y-37201523D01*
X283497428Y-37201523D01*
X283660714Y-37262000D01*
X283715142Y-37322476D01*
X281837357Y-35931523D02*
X281456357Y-35326761D01*
X281184214Y-35931523D02*
X281184214Y-34661523D01*
X281619642Y-34661523D01*
X281728500Y-34722000D01*
X281782928Y-34782476D01*
X281837357Y-34903428D01*
X281837357Y-35084857D01*
X281782928Y-35205809D01*
X281728500Y-35266285D01*
X281619642Y-35326761D01*
X281184214Y-35326761D01*
X282218357Y-34661523D02*
X282980357Y-35931523D01*
X282980357Y-34661523D02*
X282218357Y-35931523D01*
X283415785Y-35931523D02*
X283415785Y-34661523D01*
X280830428Y-32121523D02*
X281483571Y-32121523D01*
X281157000Y-33391523D02*
X281157000Y-32121523D01*
X281755714Y-32121523D02*
X282517714Y-33391523D01*
X282517714Y-32121523D02*
X281755714Y-33391523D01*
X283170857Y-32121523D02*
X283388571Y-32121523D01*
X283497428Y-32182000D01*
X283606285Y-32302952D01*
X283660714Y-32544857D01*
X283660714Y-32968190D01*
X283606285Y-33210095D01*
X283497428Y-33331047D01*
X283388571Y-33391523D01*
X283170857Y-33391523D01*
X283062000Y-33331047D01*
X282953142Y-33210095D01*
X282898714Y-32968190D01*
X282898714Y-32544857D01*
X282953142Y-32302952D01*
X283062000Y-32182000D01*
X283170857Y-32121523D01*
D11*
X280993714Y-30851523D02*
X280993714Y-29581523D01*
X281265857Y-29581523D01*
X281429142Y-29642000D01*
X281538000Y-29762952D01*
X281592428Y-29883904D01*
X281646857Y-30125809D01*
X281646857Y-30307238D01*
X281592428Y-30549142D01*
X281538000Y-30670095D01*
X281429142Y-30791047D01*
X281265857Y-30851523D01*
X280993714Y-30851523D01*
X281973428Y-29581523D02*
X282626571Y-29581523D01*
X282300000Y-30851523D02*
X282300000Y-29581523D01*
X283660714Y-30851523D02*
X283279714Y-30246761D01*
X283007571Y-30851523D02*
X283007571Y-29581523D01*
X283443000Y-29581523D01*
X283551857Y-29642000D01*
X283606285Y-29702476D01*
X283660714Y-29823428D01*
X283660714Y-30004857D01*
X283606285Y-30125809D01*
X283551857Y-30186285D01*
X283443000Y-30246761D01*
X283007571Y-30246761D01*
G04 #@! TO.C,U2*
D14*
X222174095Y-34706380D02*
X222174095Y-35515904D01*
X222221714Y-35611142D01*
X222269333Y-35658761D01*
X222364571Y-35706380D01*
X222555047Y-35706380D01*
X222650285Y-35658761D01*
X222697904Y-35611142D01*
X222745523Y-35515904D01*
X222745523Y-34706380D01*
X223174095Y-34801619D02*
X223221714Y-34754000D01*
X223316952Y-34706380D01*
X223555047Y-34706380D01*
X223650285Y-34754000D01*
X223697904Y-34801619D01*
X223745523Y-34896857D01*
X223745523Y-34992095D01*
X223697904Y-35134952D01*
X223126476Y-35706380D01*
X223745523Y-35706380D01*
G04 #@! TO.C,U1*
X267238095Y-54952380D02*
X267238095Y-55761904D01*
X267285714Y-55857142D01*
X267333333Y-55904761D01*
X267428571Y-55952380D01*
X267619047Y-55952380D01*
X267714285Y-55904761D01*
X267761904Y-55857142D01*
X267809523Y-55761904D01*
X267809523Y-54952380D01*
X268809523Y-55952380D02*
X268238095Y-55952380D01*
X268523809Y-55952380D02*
X268523809Y-54952380D01*
X268428571Y-55095238D01*
X268333333Y-55190476D01*
X268238095Y-55238095D01*
G04 #@! TO.C,SW1*
X248666666Y-26954761D02*
X248809523Y-27002380D01*
X249047619Y-27002380D01*
X249142857Y-26954761D01*
X249190476Y-26907142D01*
X249238095Y-26811904D01*
X249238095Y-26716666D01*
X249190476Y-26621428D01*
X249142857Y-26573809D01*
X249047619Y-26526190D01*
X248857142Y-26478571D01*
X248761904Y-26430952D01*
X248714285Y-26383333D01*
X248666666Y-26288095D01*
X248666666Y-26192857D01*
X248714285Y-26097619D01*
X248761904Y-26050000D01*
X248857142Y-26002380D01*
X249095238Y-26002380D01*
X249238095Y-26050000D01*
X249571428Y-26002380D02*
X249809523Y-27002380D01*
X250000000Y-26288095D01*
X250190476Y-27002380D01*
X250428571Y-26002380D01*
X251333333Y-27002380D02*
X250761904Y-27002380D01*
X251047619Y-27002380D02*
X251047619Y-26002380D01*
X250952380Y-26145238D01*
X250857142Y-26240476D01*
X250761904Y-26288095D01*
G04 #@! TO.C,R2*
X262913333Y-19832380D02*
X262580000Y-19356190D01*
X262341904Y-19832380D02*
X262341904Y-18832380D01*
X262722857Y-18832380D01*
X262818095Y-18880000D01*
X262865714Y-18927619D01*
X262913333Y-19022857D01*
X262913333Y-19165714D01*
X262865714Y-19260952D01*
X262818095Y-19308571D01*
X262722857Y-19356190D01*
X262341904Y-19356190D01*
X263294285Y-18927619D02*
X263341904Y-18880000D01*
X263437142Y-18832380D01*
X263675238Y-18832380D01*
X263770476Y-18880000D01*
X263818095Y-18927619D01*
X263865714Y-19022857D01*
X263865714Y-19118095D01*
X263818095Y-19260952D01*
X263246666Y-19832380D01*
X263865714Y-19832380D01*
G04 #@! TO.C,R1*
X265663333Y-23332380D02*
X265330000Y-22856190D01*
X265091904Y-23332380D02*
X265091904Y-22332380D01*
X265472857Y-22332380D01*
X265568095Y-22380000D01*
X265615714Y-22427619D01*
X265663333Y-22522857D01*
X265663333Y-22665714D01*
X265615714Y-22760952D01*
X265568095Y-22808571D01*
X265472857Y-22856190D01*
X265091904Y-22856190D01*
X266615714Y-23332380D02*
X266044285Y-23332380D01*
X266330000Y-23332380D02*
X266330000Y-22332380D01*
X266234761Y-22475238D01*
X266139523Y-22570476D01*
X266044285Y-22618095D01*
G04 #@! TO.C,J6*
X227916666Y-45304380D02*
X227916666Y-46018666D01*
X227869047Y-46161523D01*
X227773809Y-46256761D01*
X227630952Y-46304380D01*
X227535714Y-46304380D01*
X228821428Y-45304380D02*
X228630952Y-45304380D01*
X228535714Y-45352000D01*
X228488095Y-45399619D01*
X228392857Y-45542476D01*
X228345238Y-45732952D01*
X228345238Y-46113904D01*
X228392857Y-46209142D01*
X228440476Y-46256761D01*
X228535714Y-46304380D01*
X228726190Y-46304380D01*
X228821428Y-46256761D01*
X228869047Y-46209142D01*
X228916666Y-46113904D01*
X228916666Y-45875809D01*
X228869047Y-45780571D01*
X228821428Y-45732952D01*
X228726190Y-45685333D01*
X228535714Y-45685333D01*
X228440476Y-45732952D01*
X228392857Y-45780571D01*
X228345238Y-45875809D01*
G04 #@! TO.C,J5*
X225416666Y-45304380D02*
X225416666Y-46018666D01*
X225369047Y-46161523D01*
X225273809Y-46256761D01*
X225130952Y-46304380D01*
X225035714Y-46304380D01*
X226369047Y-45304380D02*
X225892857Y-45304380D01*
X225845238Y-45780571D01*
X225892857Y-45732952D01*
X225988095Y-45685333D01*
X226226190Y-45685333D01*
X226321428Y-45732952D01*
X226369047Y-45780571D01*
X226416666Y-45875809D01*
X226416666Y-46113904D01*
X226369047Y-46209142D01*
X226321428Y-46256761D01*
X226226190Y-46304380D01*
X225988095Y-46304380D01*
X225892857Y-46256761D01*
X225845238Y-46209142D01*
G04 #@! TO.C,J4*
X186666666Y-46952380D02*
X186666666Y-47666666D01*
X186619047Y-47809523D01*
X186523809Y-47904761D01*
X186380952Y-47952380D01*
X186285714Y-47952380D01*
X187571428Y-47285714D02*
X187571428Y-47952380D01*
X187333333Y-46904761D02*
X187095238Y-47619047D01*
X187714285Y-47619047D01*
G04 #@! TO.C,J3*
X139666666Y-46952380D02*
X139666666Y-47666666D01*
X139619047Y-47809523D01*
X139523809Y-47904761D01*
X139380952Y-47952380D01*
X139285714Y-47952380D01*
X140047619Y-46952380D02*
X140666666Y-46952380D01*
X140333333Y-47333333D01*
X140476190Y-47333333D01*
X140571428Y-47380952D01*
X140619047Y-47428571D01*
X140666666Y-47523809D01*
X140666666Y-47761904D01*
X140619047Y-47857142D01*
X140571428Y-47904761D01*
X140476190Y-47952380D01*
X140190476Y-47952380D01*
X140095238Y-47904761D01*
X140047619Y-47857142D01*
G04 #@! TO.C,J2*
X92666666Y-46952380D02*
X92666666Y-47666666D01*
X92619047Y-47809523D01*
X92523809Y-47904761D01*
X92380952Y-47952380D01*
X92285714Y-47952380D01*
X93095238Y-47047619D02*
X93142857Y-47000000D01*
X93238095Y-46952380D01*
X93476190Y-46952380D01*
X93571428Y-47000000D01*
X93619047Y-47047619D01*
X93666666Y-47142857D01*
X93666666Y-47238095D01*
X93619047Y-47380952D01*
X93047619Y-47952380D01*
X93666666Y-47952380D01*
G04 #@! TO.C,J1*
X45666666Y-46952380D02*
X45666666Y-47666666D01*
X45619047Y-47809523D01*
X45523809Y-47904761D01*
X45380952Y-47952380D01*
X45285714Y-47952380D01*
X46666666Y-47952380D02*
X46095238Y-47952380D01*
X46380952Y-47952380D02*
X46380952Y-46952380D01*
X46285714Y-47095238D01*
X46190476Y-47190476D01*
X46095238Y-47238095D01*
G04 #@! TO.C,D1*
X277742380Y-22948095D02*
X276742380Y-22948095D01*
X276742380Y-22710000D01*
X276790000Y-22567142D01*
X276885238Y-22471904D01*
X276980476Y-22424285D01*
X277170952Y-22376666D01*
X277313809Y-22376666D01*
X277504285Y-22424285D01*
X277599523Y-22471904D01*
X277694761Y-22567142D01*
X277742380Y-22710000D01*
X277742380Y-22948095D01*
X277742380Y-21424285D02*
X277742380Y-21995714D01*
X277742380Y-21710000D02*
X276742380Y-21710000D01*
X276885238Y-21805238D01*
X276980476Y-21900476D01*
X277028095Y-21995714D01*
G04 #@! TD*
M02*
